<?xml version="1.0" encoding="UTF-8" standalone="no"?>
<svg
   xmlns:dc="http://purl.org/dc/elements/1.1/"
   xmlns:cc="http://creativecommons.org/ns#"
   xmlns:rdf="http://www.w3.org/1999/02/22-rdf-syntax-ns#"
   xmlns:svg="http://www.w3.org/2000/svg"
   xmlns="http://www.w3.org/2000/svg"
   xmlns:sodipodi="http://sodipodi.sourceforge.net/DTD/sodipodi-0.dtd"
   xmlns:inkscape="http://www.inkscape.org/namespaces/inkscape"
   width="210mm"
   height="297mm"
   viewBox="0 0 210 297"
   version="1.1"
   id="svg8"
   inkscape:version="1.0.1 (3bc2e813f5, 2020-09-07)"
   sodipodi:docname="1.svg">
  <defs
     id="defs2" />
  <sodipodi:namedview
     id="base"
     pagecolor="#ffffff"
     bordercolor="#666666"
     borderopacity="1.0"
     inkscape:pageopacity="0.0"
     inkscape:pageshadow="2"
     inkscape:zoom="0.7"
     inkscape:cx="586.26952"
     inkscape:cy="482.62366"
     inkscape:document-units="mm"
     inkscape:current-layer="layer1"
     inkscape:document-rotation="0"
     showgrid="false"
     inkscape:window-width="1920"
     inkscape:window-height="1017"
     inkscape:window-x="1912"
     inkscape:window-y="-8"
     inkscape:window-maximized="1" />
  <metadata
     id="metadata5">
    <rdf:RDF>
      <cc:Work
         rdf:about="">
        <dc:format>image/svg+xml</dc:format>
        <dc:type
           rdf:resource="http://purl.org/dc/dcmitype/StillImage" />
        <dc:title></dc:title>
      </cc:Work>
    </rdf:RDF>
  </metadata>
  <g
     inkscape:label="Layer 1"
     inkscape:groupmode="layer"
     id="layer1">
    <path
       style="fill:#000000;stroke-width:0.0423333"
       d="m 145.12725,158.5124 c 0.0116,-0.0278 0.0465,-0.0408 0.0775,-0.0289 0.0311,0.0119 0.0691,0.001 0.0845,-0.0237 0.0407,-0.0659 0.19205,0.0245 0.19286,0.11514 5.1e-4,0.0567 0.009,0.0601 0.0369,0.0153 0.0296,-0.0468 0.0742,-0.0402 0.24277,0.0355 0.36404,0.16363 0.68965,0.25302 0.83225,0.22847 0.22214,-0.0383 0.56832,-0.18632 0.65147,-0.27864 0.0426,-0.0473 0.11929,-0.10198 0.17046,-0.12155 0.0512,-0.0196 0.12712,-0.0888 0.16879,-0.15389 0.0417,-0.0651 0.12716,-0.17441 0.18999,-0.24299 0.0628,-0.0686 0.13224,-0.16382 0.15427,-0.21166 0.022,-0.0479 0.0833,-0.17407 0.13622,-0.2805 0.11859,-0.23861 0.0929,-0.42032 -0.0595,-0.42032 -0.17973,0 -0.38455,0.0939 -0.53468,0.24516 -0.0815,0.0821 -0.245,0.19382 -0.36335,0.24826 -0.1942,0.0893 -0.23961,0.0947 -0.46567,0.0555 -0.26018,-0.0451 -0.52525,-0.15626 -0.67773,-0.28417 -0.11657,-0.0978 -0.26658,-0.6014 -0.27432,-0.92096 -0.006,-0.25422 0.0537,-0.59487 0.1285,-0.73159 0.0219,-0.04 0.0708,-0.14284 0.10876,-0.22851 0.0891,-0.20124 0.32494,-0.44292 0.50612,-0.51862 0.0784,-0.0328 0.24578,-0.0725 0.37183,-0.0882 0.18666,-0.0233 0.27013,-0.011 0.4498,0.0663 0.16584,0.0713 0.23266,0.0829 0.26913,0.0464 0.0693,-0.0693 0.22981,-0.06 0.25857,0.015 0.0134,0.0349 0.0726,0.0635 0.13153,0.0635 0.0615,0 0.10716,0.0242 0.10716,0.0568 0,0.0313 0.047,0.1408 0.10456,0.24341 0.22122,0.39473 0.26082,0.48536 0.24424,0.55903 -0.009,0.0419 0.007,0.10458 0.0354,0.13937 0.11154,0.1344 0.37513,0.70709 0.34639,0.75259 -0.0166,0.0264 -0.0307,0.18508 -0.0312,0.35272 -5.5e-4,0.18628 -0.0215,0.32538 -0.0538,0.35772 -0.0291,0.0291 -0.0529,0.10685 -0.0529,0.17278 0,0.0675 -0.0277,0.13051 -0.0635,0.14423 -0.0349,0.0134 -0.0635,0.0534 -0.0635,0.0889 0,0.12357 -0.17299,0.3497 -0.26804,0.35037 -0.14766,0.001 -0.19184,0.0528 -0.24115,0.28277 -0.0381,0.17779 -0.075,0.2365 -0.20484,0.3265 -0.0871,0.0604 -0.18955,0.10975 -0.22766,0.10975 -0.0381,0 -0.0791,0.0158 -0.091,0.0351 -0.0119,0.0193 -0.13212,0.0602 -0.26708,0.0908 -0.13496,0.0307 -0.32498,0.10059 -0.42226,0.15541 -0.23322,0.13142 -0.41756,0.12574 -0.71837,-0.0221 -0.13627,-0.067 -0.2889,-0.13439 -0.33919,-0.1498 -0.11091,-0.034 -0.2034,-0.13883 -0.20426,-0.23156 -4.3e-4,-0.0414 -0.0298,-0.0635 -0.0747,-0.0559 -0.0407,0.007 -0.0741,-0.006 -0.0741,-0.0294 0,-0.023 -0.0522,-0.0669 -0.1159,-0.0974 -0.11445,-0.0549 -0.15235,-0.13398 -0.11134,-0.23245 z"
       id="path498" />
    <path
       style="fill:#000000;stroke-width:0.0423333"
       d="m 130.27091,157.22902 c 0.0254,-0.15026 0.12811,-0.3685 0.28902,-0.61383 0.22394,-0.34145 0.42968,-0.48683 0.68892,-0.48683 0.089,0 0.1988,-0.028 0.244,-0.0622 0.095,-0.0719 0.36238,-0.0852 0.42636,-0.0212 0.0276,0.0276 0.0812,0.0297 0.14566,0.006 0.11354,-0.042 0.31094,0.001 0.41557,0.0912 0.0375,0.0323 0.16625,0.11272 0.28604,0.17881 0.18171,0.10026 0.24079,0.16502 0.35669,0.39099 0.11574,0.22566 0.13943,0.31966 0.14204,0.56365 0.003,0.27752 -0.004,0.29957 -0.13444,0.42163 -0.0757,0.0708 -0.13758,0.16461 -0.13758,0.20837 0,0.0978 -0.17359,0.37754 -0.23579,0.38 -0.0249,9.8e-4 -0.0867,0.0494 -0.1373,0.10763 -0.0506,0.0582 -0.11913,0.10583 -0.15227,0.10583 -0.0331,0 -0.0961,0.0492 -0.13993,0.10939 -0.0625,0.0858 -0.14308,0.12144 -0.37395,0.16532 -0.36382,0.0691 -0.69027,0.0208 -0.91995,-0.13624 -0.1566,-0.10707 -0.45381,-0.46839 -0.45381,-0.55171 0,-0.0231 -0.0254,-0.0632 -0.0565,-0.089 -0.0311,-0.0258 -0.0818,-0.12366 -0.11281,-0.21745 -0.031,-0.0938 -0.0817,-0.19166 -0.11281,-0.21746 -0.0557,-0.0463 -0.0622,-0.12522 -0.0271,-0.33288 z"
       id="path438" />
    <path
       style="fill:#000000;stroke-width:0.0423333"
       d="m 137.15275,172.53332 c 0.0404,-0.10769 0.095,-0.22199 0.1213,-0.254 0.0263,-0.032 0.0879,-0.13791 0.13702,-0.23532 0.0491,-0.0974 0.12314,-0.20219 0.16461,-0.23283 0.0415,-0.0307 0.10599,-0.10377 0.1434,-0.1625 0.0374,-0.0587 0.16683,-0.16057 0.28761,-0.22631 0.18637,-0.10144 0.23683,-0.11257 0.33342,-0.0736 0.0626,0.0253 0.18405,0.0567 0.2699,0.0697 0.1259,0.0192 0.16457,0.008 0.19991,-0.0581 0.0915,-0.17094 0.45935,-0.12306 0.52926,0.0689 0.0409,0.11233 0.12049,0.23014 0.24887,0.36844 0.20508,0.22094 0.43837,0.50567 0.46825,0.5715 0.0159,0.0349 0.0853,0.14923 0.15441,0.254 0.1161,0.1761 0.16384,0.26571 0.29321,0.55034 0.0265,0.0582 0.0792,0.16298 0.11714,0.23283 0.038,0.0699 0.0803,0.14814 0.094,0.17398 0.0137,0.0258 0.0571,0.0925 0.0964,0.14817 0.0393,0.0557 0.11216,0.25891 0.1619,0.45168 l 0.0904,0.35049 -0.097,0.0786 c -0.0834,0.0676 -0.089,0.0882 -0.0399,0.1474 0.0403,0.0486 0.0634,0.26516 0.0784,0.7372 0.0197,0.61693 0.0144,0.68411 -0.0691,0.87274 -0.0497,0.1124 -0.0904,0.24724 -0.0904,0.29964 0,0.0524 -0.0286,0.11898 -0.0635,0.14796 -0.0349,0.029 -0.0635,0.0783 -0.0635,0.10953 0,0.0313 -0.0381,0.0772 -0.0847,0.10214 -0.0466,0.0249 -0.0847,0.0806 -0.0847,0.12362 0,0.0431 -0.0476,0.10951 -0.10583,0.14765 -0.0582,0.0382 -0.10583,0.0933 -0.10583,0.12263 0,0.0716 -0.3726,0.41298 -0.55345,0.50704 -0.0798,0.0415 -0.19268,0.10145 -0.25089,0.13323 -0.44978,0.24554 -1.27636,0.55939 -1.3513,0.51308 -0.0232,-0.0144 -0.0791,-0.003 -0.1241,0.025 -0.0683,0.0426 -0.12106,0.0313 -0.31866,-0.0687 -0.1867,-0.0945 -0.25537,-0.15815 -0.32451,-0.30097 -0.0482,-0.0996 -0.10664,-0.18747 -0.1298,-0.19519 -0.0232,-0.008 -0.0585,-0.0867 -0.0785,-0.17561 -0.0415,-0.18421 0.0219,-0.3821 0.16355,-0.51031 0.0819,-0.0741 0.089,-0.0745 0.11549,-0.005 0.0164,0.0428 0.005,0.0881 -0.0281,0.10836 -0.0997,0.0616 0.0349,0.37962 0.19028,0.44964 0.0709,0.032 0.17653,0.0952 0.23473,0.14062 0.10077,0.0786 0.12001,0.0795 0.40217,0.019 0.16298,-0.035 0.40111,-0.084 0.52917,-0.10893 0.25531,-0.0498 0.3613,-0.11815 0.74083,-0.47808 0.1397,-0.13248 0.31545,-0.29899 0.39055,-0.37001 0.18821,-0.17796 0.34334,-0.45583 0.44085,-0.78966 0.0662,-0.22656 0.0829,-0.41958 0.0852,-0.98553 0.002,-0.45545 -0.0158,-0.76166 -0.0501,-0.86783 -0.0291,-0.0902 -0.0592,-0.18786 -0.0668,-0.21697 -0.0251,-0.0959 -0.0842,-0.0555 -0.18575,0.127 -0.14462,0.2598 -0.26284,0.41275 -0.31901,0.41275 -0.0269,0 -0.0813,0.0357 -0.12078,0.0794 -0.0395,0.0436 -0.22274,0.13064 -0.40723,0.19333 -0.41299,0.14034 -0.94413,0.165 -1.11682,0.0518 -0.0592,-0.0388 -0.14639,-0.0705 -0.19378,-0.0705 -0.0523,0 -0.0862,-0.0278 -0.0862,-0.0708 0,-0.0389 -0.0857,-0.1529 -0.1905,-0.25329 -0.10478,-0.10039 -0.1905,-0.20096 -0.1905,-0.22347 0,-0.0225 -0.0256,-0.0562 -0.0568,-0.0748 -0.0842,-0.0501 -0.2081,-0.25707 -0.1806,-0.30157 0.0131,-0.0212 -0.0252,-0.16018 -0.0852,-0.30878 -0.14507,-0.35935 -0.17833,-0.9774 -0.0684,-1.2703 z"
       id="path406" />
    <path
       style="fill:#000000;stroke-width:0.0423333"
       d="m 107.40246,173.44873 c 0.0207,-0.0931 0.0387,-0.24553 0.0399,-0.33866 0.003,-0.25884 0.13256,-0.56904 0.32015,-0.76895 0.0931,-0.0993 0.20743,-0.23172 0.254,-0.29437 0.15342,-0.2064 0.63019,-0.55495 0.91016,-0.66536 0.31518,-0.12431 0.64917,-0.1778 0.86146,-0.13798 0.17195,0.0323 0.40925,0.23899 0.51482,0.44849 0.0411,0.0815 0.12671,0.21484 0.19033,0.29633 0.21961,0.28131 0.35011,0.59637 0.36823,0.889 0.009,0.15135 0.0208,0.32198 0.0254,0.37919 0.012,0.15016 -0.16786,0.20916 -0.35756,0.11729 -0.0782,-0.0379 -0.15908,-0.0522 -0.18336,-0.0326 -0.0557,0.0452 -0.55068,0.11943 -1.1441,0.17167 -0.25612,0.0225 -0.57997,0.0578 -0.71967,0.0785 -0.22212,0.0328 -0.26892,0.0269 -0.37285,-0.0466 -0.0654,-0.0462 -0.12606,-0.0768 -0.13486,-0.068 -0.0225,0.0226 -0.0256,0.39274 -0.006,0.68044 0.0125,0.18038 0.0507,0.29547 0.14871,0.44821 0.0725,0.11303 0.13187,0.23002 0.13187,0.25999 0,0.03 0.0938,0.1454 0.20852,0.25652 0.18854,0.18268 0.23725,0.20688 0.50848,0.25263 0.16837,0.0284 0.39316,0.0378 0.5124,0.0214 0.13458,-0.0185 0.23299,-0.0122 0.26853,0.0173 0.0569,0.0472 0.11412,0.0399 0.72649,-0.0921 0.16884,-0.0364 0.31513,-0.10279 0.42996,-0.19507 0.11026,-0.0886 0.22593,-0.14232 0.31559,-0.14654 0.13234,-0.006 0.14244,0.003 0.15557,0.14132 0.008,0.0814 0.0329,0.17067 0.0559,0.19838 0.0554,0.0668 -0.0355,0.23924 -0.11092,0.21032 -0.0306,-0.0118 -0.16728,0.0237 -0.30367,0.0787 -0.29767,0.12013 -0.43129,0.15093 -0.72367,0.16679 -0.12193,0.007 -0.24575,0.0299 -0.27516,0.0518 -0.0799,0.0594 -1.24863,0.0423 -1.46408,-0.0215 -0.21593,-0.0639 -0.83251,-0.62504 -0.92317,-0.84012 -0.0312,-0.0741 -0.0761,-0.14665 -0.0998,-0.16125 -0.0236,-0.0146 -0.043,-0.0978 -0.043,-0.18493 0,-0.0871 -0.0214,-0.17973 -0.0475,-0.20582 -0.0606,-0.0606 -0.087,-0.74161 -0.0374,-0.96432 z"
       id="path256" />
    <path
       style="fill:#000000;stroke-width:0.0423333"
       d="m 111.76009,178.14954 c 0.0539,-0.0333 0.0796,0.018 0.11278,0.22542 0.0292,0.18251 0.0764,0.2504 0.12231,0.17603 0.0159,-0.0257 0.0764,-0.006 0.15195,0.0502 0.13603,0.10057 0.38702,0.11593 0.99172,0.0607 0.73055,-0.0668 1.06337,-0.20495 1.3276,-0.55119 0.18511,-0.24256 0.34457,-0.53888 0.34457,-0.6403 0,-0.0368 0.0353,-0.13755 0.0784,-0.22393 0.0644,-0.12907 0.0794,-0.26649 0.0843,-0.7709 0.01,-1.00766 -0.0574,-1.24825 -0.2848,-1.02086 -0.12297,0.12297 -0.30811,0.21017 -0.69804,0.32877 -0.30785,0.0936 -0.36844,0.0996 -0.57682,0.0568 -0.12806,-0.0263 -0.28998,-0.0779 -0.35983,-0.11482 -0.0698,-0.0369 -0.17625,-0.0926 -0.23644,-0.12378 -0.19098,-0.099 -0.58906,-0.5142 -0.58906,-0.61439 0,-0.0522 -0.0573,-0.141 -0.13032,-0.20202 -0.13759,-0.115 -0.29034,-0.46041 -0.32445,-0.73364 -0.02,-0.15984 0.0706,-0.45674 0.17747,-0.58178 0.0298,-0.0349 0.0659,-0.11282 0.0802,-0.1731 0.0363,-0.15325 0.41135,-0.71333 0.57177,-0.85381 0.0733,-0.0642 0.13332,-0.13345 0.13332,-0.15388 0,-0.0515 0.20275,-0.17942 0.31196,-0.19678 0.0496,-0.008 0.15688,-0.03 0.23837,-0.0491 0.25035,-0.0588 0.93195,-0.0153 1.02946,0.0656 0.0526,0.0437 0.0712,0.0412 0.10199,-0.0138 0.0488,-0.0872 0.37287,-0.12963 0.42106,-0.0551 0.0192,0.0298 0.0372,0.13033 0.0398,0.22346 0.003,0.0931 0.0463,0.28067 0.0971,0.41674 0.0507,0.13608 0.0997,0.3218 0.10873,0.41271 0.009,0.0909 0.0277,0.20072 0.0414,0.24401 0.0297,0.0935 0.22579,1.00397 0.27487,1.27604 0.0192,0.10619 0.0175,0.23494 -0.004,0.2909 -0.021,0.0552 -0.0223,0.12189 -0.003,0.14817 0.0569,0.0771 0.13707,0.45695 0.13512,0.64043 -9.7e-4,0.0931 4.2e-4,0.21696 0.003,0.27517 0.003,0.0582 0.008,0.25181 0.0119,0.43022 0.004,0.17842 0.0201,0.33744 0.0359,0.35339 0.0385,0.0388 -0.009,0.16056 -0.0786,0.20274 -0.0309,0.0186 -0.0561,0.0589 -0.0561,0.0895 0,0.0306 -0.0401,0.10669 -0.0891,0.16901 -0.055,0.0699 -0.0802,0.14741 -0.0659,0.20217 0.0433,0.16574 -0.15597,0.6762 -0.37328,0.95603 -0.11271,0.14515 -0.22812,0.2639 -0.25645,0.2639 -0.0283,0 -0.0751,0.0284 -0.10384,0.063 -0.0288,0.0347 -0.068,0.0533 -0.0872,0.0414 -0.0192,-0.0119 -0.0504,0.003 -0.0693,0.0322 -0.0493,0.0772 -0.47358,0.2806 -0.64819,0.31073 -0.0815,0.0141 -0.17674,0.0363 -0.21167,0.0494 -0.0864,0.0324 -0.26428,0.0119 -0.32431,-0.0373 -0.0296,-0.0243 -0.0587,-0.0248 -0.0732,-0.001 -0.0132,0.0214 -0.23486,0.0417 -0.4925,0.045 -0.25766,0.003 -0.48189,0.008 -0.49831,0.0105 -0.28101,0.0412 -0.43202,-0.19454 -0.43202,-0.67453 0,-0.16488 0.0177,-0.31075 0.0394,-0.32414 z"
       id="path280" />
    <path
       style="fill:#000000;stroke-width:0.0423333"
       d="m 101.73274,168.18496 c 0.048,-0.11972 0.18541,-0.24231 0.35709,-0.31851 0.0698,-0.031 0.2235,-0.14975 0.34145,-0.26388 0.47325,-0.45793 0.80993,-0.56834 1.45772,-0.478 0.56994,0.0795 0.83539,0.18061 1.01934,0.38839 0.0766,0.0865 0.15478,0.15726 0.17378,0.15726 0.019,0 0.0679,0.0289 0.10863,0.0642 0.0408,0.0353 0.14294,0.12076 0.22709,0.18985 0.15463,0.12695 0.16139,0.1442 0.29011,0.74076 0.0201,0.0931 0.0669,0.28997 0.10395,0.43743 0.0371,0.14745 0.056,0.28662 0.042,0.30927 -0.014,0.0227 -0.0337,0.24491 -0.0438,0.49391 -0.0125,0.31033 -0.0462,0.53261 -0.10685,0.70672 -0.17098,0.49039 -0.25229,0.64807 -0.34681,0.67247 -0.0504,0.013 -0.12425,0.0766 -0.16413,0.14127 -0.0399,0.0647 -0.11438,0.1691 -0.16555,0.23206 -0.11922,0.14666 -0.0616,0.22806 0.18759,0.26519 0.55113,0.0821 0.77802,0.17069 0.95207,0.37176 0.0554,0.064 0.12657,0.11642 0.1581,0.11642 0.11133,0 0.18914,0.18114 0.18914,0.44033 0,0.13869 0.0225,0.31448 0.0501,0.39065 0.039,0.10786 0.0385,0.16004 -0.002,0.23584 -0.0287,0.0535 -0.0885,0.16402 -0.13272,0.24551 -0.0442,0.0815 -0.082,0.22437 -0.0838,0.3175 -0.004,0.17409 -0.0781,0.3175 -0.16515,0.3175 -0.0666,0 -0.14009,0.20374 -0.10892,0.30193 0.0382,0.12024 -0.0188,0.2484 -0.11047,0.2484 -0.045,0 -0.0818,0.026 -0.0818,0.0578 0,0.1665 -0.5716,0.56731 -0.94712,0.66413 -0.0961,0.0248 -0.23713,0.0737 -0.31344,0.1086 -0.16222,0.0743 -0.88261,0.11834 -0.92096,0.0563 -0.0141,-0.0228 -0.0437,-0.0304 -0.0658,-0.0167 -0.0221,0.0136 -0.0304,0.0405 -0.0185,0.0597 0.0225,0.0363 -0.0396,0.0434 -0.35886,0.0409 -0.3427,-0.003 -0.75811,-0.31294 -0.76129,-0.56848 -0.007,-0.55188 -0.0668,-1.18294 -0.12066,-1.27 -0.0362,-0.0585 -0.0764,-0.96294 -0.10585,-2.38259 -0.0137,-0.65848 -0.0375,-1.21763 -0.0528,-1.24254 -0.0154,-0.0249 -0.0349,-0.33388 -0.0433,-0.68659 -0.008,-0.3527 -0.0306,-0.73653 -0.0493,-0.85295 -0.0323,-0.20097 -0.0403,-0.2112 -0.1577,-0.20249 -0.23391,0.0174 -0.34161,-0.21146 -0.23028,-0.48927 z"
       id="path230" />
    <path
       style="fill:#000000;stroke-width:0.0423333"
       d="m 150.09019,148.95675 c 0.0295,-0.0182 0.0651,-0.0217 0.0791,-0.008 0.0379,0.0379 -0.0178,0.0792 -0.0792,0.0587 -0.043,-0.0143 -0.043,-0.0243 0,-0.051 z"
       id="path514" />
    <path
       style="fill:#000000;stroke-width:0.0423333"
       d="m 148.4797,149.08355 c 0.1154,-0.1008 0.14867,-0.11255 0.17972,-0.0635 0.021,0.0331 0.0387,0.0888 0.0395,0.12372 7.6e-4,0.0349 0.0464,0.10621 0.10153,0.15842 l 0.10015,0.0949 0.0597,-0.09 c 0.043,-0.0648 0.0846,-0.0821 0.14854,-0.0618 0.12224,0.0388 0.1545,0.18413 0.0529,0.23849 -0.0774,0.0414 -0.077,0.0479 0.0116,0.22169 0.0502,0.0985 0.14494,0.24162 0.21053,0.3181 0.0656,0.0765 0.11925,0.17419 0.11925,0.21714 0,0.0429 0.0743,0.1546 0.16499,0.2481 0.0907,0.0935 0.19066,0.24344 0.22203,0.33319 0.0314,0.0898 0.0735,0.17511 0.0936,0.18969 0.0619,0.0448 0.0854,0.4116 0.0306,0.47761 -0.0398,0.048 -0.0351,0.0632 0.0228,0.0744 0.081,0.0157 0.10973,0.12606 0.11186,0.43 8e-4,0.11231 0.0153,0.18182 0.0322,0.15446 0.018,-0.0292 0.039,0.007 0.0507,0.0864 0.0216,0.1472 -0.0524,0.40499 -0.16614,0.57855 -0.0615,0.0939 -0.0629,0.11492 -0.01,0.15628 0.11313,0.0884 0.0529,0.85472 -0.0709,0.90223 -0.0369,0.0142 -0.049,0.0578 -0.0333,0.12028 0.0214,0.0854 -0.0916,0.31299 -0.19923,0.40111 -0.0142,0.0116 -0.0563,0.0783 -0.0935,0.14817 -0.0372,0.0699 -0.12082,0.18661 -0.18582,0.25947 -0.065,0.0729 -0.17534,0.22964 -0.24519,0.34841 -0.11105,0.18882 -0.14427,0.21604 -0.26458,0.21678 -0.0884,5.5e-4 -0.13759,-0.0198 -0.13759,-0.057 0,-0.0318 -0.0362,-0.10387 -0.0805,-0.16019 -0.1192,-0.15154 -0.0745,-0.31948 0.095,-0.3567 0.15456,-0.034 0.32422,-0.13663 0.32422,-0.19624 0,-0.0228 0.0341,-0.0921 0.0758,-0.15388 0.0942,-0.13964 0.22452,-0.48583 0.32923,-0.87437 0.0648,-0.24056 0.0783,-0.42381 0.0715,-0.97367 -0.005,-0.37253 -0.0192,-0.74401 -0.0325,-0.8255 -0.0316,-0.19383 -0.1443,-0.59402 -0.19358,-0.68734 -0.0213,-0.0404 -0.0388,-0.1031 -0.0388,-0.13927 0,-0.1069 -0.15161,-0.37287 -0.37671,-0.66088 -0.11578,-0.14814 -0.25322,-0.32407 -0.30542,-0.39096 -0.0522,-0.0669 -0.15057,-0.15546 -0.21859,-0.19682 -0.10723,-0.0652 -0.12458,-0.1025 -0.13051,-0.28056 -0.006,-0.18399 0.008,-0.21823 0.13477,-0.32906 z"
       id="path508" />
    <path
       style="fill:#000000;stroke-width:0.0423333"
       d="m 147.04052,148.36006 c 0.32137,-0.17359 0.30675,-0.17055 0.38165,-0.0795 0.0445,0.0541 0.10889,0.0802 0.17599,0.0715 0.25893,-0.0337 0.71289,-0.0217 0.86783,0.0229 0.0931,0.0268 0.23601,0.0487 0.3175,0.0486 0.12955,0 0.62304,0.099 0.80433,0.1616 0.0349,0.012 0.1397,0.0236 0.23284,0.0257 0.16394,0.004 0.16943,0.009 0.17253,0.15196 0.002,0.0815 0.0179,0.2118 0.036,0.28958 0.0258,0.11131 0.0499,0.13694 0.11322,0.12038 0.0746,-0.0195 0.0821,-0.007 0.08,0.12935 -4.3e-4,0.0172 -0.1276,0.0254 -0.28297,0.0181 -0.26743,-0.0126 -0.60556,-0.13078 -0.60556,-0.21172 0,-0.0604 -0.31341,-0.18591 -0.49392,-0.19775 -0.097,-0.006 -0.19227,-0.0198 -0.21166,-0.03 -0.0194,-0.0101 -0.2396,-0.0232 -0.48938,-0.0292 l -0.45412,-0.0108 0.008,0.44785 c 0.005,0.31376 0.0227,0.44784 0.058,0.44784 0.13992,0 0.13272,0.31404 -0.0102,0.44652 -0.12535,0.11618 -0.31132,0.14026 -0.31132,0.0403 0,-0.0349 -0.0182,-0.0635 -0.0403,-0.0635 -0.0222,0 -0.0682,-0.0619 -0.10231,-0.13759 -0.0809,-0.17964 -0.20556,-0.88894 -0.17173,-0.9771 0.0145,-0.0377 -0.0137,-0.13314 -0.0625,-0.21215 -0.11201,-0.18124 -0.11767,-0.41549 -0.0114,-0.47288 z"
       id="path504" />
    <path
       style="fill:#ffffff;stroke-width:0.0423333"
       d="m 145.98321,156.41857 c 0.0431,0.0618 0.0903,0.17446 0.10485,0.25034 0.0146,0.0759 0.0684,0.19464 0.11956,0.26389 0.1136,0.15364 0.38539,0.33898 0.49712,0.33898 0.14796,0 0.44739,-0.15486 0.64045,-0.33123 0.27718,-0.25323 0.28771,-0.26144 0.33504,-0.26144 0.0573,0 0.10274,-0.18881 0.074,-0.3077 -0.16837,-0.6959 -0.15006,-0.65553 -0.33888,-0.74666 -0.0974,-0.047 -0.30043,-0.11695 -0.4513,-0.15547 l -0.27431,-0.07 -0.14322,0.16369 c -0.0788,0.09 -0.16133,0.21417 -0.18344,0.27586 -0.0221,0.0617 -0.0785,0.1222 -0.12536,0.13445 -0.0468,0.0122 -0.0955,0.0618 -0.10811,0.11007 -0.0126,0.0483 -0.0455,0.0878 -0.0731,0.0878 -0.0471,0 -0.1517,0.0816 -0.1517,0.11835 0,0.009 0.0353,0.0673 0.0784,0.12911 z"
       id="path500" />
    <path
       style="fill:#000000;stroke-width:0.0423333"
       d="m 141.1765,156.23439 c 0.0441,-0.0741 0.34885,-0.38241 0.5647,-0.57128 0.146,-0.12775 0.41235,-0.2912 0.44333,-0.27205 0.0175,0.0108 0.1045,-0.0213 0.19331,-0.0713 0.0888,-0.05 0.23768,-0.0948 0.33082,-0.0994 0.0931,-0.005 0.22481,-0.0315 0.29262,-0.0596 0.28099,-0.11652 1.23213,0.12332 1.34426,0.33897 0.0969,0.18643 0.16228,0.35497 0.16228,0.41855 0,0.0401 0.027,0.14925 0.0599,0.24262 0.039,0.11042 0.0455,0.18424 0.0186,0.21111 -0.0269,0.0269 -0.0133,0.0915 0.0388,0.18479 0.0597,0.10699 0.0713,0.17575 0.0453,0.27047 -0.0191,0.0699 -0.0231,0.21644 -0.009,0.32576 0.0143,0.10932 0.0132,0.26644 -0.002,0.34916 -0.0259,0.13822 -0.0392,0.14953 -0.16387,0.13989 -0.1144,-0.009 -0.1379,0.005 -0.14996,0.0905 -0.0193,0.13602 -0.15519,0.27599 -0.23738,0.24445 -0.0594,-0.0228 -0.0887,-0.15191 -0.0737,-0.32426 0.0211,-0.24147 0.013,-1.13157 -0.0125,-1.37584 -0.0376,-0.36024 -0.0964,-0.46118 -0.32941,-0.56528 -0.15435,-0.069 -0.23295,-0.0757 -0.56052,-0.0483 -0.37539,0.0314 -0.50953,0.0784 -0.84666,0.29613 -0.0699,0.0451 -0.1753,0.10956 -0.23434,0.14321 -0.059,0.0336 -0.13496,0.11519 -0.16874,0.1812 -0.0338,0.066 -0.10453,0.16198 -0.15725,0.21326 -0.12532,0.12191 -0.12775,0.39538 -0.006,0.67072 0.077,0.17403 0.0812,0.20976 0.0291,0.2488 -0.0334,0.0251 -0.0728,0.0777 -0.0875,0.1169 -0.0147,0.0392 -0.0646,0.0916 -0.11081,0.11631 -0.0693,0.0371 -0.0987,0.0263 -0.16763,-0.0612 -0.046,-0.0584 -0.0746,-0.14035 -0.0637,-0.18207 0.0109,-0.0417 -0.018,-0.22043 -0.0643,-0.39715 -0.11492,-0.43875 -0.13839,-0.67297 -0.0777,-0.77505 z"
       id="path494" />
    <path
       style="fill:#000000;stroke-width:0.0423333"
       d="m 140.39273,156.91194 c 0.007,-0.0699 0.0235,-0.15557 0.0372,-0.1905 0.0136,-0.0349 0.0304,-0.1778 0.0373,-0.3175 0.0163,-0.32965 0.12607,-0.82552 0.19656,-0.88796 0.0304,-0.0269 0.10612,-0.0704 0.16833,-0.0967 0.10006,-0.0422 0.12085,-0.036 0.17992,0.0542 0.082,0.12506 0.083,0.16695 0.008,0.31005 -0.0812,0.15409 -0.15278,0.58572 -0.17478,1.05319 -0.0175,0.37123 -0.0132,0.39568 0.0866,0.4955 0.15922,0.15922 0.13829,0.26594 -0.0628,0.32009 -0.0923,0.0248 -0.19706,0.087 -0.23283,0.13804 l -0.065,0.0929 -0.0884,-0.0884 c -0.0732,-0.0732 -0.0896,-0.14576 -0.0952,-0.42216 -0.004,-0.18355 -0.001,-0.39088 0.006,-0.46073 z"
       id="path490" />
    <path
       style="fill:#000000;stroke-width:0.0423333"
       d="m 140.11373,153.60377 c 0.18973,-0.18011 0.37893,-0.26899 0.57257,-0.26899 0.0891,0 0.20403,-0.0294 0.25537,-0.0654 0.11804,-0.0827 0.2834,-0.0128 0.25218,0.10659 -0.011,0.042 0.0245,0.1307 0.0792,0.19746 0.12153,0.14859 0.13169,0.26934 0.0227,0.26934 -0.0437,0 -0.10129,0.0263 -0.12795,0.0584 -0.0619,0.0746 -0.2982,0.1229 -0.35954,0.0736 -0.0258,-0.0207 -0.12394,-0.0504 -0.21816,-0.0659 -0.14119,-0.0232 -0.18513,-0.0129 -0.24998,0.0587 -0.0903,0.0998 -0.14241,0.10627 -0.24266,0.03 -0.14102,-0.10721 -0.1351,-0.25003 0.0163,-0.39379 z"
       id="path488" />
    <path
       style="fill:#000000;stroke-width:0.0423333"
       d="m 136.12774,153.06983 c 0.0896,-0.16767 0.17836,-0.19592 0.30768,-0.0979 0.0604,0.0458 0.0707,0.0907 0.0481,0.21078 -0.0166,0.0885 -0.01,0.1751 0.0158,0.20618 0.0245,0.0295 0.0533,0.20546 0.0641,0.39112 0.0108,0.18565 0.0501,0.40837 0.0873,0.49493 0.0417,0.0971 0.0677,0.27756 0.0677,0.47108 0,0.18431 0.0264,0.37694 0.0641,0.46703 0.0684,0.16362 0.1476,0.20405 0.1476,0.0753 0,-0.11557 0.33901,-0.27854 0.51875,-0.24937 0.0776,0.0126 0.21968,0.009 0.31576,-0.009 0.20667,-0.0378 0.68379,0.0252 0.77415,0.1022 0.0349,0.0298 0.1397,0.0864 0.23284,0.12583 0.0931,0.0394 0.29158,0.13441 0.441,0.21101 0.22835,0.11708 0.27246,0.15751 0.27667,0.25365 0.003,0.0629 0.0262,0.12754 0.0522,0.14365 0.0583,0.0362 0.0856,0.26407 0.0404,0.33725 -0.0183,0.0297 -0.0213,0.10879 -0.007,0.17586 0.0153,0.0696 0.008,0.13382 -0.018,0.14963 -0.0247,0.0152 -0.0448,0.0742 -0.0448,0.13103 0,0.0568 -0.0385,0.14187 -0.0856,0.18897 -0.0667,0.0667 -0.0761,0.10351 -0.0423,0.16655 0.0238,0.0445 0.0433,0.12086 0.0433,0.16969 0,0.0488 0.0274,0.0993 0.061,0.11218 0.0981,0.0376 0.20424,0.22657 0.15938,0.28369 -0.0216,0.0275 -0.0518,0.10248 -0.0671,0.16651 -0.0164,0.0688 -0.0564,0.11641 -0.0978,0.11641 -0.0385,0 -0.10368,0.0305 -0.14491,0.0678 -0.0569,0.0515 -0.10312,0.0585 -0.1918,0.0289 -0.0938,-0.0313 -0.12748,-0.0801 -0.17096,-0.24776 -0.0682,-0.26318 -0.0706,-0.54682 -0.006,-0.66669 0.029,-0.0534 0.0498,-0.26485 0.0493,-0.50089 l -8.5e-4,-0.40843 -0.19614,-0.22957 c -0.16541,-0.19363 -0.23,-0.2374 -0.41236,-0.2795 -0.29764,-0.0687 -0.60389,-0.0625 -0.89104,0.0181 -0.22694,0.0637 -0.24414,0.0777 -0.27086,0.22009 -0.0157,0.0837 -0.0555,0.19065 -0.0885,0.23776 -0.033,0.0471 -0.06,0.11721 -0.06,0.15575 0,0.0386 -0.0381,0.0962 -0.0847,0.12816 -0.10235,0.0702 -0.18998,0.46961 -0.12831,0.58482 0.0221,0.0413 0.0886,0.10682 0.14774,0.14558 0.19605,0.12845 0.099,0.3889 -0.10432,0.28007 -0.0639,-0.0342 -0.0952,-0.019 -0.16627,0.0808 -0.0481,0.0676 -0.0875,0.14379 -0.0875,0.1693 0,0.0633 -0.0945,0.0583 -0.18783,-0.01 -0.0702,-0.0513 -0.0765,-0.12877 -0.0716,-0.87842 0.003,-0.45215 0.0171,-0.94786 0.0314,-1.10157 0.0162,-0.17384 0.008,-0.31262 -0.0209,-0.36717 -0.0258,-0.0482 -0.0576,-0.20823 -0.0708,-0.35553 -0.0131,-0.14731 -0.0439,-0.37261 -0.0685,-0.50067 -0.0246,-0.12806 -0.0607,-0.31856 -0.0803,-0.42333 -0.0542,-0.28988 -0.1094,-0.5598 -0.13851,-0.67733 -0.0168,-0.0676 0.004,-0.16314 0.0586,-0.26459 z"
       id="path470" />
    <path
       style="fill:#000000;stroke-width:0.0423333"
       d="m 132.85558,155.04239 c 0.1127,-0.10482 0.1313,-0.1078 0.58209,-0.0932 l 0.46566,0.0151 0.0132,-0.18388 c 0.007,-0.10114 -0.0163,-0.27046 -0.0523,-0.37626 -0.036,-0.1058 -0.0769,-0.31833 -0.0907,-0.47228 -0.0138,-0.15395 -0.0617,-0.36917 -0.10642,-0.47826 -0.1348,-0.32917 -0.10845,-0.42346 0.16023,-0.57337 0.0626,-0.0349 0.10217,-0.0377 0.1203,-0.008 0.0148,0.024 0.0488,0.0365 0.0753,0.0276 0.05,-0.0167 0.15559,0.14947 0.15559,0.24478 0,0.0298 0.0286,0.0651 0.0635,0.0785 0.0349,0.0134 0.0635,0.0726 0.0635,0.13153 0,0.0634 0.0241,0.10717 0.059,0.10717 0.0324,0 0.0699,0.0286 0.0833,0.0635 0.0134,0.0349 0.0535,0.0635 0.0892,0.0635 0.14349,0 0.0458,0.14551 -0.12567,0.18712 -0.0699,0.017 -0.17006,0.071 -0.2227,0.12015 -0.078,0.0728 -0.0907,0.11727 -0.069,0.24028 0.0147,0.083 0.0435,0.16904 0.064,0.19116 0.0205,0.0221 0.0372,0.11981 0.0372,0.21708 0,0.24917 0.10508,0.47719 0.24461,0.53085 0.15683,0.0603 0.91983,0.0592 1.14279,-0.002 0.24154,-0.066 0.27612,-0.0365 0.24265,0.20681 -0.0212,0.15378 -0.012,0.21659 0.039,0.26758 0.0904,0.0904 0.0838,0.15734 -0.0155,0.15734 -0.0452,0 -0.0954,0.0215 -0.11164,0.0477 -0.0342,0.0553 -0.52216,0.0242 -0.56354,-0.0359 -0.0142,-0.0206 -0.13613,-0.0416 -0.27097,-0.0465 -0.13483,-0.005 -0.2816,-0.0318 -0.32616,-0.0597 -0.11576,-0.0723 -0.13677,-0.0294 -0.13302,0.27181 0.002,0.14688 0.004,0.37027 0.005,0.49642 0.001,0.12615 0.023,0.25474 0.0488,0.28575 0.0343,0.0413 0.0337,0.0722 -0.002,0.11541 -0.0378,0.0456 -0.0333,0.0747 0.0202,0.12817 0.0554,0.0554 0.0588,0.0816 0.0174,0.13148 -0.0413,0.0497 -0.0378,0.0815 0.0173,0.15757 0.0379,0.0524 0.0968,0.13379 0.13073,0.18087 0.0846,0.11726 0.0386,0.28161 -0.0743,0.26539 -0.0689,-0.01 -0.10017,0.0293 -0.15876,0.19933 -0.0719,0.20862 -0.12265,0.2385 -0.23985,0.14123 -0.028,-0.0233 -0.0632,-0.13125 -0.0782,-0.23994 -0.015,-0.10869 -0.0519,-0.29655 -0.0821,-0.41746 -0.0302,-0.12091 -0.0469,-0.22782 -0.0371,-0.23757 0.0428,-0.0428 0.0209,-0.97299 -0.0297,-1.25918 -0.0634,-0.35852 -0.1245,-0.43251 -0.32859,-0.39781 -0.0777,0.0132 -0.16611,0.003 -0.19732,-0.023 -0.039,-0.0324 -0.065,-0.0332 -0.0839,-0.003 -0.0151,0.0244 -0.065,0.0444 -0.11093,0.0444 -0.0459,0 -0.0945,0.0286 -0.10787,0.0635 -0.0252,0.0658 -0.21307,0.0856 -0.29472,0.0311 -0.0697,-0.0465 -0.14392,-0.20417 -0.14392,-0.3055 0,-0.0492 0.0524,-0.1382 0.11642,-0.19776 z"
       id="path456" />
    <path
       style="fill:#ffffff;stroke-width:0.0423333"
       d="m 130.86336,157.81342 c -0.0224,0.11185 -5.1e-4,0.13998 0.25386,0.32675 0.22966,0.16864 0.3147,0.20654 0.48636,0.21681 0.3026,0.0181 0.63111,-0.11681 0.82025,-0.33687 0.17951,-0.20885 0.44236,-0.75405 0.44236,-0.91755 0,-0.24424 -0.59852,-0.65678 -1.00911,-0.69554 -0.17392,-0.0164 -0.18668,-0.01 -0.24184,0.12203 -0.032,0.0767 -0.0875,0.15061 -0.12331,0.16434 -0.0358,0.0137 -0.0651,0.0503 -0.0651,0.0814 0,0.0926 -0.10235,0.28424 -0.15204,0.2846 -0.0254,0 -0.0691,-0.0759 -0.097,-0.169 -0.0279,-0.0931 -0.0643,-0.16921 -0.0808,-0.16905 -0.059,5.9e-4 -0.21671,0.2779 -0.25452,0.44764 -0.0212,0.095 -0.059,0.20932 -0.0841,0.254 -0.0363,0.0647 -0.0278,0.1003 0.0419,0.17466 0.0637,0.068 0.0809,0.12672 0.063,0.21581 z"
       id="path440" />
    <path
       style="fill:#000000;stroke-width:0.0423333"
       d="m 126.06086,154.02265 c 0.12531,-0.12087 0.31517,-0.22257 0.41551,-0.22257 0.0218,0 0.0399,0.081 0.0402,0.17992 4.2e-4,0.099 0.0282,0.22754 0.0618,0.28575 0.0337,0.0582 0.0732,0.13441 0.0879,0.16933 0.0147,0.0349 0.0426,0.1016 0.0621,0.14817 0.0195,0.0466 0.048,0.16087 0.0634,0.254 0.0154,0.0931 0.047,0.19231 0.0702,0.22039 0.0232,0.0281 0.0311,0.069 0.0176,0.0909 -0.0135,0.0219 0.0782,0.14842 0.20388,0.28117 0.41092,0.43409 0.52047,0.59072 0.44554,0.63703 -0.0608,0.0376 -0.0468,0.10389 0.0281,0.13262 0.1186,0.0455 0.32028,0.25416 0.30604,0.31661 -0.0144,0.0633 0.22731,0.39839 0.35584,0.4933 0.0412,0.0304 0.0749,0.10186 0.0749,0.15875 0,0.0637 0.0244,0.10344 0.0635,0.10344 0.0349,0 0.0641,0.0238 0.0649,0.0529 7.6e-4,0.0291 0.077,0.12861 0.16933,0.22112 0.0924,0.0925 0.16794,0.19252 0.16794,0.22225 0,0.0297 0.0161,0.054 0.0358,0.054 0.0197,0 0.048,-0.22384 0.063,-0.49742 0.0149,-0.27358 0.0459,-0.56213 0.0688,-0.64124 0.0504,-0.1737 0.0661,-1.56126 0.0241,-2.12101 -0.0166,-0.22119 -0.0647,-0.52599 -0.10686,-0.67733 -0.11589,-0.41605 -0.1343,-0.57303 -0.081,-0.69012 0.0859,-0.18845 0.37711,-0.15669 0.37711,0.0411 0,0.0454 0.0265,0.11875 0.0589,0.16307 0.0512,0.0701 0.0682,0.0729 0.13023,0.0214 0.058,-0.0481 0.0777,-0.0489 0.10532,-0.004 0.0563,0.091 0.0895,0.43528 0.047,0.48652 -0.0647,0.078 -0.10364,0.47514 -0.0498,0.5084 0.0702,0.0434 0.0605,1.05648 -0.0125,1.29669 -0.0415,0.13661 -0.046,0.2157 -0.0153,0.27041 0.0509,0.091 -0.0276,0.4924 -0.12842,0.65628 -0.0428,0.0695 -0.0652,0.22333 -0.0679,0.46567 -0.003,0.30607 0.0107,0.38551 0.0913,0.51513 0.0524,0.0843 0.10747,0.24197 0.12233,0.35041 0.0296,0.21561 0.0578,0.24789 0.22259,0.25415 0.0922,0.004 0.11226,0.0265 0.12337,0.14177 0.0115,0.1194 4.3e-4,0.13758 -0.0847,0.13758 -0.10635,1e-5 -0.33077,0.24351 -0.33077,0.35891 0,0.12854 -0.13513,0.12712 -0.24435,-0.003 -0.10829,-0.12861 -0.45229,-0.52188 -0.65789,-0.75215 -0.0655,-0.0733 -0.16074,-0.2031 -0.21166,-0.28834 -0.15662,-0.26214 -0.44455,-0.65761 -0.70656,-0.97044 -0.13749,-0.16416 -0.26187,-0.3359 -0.27638,-0.38163 -0.0145,-0.0457 -0.0711,-0.12785 -0.12569,-0.18246 -0.0546,-0.0546 -0.12343,-0.17981 -0.15291,-0.27822 -0.0295,-0.0984 -0.0786,-0.18849 -0.10908,-0.2002 -0.0305,-0.0117 -0.0555,-0.0631 -0.0555,-0.11413 0,-0.10614 -0.0735,-0.19443 -0.16192,-0.19443 -0.0464,0 -0.053,0.0318 -0.0285,0.13758 0.0175,0.0757 0.0443,0.23283 0.0595,0.34925 0.0152,0.11642 0.0412,0.23342 0.0578,0.26 0.0274,0.0439 0.1544,0.82467 0.24152,1.4848 0.0328,0.24833 0.10138,0.5794 0.16918,0.81637 0.0264,0.0924 0.0503,0.10402 0.18843,0.0916 l 0.15815,-0.0143 -0.0707,0.10787 c -0.0389,0.0593 -0.10419,0.11852 -0.14514,0.13152 -0.0949,0.0301 -0.18225,0.21924 -0.14925,0.3232 0.029,0.0915 0.0207,0.0942 -0.12132,0.0402 -0.13688,-0.052 -0.22087,-0.22863 -0.23293,-0.48973 -0.017,-0.36854 -0.094,-0.92342 -0.15945,-1.14978 -0.0348,-0.12023 -0.0609,-0.30121 -0.058,-0.40217 0.003,-0.10096 -0.034,-0.32645 -0.082,-0.50107 -0.048,-0.17463 -0.0878,-0.40323 -0.0886,-0.508 -7.6e-4,-0.10478 -0.0288,-0.2667 -0.0624,-0.35983 -0.0336,-0.0931 -0.0623,-0.29316 -0.0639,-0.4445 -0.004,-0.37624 -0.056,-0.57155 -0.2093,-0.78503 -0.17139,-0.23866 -0.16942,-0.38821 0.007,-0.55874 z"
       id="path428" />
    <path
       style="fill:#000000;stroke-width:0.0423333"
       d="m 138.75479,171.79432 c 0.0363,0.0946 0.1013,0.0832 0.1013,-0.0177 0,-0.047 -0.0282,-0.0847 -0.0635,-0.0847 -0.0713,0 -0.0741,0.008 -0.0378,0.10237 z"
       id="path410" />
    <path
       style="fill:#ffffff;stroke-width:0.0423333"
       d="m 137.56224,173.55166 c 0.0335,0.037 0.0708,0.12204 0.0829,0.18905 0.0122,0.067 0.061,0.15808 0.10851,0.20236 0.0475,0.0443 0.0864,0.1163 0.0864,0.16003 0,0.0437 0.10839,0.20492 0.24086,0.35819 0.23205,0.26847 0.24802,0.27866 0.43672,0.27866 0.31866,0 0.66649,-0.0816 0.86776,-0.20344 0.15565,-0.0943 0.21898,-0.17531 0.36498,-0.46706 0.25128,-0.50214 0.2492,-0.68823 -0.0122,-1.08633 -0.10701,-0.16299 -0.27545,-0.38145 -0.37431,-0.48548 -0.0989,-0.10403 -0.22524,-0.26119 -0.28083,-0.34925 -0.097,-0.15373 -0.11039,-0.16011 -0.33486,-0.16011 -0.13994,0 -0.27402,-0.0264 -0.334,-0.0657 -0.0923,-0.0605 -0.11552,-0.0585 -0.29279,0.0249 -0.14947,0.0703 -0.20471,0.12522 -0.24685,0.24558 -0.0299,0.0853 -0.0546,0.17411 -0.055,0.19739 -4.3e-4,0.0233 -0.0311,0.0728 -0.0683,0.10995 -0.0587,0.0587 -0.17405,0.4733 -0.22263,0.80022 -0.009,0.0582 -0.0183,0.12338 -0.0215,0.14483 -0.003,0.0214 0.0216,0.0692 0.055,0.10621 z"
       id="path408" />
    <path
       style="fill:#000000;stroke-width:0.0423333"
       d="m 115.55652,152.17019 c 0.0212,-0.0931 0.0717,-0.23266 0.11217,-0.31005 0.0665,-0.12701 0.0881,-0.13868 0.22183,-0.11983 0.21544,0.0304 0.3903,0.0712 0.48683,0.11367 0.34107,0.15005 0.51801,0.19603 0.88578,0.23021 0.10834,0.0101 0.1819,-0.008 0.23056,-0.0567 0.0576,-0.0576 0.0999,-0.0637 0.2184,-0.0313 0.0808,0.0221 0.15371,0.0453 0.162,0.0516 0.008,0.006 -0.018,0.0979 -0.0584,0.20371 -0.0614,0.16084 -0.0649,0.2129 -0.0213,0.31825 0.0287,0.0693 0.0454,0.14 0.0372,0.15715 -0.0235,0.0489 -0.38996,0.0531 -0.44889,0.005 -0.0734,-0.0598 -0.17992,0.0352 -0.17992,0.16047 0,0.054 -0.0191,0.10993 -0.0423,0.12432 -0.077,0.0476 -0.0474,0.22553 0.0423,0.254 0.0466,0.0148 0.0847,0.0579 0.0847,0.0958 0,0.067 0.16704,0.33894 0.29704,0.48364 0.0353,0.0393 0.11861,0.0813 0.18511,0.0934 0.0665,0.0121 0.12407,0.0275 0.12794,0.0344 0.004,0.007 0.11193,0.14579 0.24014,0.30878 0.12821,0.16298 0.28848,0.40897 0.35615,0.54664 0.16158,0.32876 0.27623,0.45961 0.56525,0.64514 0.13156,0.0845 0.31852,0.20804 0.41546,0.27463 0.0969,0.0666 0.20847,0.12109 0.24786,0.12109 0.0394,0 0.15629,0.0571 0.25978,0.127 0.1035,0.0699 0.19967,0.127 0.21371,0.127 0.0561,0 0.55753,0.25339 0.58298,0.29458 0.015,0.0242 0.0785,0.0445 0.14116,0.045 0.0627,5.1e-4 0.16155,0.0382 0.21975,0.0837 0.0582,0.0455 0.13805,0.0832 0.17742,0.0837 0.0394,5e-4 0.0836,0.0203 0.0982,0.044 0.0146,0.0237 0.0463,0.0309 0.0703,0.016 0.024,-0.0149 0.17036,0.0129 0.32516,0.0616 0.52152,0.16421 0.72029,0.21801 0.80549,0.21801 0.0466,0 0.0961,0.0182 0.10982,0.0405 0.0138,0.0223 0.0532,0.0297 0.0877,0.0164 0.0345,-0.0132 0.0893,-0.002 0.12187,0.0251 0.045,0.0374 0.0667,0.037 0.0906,-0.002 0.0228,-0.0369 0.0467,-0.0299 0.0871,0.0254 0.0449,0.0614 0.0678,0.0662 0.11802,0.0245 0.0343,-0.0284 0.0519,-0.0789 0.0391,-0.11211 -0.0345,-0.0898 0.0985,-0.0748 0.19529,0.022 0.14764,0.14763 0.22176,0.33185 0.17139,0.42596 -0.0532,0.0995 -0.0711,0.10059 -0.40197,0.0251 -0.1397,-0.0319 -0.31784,-0.059 -0.39587,-0.0602 -0.078,-0.001 -0.23043,-0.0307 -0.33866,-0.0655 -0.10824,-0.0348 -0.28252,-0.0862 -0.3873,-0.11423 -0.32633,-0.0873 -0.90426,-0.28413 -1.03707,-0.35325 -0.0698,-0.0363 -0.23172,-0.098 -0.35984,-0.1371 -0.12811,-0.0391 -0.31235,-0.13464 -0.40944,-0.21235 -0.0971,-0.0777 -0.259,-0.17973 -0.35983,-0.22671 -0.10082,-0.047 -0.31667,-0.16072 -0.47965,-0.25277 -0.16299,-0.092 -0.33505,-0.18489 -0.38238,-0.20632 -0.0473,-0.0214 -0.1565,-0.12941 -0.24262,-0.23994 -0.0861,-0.11053 -0.30919,-0.31299 -0.49574,-0.44991 -0.18654,-0.13693 -0.41523,-0.34858 -0.5082,-0.47034 -0.093,-0.12176 -0.22168,-0.28473 -0.28604,-0.36215 -0.0644,-0.0774 -0.13365,-0.19172 -0.15397,-0.254 -0.0203,-0.0623 -0.0896,-0.17038 -0.15401,-0.24023 -0.0644,-0.0699 -0.14674,-0.18598 -0.18302,-0.25807 -0.0363,-0.0721 -0.1289,-0.1964 -0.20582,-0.27625 -0.0769,-0.0798 -0.16845,-0.18976 -0.20337,-0.24425 -0.0349,-0.0545 -0.0987,-0.14507 -0.14168,-0.2013 -0.0601,-0.0786 -0.067,-0.11573 -0.0297,-0.16062 0.0379,-0.0456 0.0275,-0.0731 -0.0477,-0.12569 -0.0528,-0.037 -0.13473,-0.0673 -0.18193,-0.0673 -0.0794,2e-5 -0.0865,0.0294 -0.0947,0.39158 -0.005,0.21536 -0.0161,0.51062 -0.0249,0.65614 -0.009,0.14552 -0.002,0.26459 0.0163,0.26459 0.0548,0 0.16793,0.26471 0.14458,0.33828 -0.0121,0.0382 -0.10282,0.11045 -0.20157,0.16069 l -0.17955,0.0913 -0.0945,-0.0943 c -0.20082,-0.20034 -0.37512,-1.62214 -0.26062,-2.1258 z"
       id="path386" />
    <path
       style="fill:#000000;stroke-width:0.0423333"
       d="m 131.44731,173.04655 c 0.016,-0.12806 0.0637,-0.30904 0.10583,-0.40217 0.0422,-0.0931 0.10826,-0.29316 0.14688,-0.4445 0.0561,-0.21964 0.0954,-0.29076 0.19486,-0.35246 0.40259,-0.24969 0.7001,-0.40777 0.88597,-0.47076 0.11605,-0.0393 0.27797,-0.10688 0.35983,-0.15013 0.0819,-0.0432 0.20599,-0.0931 0.27584,-0.11075 0.36911,-0.0934 0.984,0.11212 1.33889,0.4475 0.0379,0.0358 0.10456,0.0956 0.14816,0.1329 0.14696,0.12569 0.46449,0.4809 0.64291,0.71922 0.14809,0.1978 0.1772,0.26868 0.1772,0.43151 0,0.15037 0.0204,0.20915 0.0895,0.25755 0.11106,0.0778 0.24354,0.64195 0.1684,0.7171 -0.0796,0.0796 -0.0507,0.30728 0.0596,0.4698 0.0582,0.0858 0.10584,0.16133 0.10584,0.1679 0,0.007 -0.0571,0.004 -0.127,-0.007 -0.10608,-0.0156 -0.127,-0.004 -0.127,0.0686 0,0.048 -0.0479,0.13897 -0.10643,0.20212 l -0.10643,0.11484 -0.10342,-0.0972 c -0.10208,-0.0959 -0.10313,-0.10443 -0.0803,-0.65267 0.03,-0.71959 -0.0375,-1.01623 -0.29521,-1.29568 -0.0968,-0.10505 -0.27984,-0.32902 -0.40664,-0.49772 -0.12681,-0.1687 -0.24823,-0.30674 -0.26983,-0.30674 -0.0216,0 -0.15339,-0.0762 -0.29286,-0.16933 -0.20544,-0.13718 -0.29084,-0.16923 -0.44984,-0.16879 -0.22638,6.3e-4 -0.73543,0.15386 -1.04293,0.31396 -0.33904,0.17652 -0.68176,0.54423 -0.73719,0.79095 -0.021,0.0933 -0.0889,0.24645 -0.151,0.34026 -0.10428,0.15758 -0.10772,0.17627 -0.045,0.2455 0.0528,0.0584 0.0584,0.0998 0.0251,0.18716 -0.0583,0.1533 -0.007,0.48852 0.0972,0.62942 0.0587,0.0798 0.0888,0.19538 0.0965,0.37067 0.006,0.14009 0.0242,0.27578 0.0401,0.30152 0.0159,0.0258 0.003,0.0635 -0.0294,0.0838 -0.11866,0.0752 -0.24559,0.0378 -0.36041,-0.1061 -0.12567,-0.15751 -0.1299,-0.17221 -0.16558,-0.57532 -0.0134,-0.15134 -0.0422,-0.37867 -0.0641,-0.50519 -0.0429,-0.24843 -0.0427,-0.32427 0.002,-0.68014 z"
       id="path378" />
    <path
       style="fill:#000000;stroke-width:0.0423333"
       d="m 129.03763,173.89323 c 0.0199,-0.0815 0.0365,-0.29104 0.0369,-0.46566 4.2e-4,-0.17463 0.0105,-0.50624 0.0224,-0.73692 0.0255,-0.49384 0.0776,-0.587 0.31688,-0.56689 0.13256,0.0111 0.15186,0.0276 0.16322,0.13964 0.0315,0.31028 0.0177,0.49108 -0.0427,0.56096 -0.12185,0.1409 -0.15898,0.34531 -0.13417,0.73868 0.0182,0.28897 0.0107,0.39186 -0.0305,0.41732 -0.0447,0.0276 -0.0446,0.0557 4.2e-4,0.15326 0.0303,0.0657 0.0893,0.28137 0.13118,0.47928 0.0419,0.19791 0.10006,0.41894 0.12935,0.49117 0.0679,0.16749 0.0274,0.28616 -0.0854,0.25035 -0.0646,-0.0205 -0.1073,0.0123 -0.19321,0.14836 -0.0928,0.14703 -0.12036,0.1663 -0.17406,0.12174 -0.0934,-0.0775 -0.19303,-0.28739 -0.161,-0.33921 0.0287,-0.0464 0.0294,-1.09211 8e-4,-1.18905 -0.009,-0.0302 0,-0.12153 0.0199,-0.20303 z"
       id="path372" />
    <path
       style="fill:#000000;stroke-width:0.0423333"
       d="m 128.84419,169.64241 c 0.14058,0.0921 0.23316,0.0504 0.23316,-0.10516 0,-0.18763 -0.20269,-0.33788 -0.31044,-0.23012 -0.0701,0.0701 -0.0244,0.26868 0.0773,0.33528 z"
       id="path368" />
    <path
       style="fill:#000000;stroke-width:0.0423333"
       d="m 128.19307,169.36357 c 0.0183,-0.0582 0.0486,-0.19141 0.0673,-0.29599 0.0287,-0.16067 0.057,-0.20139 0.18205,-0.26255 0.0814,-0.0398 0.20394,-0.0733 0.27226,-0.0744 0.29808,-0.005 0.74861,0.34657 0.7692,0.60003 0.006,0.0763 0.0245,0.22926 0.0407,0.33985 0.0248,0.16935 0.0186,0.20109 -0.0393,0.20109 -0.0378,0 -0.1196,0.0572 -0.18184,0.127 -0.13286,0.14911 -0.23258,0.15753 -0.50133,0.0423 -0.10863,-0.0466 -0.26217,-0.0847 -0.3412,-0.0847 -0.10318,0 -0.16042,-0.0268 -0.20307,-0.0953 -0.0763,-0.12233 -0.10751,-0.36197 -0.0648,-0.49741 z"
       id="path366" />
    <path
       style="fill:#000000;stroke-width:0.0423333"
       d="m 123.13797,173.74498 c 0.0299,-0.32858 0.14604,-0.88429 0.21177,-1.01286 0.12748,-0.24932 0.30401,-0.4313 0.52798,-0.54426 0.30641,-0.15454 0.84042,-0.29011 1.19913,-0.30443 0.16298,-0.007 0.41255,-0.0261 0.55459,-0.0436 0.16539,-0.0203 0.31106,-0.0143 0.40509,0.0167 0.0808,0.0266 0.29157,0.0563 0.46848,0.066 0.30109,0.0164 0.3623,0.0362 0.67258,0.21757 0.14997,0.0877 0.24876,0.2002 0.24876,0.28336 0,0.0459 0.0615,0.20848 0.13674,0.36124 0.115,0.23361 0.13752,0.32863 0.14167,0.59786 0.006,0.41213 -0.0216,0.59528 -0.091,0.59528 -0.0644,0 -0.052,0.36548 0.0168,0.49429 0.0345,0.0646 0.0706,0.54308 0.0544,0.72174 -0.003,0.0346 -0.0469,0.0434 -0.13169,0.0265 -0.11496,-0.023 -0.127,-0.015 -0.127,0.0842 0,0.10271 -0.0996,0.19728 -0.2078,0.19728 -0.11374,0 -0.26038,-0.5664 -0.15692,-0.6061 0.0505,-0.0194 0.1318,-0.43505 0.17529,-0.89673 0.0292,-0.30955 -0.0706,-0.90775 -0.1903,-1.14137 -0.0473,-0.0922 -0.0859,-0.19285 -0.0859,-0.22358 0,-0.0307 -0.0333,-0.0669 -0.0741,-0.0803 -0.0408,-0.0134 -0.15334,-0.0597 -0.2502,-0.10293 -0.0969,-0.0432 -0.30642,-0.0915 -0.46567,-0.10731 -0.15925,-0.0158 -0.32988,-0.0437 -0.37917,-0.0619 -0.0493,-0.0182 -0.16359,-0.014 -0.254,0.009 -0.0904,0.0234 -0.2882,0.0612 -0.43954,0.0841 -0.15135,0.0229 -0.40693,0.0813 -0.56797,0.12989 -0.25827,0.0779 -0.32663,0.12269 -0.5797,0.37981 -0.24212,0.24599 -0.29132,0.32093 -0.31518,0.48005 -0.0156,0.10371 -0.0165,0.21914 -0.002,0.25652 0.0143,0.0374 0.005,0.19477 -0.0197,0.34977 -0.081,0.4993 -0.0795,0.61025 0.0108,0.80146 0.0594,0.12585 0.0725,0.19678 0.0427,0.23284 -0.0236,0.0285 -0.0562,0.12349 -0.0726,0.21106 -0.0373,0.1998 -0.0671,0.21752 -0.24221,0.14434 l -0.14112,-0.059 -0.0516,-0.6303 c -0.0283,-0.34667 -0.0482,-0.65887 -0.0441,-0.6938 0.004,-0.0349 0.0143,-0.1397 0.0228,-0.23283 z"
       id="path346" />
    <path
       style="fill:#000000;stroke-width:0.0423333"
       d="m 118.13064,173.65866 c 0.0533,-0.16386 0.12306,-0.39982 0.15498,-0.52437 0.0421,-0.16413 0.11077,-0.28261 0.24964,-0.43052 0.17753,-0.1891 0.60413,-0.48744 0.84423,-0.59042 0.13097,-0.0562 0.4344,-0.0645 0.9092,-0.0249 0.48433,0.0404 0.70593,0.15108 1.0859,0.54253 0.28359,0.29216 0.29166,0.30668 0.38072,0.68505 0.05,0.21261 0.0967,0.49651 0.10376,0.6309 0.007,0.13437 0.0349,0.27103 0.062,0.30367 0.0423,0.051 0.067,0.24912 0.0933,0.74966 0.003,0.0618 -0.035,0.16437 -0.0851,0.22796 -0.05,0.0636 -0.0909,0.15751 -0.0909,0.20869 0,0.12884 -0.0301,0.1472 -0.15003,0.0916 -0.18833,-0.0872 -0.23313,-0.26128 -0.22132,-0.8598 0.0119,-0.60199 -0.0633,-1.05408 -0.22852,-1.37467 -0.12077,-0.2343 -0.42618,-0.53544 -0.57595,-0.5679 -0.0634,-0.0137 -0.15344,-0.0412 -0.20001,-0.061 -0.0466,-0.0198 -0.18393,-0.0581 -0.30525,-0.0852 -0.20841,-0.0465 -0.23996,-0.0415 -0.5715,0.0905 -0.19301,0.0769 -0.42891,0.20125 -0.52424,0.27642 -0.2189,0.17262 -0.48265,0.65769 -0.4833,0.88884 -4.2e-4,0.0897 -0.0288,0.25666 -0.0635,0.37096 -0.0944,0.31123 -0.0801,0.50999 0.053,0.73715 0.14405,0.24574 0.16596,0.5617 0.0464,0.66986 -0.0729,0.066 -0.0876,0.0654 -0.2261,-0.009 -0.0815,-0.0439 -0.1481,-0.0857 -0.1481,-0.0931 0,-0.007 -0.0276,-0.15063 -0.0614,-0.31845 -0.0791,-0.39306 -0.15102,-0.93019 -0.14761,-1.10195 0.001,-0.074 0.0463,-0.26858 0.0996,-0.43243 z"
       id="path314" />
    <path
       style="fill:#000000;stroke-width:0.0423333"
       d="m 116.48405,172.86918 c 0.0128,-0.0128 0.0421,-0.14479 0.0651,-0.2934 0.055,-0.35448 0.10828,-0.48004 0.23168,-0.54607 0.22523,-0.12054 0.26514,0.11761 0.14557,0.86855 -0.0222,0.1397 -0.0406,0.34068 -0.0408,0.44662 0,0.10594 -0.0203,0.21259 -0.0447,0.237 -0.0711,0.0711 -0.0818,0.74751 -0.0133,0.84112 0.0317,0.0434 0.0577,0.10965 0.0577,0.14718 0,0.0375 0.0588,0.14819 0.13066,0.24591 0.13082,0.17789 0.12893,0.19479 -0.0201,0.1789 -0.0935,-0.01 -0.15136,0.0659 -0.15228,0.19985 -8.8e-4,0.13125 -0.0879,0.12584 -0.33546,-0.0208 -0.0267,-0.0158 -0.0505,-2.27852 -0.0242,-2.30482 z"
       id="path308" />
    <path
       style="fill:#000000;stroke-width:0.0423333"
       d="m 115.8602,169.7939 c 0.0543,-0.10928 0.14074,-0.17409 0.38387,-0.28792 0.39965,-0.18712 0.49998,-0.20531 0.69029,-0.1252 0.15829,0.0666 0.33199,0.24711 0.33199,0.34494 0,0.03 -0.0476,0.11114 -0.10583,0.18032 -0.0582,0.0692 -0.10583,0.1482 -0.10583,0.17561 0,0.11843 -0.12865,0.16906 -0.48819,0.19212 -0.32781,0.021 -0.37889,0.0355 -0.45178,0.12818 -0.10153,0.12908 -0.14638,0.13075 -0.24776,0.009 -0.1002,-0.12011 -0.10351,-0.42264 -0.007,-0.61728 z"
       id="path298" />
    <path
       style="fill:#ffffff;stroke-width:0.0423333"
       d="m 112.36313,174.53969 c 0.0213,0.0412 0.029,0.0909 0.017,0.11027 -0.012,0.0194 0.0252,0.0795 0.0827,0.1335 0.0575,0.054 0.10453,0.1241 0.10453,0.15575 0,0.0316 0.0667,0.0969 0.14816,0.14497 0.0815,0.0481 0.14817,0.10459 0.14817,0.12557 0,0.021 0.0238,0.0389 0.0529,0.0399 0.0291,9.3e-4 0.11491,0.0548 0.19069,0.11966 l 0.13777,0.11794 0.43373,-0.0583 c 0.23855,-0.032 0.4653,-0.0586 0.5039,-0.0591 0.0386,-4.7e-4 0.10346,-0.0376 0.14414,-0.0826 0.0407,-0.045 0.10912,-0.0817 0.15208,-0.0817 0.043,0 0.0781,-0.019 0.0781,-0.0423 0,-0.0233 0.0367,-0.079 0.0815,-0.12379 0.0448,-0.0448 0.10179,-0.11944 0.12664,-0.16587 0.0475,-0.0888 0.0186,-0.33106 -0.0442,-0.36988 -0.0203,-0.0125 -0.0369,-0.072 -0.0369,-0.13214 0,-0.0601 -0.0394,-0.24174 -0.0876,-0.40355 -0.0482,-0.1618 -0.0944,-0.42103 -0.10263,-0.57606 -0.008,-0.15503 -0.0283,-0.39141 -0.0446,-0.52529 l -0.0296,-0.24342 h -0.18283 c -0.1092,0 -0.24302,-0.0355 -0.33226,-0.0881 -0.12933,-0.0763 -0.18801,-0.0841 -0.43634,-0.0579 -0.29158,0.0307 -0.313,0.0427 -0.61689,0.34552 -0.20193,0.20122 -0.36024,0.44701 -0.40751,0.63274 -0.0287,0.11273 -0.0792,0.25259 -0.11217,0.31079 -0.0647,0.11405 -0.0437,0.62811 0.0316,0.77346 z"
       id="path284" />
    <path
       style="fill:#000000;stroke-width:0.0423333"
       d="m 112.22869,179.01557 c 0.0233,0 0.0423,-0.0297 0.0423,-0.066 0,-0.0363 -0.019,-0.0542 -0.0423,-0.0398 -0.0233,0.0144 -0.0423,0.0441 -0.0423,0.066 0,0.0219 0.0191,0.0398 0.0423,0.0398 z"
       id="path282" />
    <path
       style="fill:#ffffff;stroke-width:0.0423333"
       d="m 108.05889,173.05367 c 0.0117,0.0117 0.13073,0.008 0.26459,-0.009 0.13385,-0.0167 0.50055,-0.0528 0.81487,-0.0803 0.6403,-0.056 0.96152,-0.11726 1.06406,-0.20287 0.12632,-0.10545 0.12859,-0.28968 0.007,-0.547 -0.10664,-0.22522 -0.12979,-0.24581 -0.4301,-0.38267 -0.26234,-0.11955 -0.34727,-0.1398 -0.48964,-0.11674 -0.18754,0.0304 -0.69791,0.346 -0.70008,0.43294 -7.1e-4,0.0296 -0.049,0.0755 -0.10717,0.10205 -0.0582,0.0265 -0.10583,0.0629 -0.10583,0.0807 0,0.0179 -0.0655,0.10202 -0.14565,0.18696 -0.0801,0.0849 -0.15371,0.19583 -0.16357,0.24643 -0.028,0.14363 -0.0315,0.26637 -0.008,0.2896 z"
       id="path260" />
    <path
       style="fill:#ffffff;stroke-width:0.0423333"
       d="m 107.99535,173.17357 c 0.0233,0 0.0423,-0.0286 0.0423,-0.0635 0,-0.0349 -0.019,-0.0635 -0.0423,-0.0635 -0.0233,0 -0.0423,0.0286 -0.0423,0.0635 0,0.0349 0.0191,0.0635 0.0423,0.0635 z"
       id="path258" />
    <path
       style="fill:#000000;stroke-width:0.0423333"
       d="m 109.41352,70.233978 c 0.0233,0 0.0423,-0.0191 0.0423,-0.0423 0,-0.0233 -0.0191,-0.0423 -0.0423,-0.0423 -0.0233,0 -0.0423,0.019 -0.0423,0.0423 0,0.0233 0.019,0.0423 0.0423,0.0423 z"
       id="path254" />
    <path
       style="fill:#ffffff;stroke-width:0.0423333"
       d="m 102.66079,173.46989 c 0.0258,0.10478 0.0696,0.24765 0.0975,0.3175 0.0279,0.0699 0.0794,0.2413 0.11444,0.381 0.046,0.18307 0.0893,0.26524 0.1554,0.29424 0.1806,0.0793 0.15702,0.50728 -0.0253,0.4596 -0.0575,-0.015 -0.0959,0.002 -0.11466,0.0508 -0.0202,0.0527 0.0186,0.11344 0.13708,0.21488 0.0909,0.0778 0.18702,0.14216 0.21363,0.14304 0.0266,8.9e-4 0.0598,0.0314 0.0738,0.0678 0.014,0.0364 0.0466,0.0531 0.0724,0.0371 0.0259,-0.016 0.13555,-0.0352 0.24372,-0.0427 0.79196,-0.055 0.92729,-0.0843 1.23385,-0.26658 0.0349,-0.0208 0.18465,-0.0922 0.33274,-0.15871 0.30333,-0.13626 0.40652,-0.24062 0.56393,-0.57028 0.17991,-0.37678 0.23854,-0.55448 0.27113,-0.82182 0.0278,-0.22804 0.0311,-0.34102 0.0167,-0.58232 -0.002,-0.0409 -0.062,-0.13614 -0.13233,-0.21167 -0.0704,-0.0755 -0.1449,-0.1802 -0.16567,-0.23259 -0.0208,-0.0524 -0.0716,-0.0982 -0.11289,-0.10187 -0.0413,-0.004 -0.12276,-0.011 -0.18097,-0.0163 -0.0582,-0.005 -0.16298,-0.0328 -0.23283,-0.0611 -0.16972,-0.0687 -0.76248,-0.0913 -0.97367,-0.0371 -0.0931,0.0239 -0.22648,0.0537 -0.29633,0.0662 -0.0699,0.0125 -0.1651,0.0562 -0.21167,0.0971 -0.12087,0.10614 -0.25547,0.1696 -0.35978,0.1696 -0.27756,0 -0.82691,0.38574 -0.78374,0.55033 0.009,0.0349 0.0377,0.14923 0.0635,0.254 z"
       id="path234" />
    <path
       style="fill:#ffffff;stroke-width:0.0423333"
       d="m 102.43436,168.71742 c -0.0287,0.12526 -0.0259,0.32468 0.009,0.63652 0.0278,0.24977 0.0423,0.58747 0.0322,0.75045 -0.01,0.16298 0.003,0.35901 0.0295,0.43562 0.0339,0.0991 0.0347,0.16018 0.003,0.21167 -0.0521,0.0838 -0.0349,0.73229 0.0275,1.03754 0.0229,0.11175 0.0416,0.26778 0.0416,0.34676 0,0.19114 0.0444,0.20852 0.21357,0.0837 0.0778,-0.0574 0.16486,-0.10443 0.19335,-0.10443 0.0285,0 0.14661,-0.0476 0.26251,-0.10583 0.11588,-0.0582 0.26767,-0.10583 0.3373,-0.10583 0.0696,0 0.18116,-0.0285 0.24785,-0.0632 0.0667,-0.0348 0.18793,-0.0636 0.26942,-0.0641 0.12409,-7.2e-4 0.21697,-0.0596 0.5715,-0.36202 0.42523,-0.36275 0.44165,-0.38513 0.69162,-0.9422 0.13268,-0.2957 0.14547,-0.45372 0.0931,-1.1503 -0.0357,-0.47452 -0.0651,-0.63719 -0.14734,-0.81521 -0.0565,-0.12232 -0.11248,-0.25471 -0.12441,-0.2942 -0.0198,-0.0657 -0.42201,-0.28804 -0.52109,-0.28804 -0.0828,0 -0.30933,-0.13401 -0.3094,-0.18301 -3e-5,-0.0278 -0.0735,-0.0549 -0.16626,-0.0612 -0.0914,-0.006 -0.24619,-0.0396 -0.34393,-0.0741 -0.2116,-0.0747 -0.44996,-0.0819 -0.47249,-0.0143 -0.0118,0.0354 -0.0435,0.0337 -0.11781,-0.006 -0.0901,-0.0482 -0.10856,-0.0441 -0.16189,0.0363 -0.0331,0.0499 -0.10373,0.0907 -0.15691,0.0907 -0.0677,0 -0.14552,0.0665 -0.25942,0.22173 -0.23779,0.32403 -0.26063,0.37321 -0.2287,0.4926 0.0159,0.0595 0.0101,0.1902 -0.0128,0.29053 z"
       id="path232" />
    <path
       style="fill:#000000;stroke-width:0.0423333"
       d="m 85.432501,172.1364 c 0.04309,-0.22415 0.240851,-0.77893 0.321704,-0.90248 0.03533,-0.054 0.199724,-0.24079 0.365324,-0.41512 0.30524,-0.32134 0.519282,-0.45252 0.920822,-0.56434 0.104775,-0.0292 0.238125,-0.0725 0.296333,-0.0962 0.05821,-0.0238 0.278151,-0.0451 0.488764,-0.0475 l 0.382926,-0.004 0.247769,0.18949 c 0.136275,0.10422 0.280534,0.25119 0.320581,0.3266 0.04005,0.0754 0.0935,0.16204 0.118788,0.19252 0.04605,0.0555 0.121264,0.3976 0.163567,0.74399 0.01365,0.11179 0.0011,0.22472 -0.03186,0.28628 -0.04652,0.0869 -0.07528,0.0977 -0.198513,0.0746 -0.159766,-0.03 -0.349022,0.0464 -0.349022,0.1409 0,0.032 -0.04676,0.10503 -0.103907,0.16218 -0.07946,0.0795 -0.148624,0.10391 -0.293933,0.10391 -0.134294,0 -0.206248,0.0223 -0.245343,0.0762 -0.05893,0.0812 -0.225366,0.15599 -0.441926,0.19858 -0.167695,0.033 -0.673951,0.0321 -0.841058,-0.001 -0.06985,-0.014 -0.17868,-0.0249 -0.241841,-0.0242 -0.09881,0.001 -0.118856,-0.0201 -0.143591,-0.15196 -0.01581,-0.0843 -0.01015,-0.18274 0.01259,-0.21878 0.06691,-0.10608 0.311142,-0.22586 0.366624,-0.17981 0.05063,0.042 0.961199,0.0348 1.030732,-0.008 0.02186,-0.0135 0.08604,-0.0343 0.142621,-0.0461 0.05657,-0.0119 0.179065,-0.0501 0.272199,-0.085 0.09313,-0.0349 0.207433,-0.0644 0.254,-0.0657 0.04657,-0.001 0.156104,-0.0699 0.243416,-0.15269 0.138477,-0.13124 0.15875,-0.17525 0.15875,-0.34452 0,-0.15981 -0.02665,-0.22658 -0.150998,-0.37833 -0.08305,-0.10136 -0.178304,-0.18428 -0.211667,-0.18428 -0.03337,0 -0.06067,-0.0191 -0.06067,-0.0423 0,-0.0233 -0.05334,-0.0423 -0.118533,-0.0423 -0.06519,0 -0.137829,-0.0193 -0.161413,-0.0429 -0.06083,-0.0608 -0.440737,-0.0926 -0.566721,-0.0474 -0.05821,0.0209 -0.213487,0.0721 -0.345067,0.11381 -0.274955,0.0872 -0.578879,0.35894 -0.824306,0.7371 -0.212594,0.32757 -0.285793,0.56727 -0.252214,0.82588 0.07419,0.57137 0.09326,0.68256 0.126043,0.7352 0.01948,0.0313 0.03437,0.13233 0.0331,0.22458 -0.0015,0.11044 0.01902,0.17591 0.06014,0.19169 0.03435,0.0132 0.08946,0.0886 0.122466,0.16759 0.03301,0.079 0.09234,0.15604 0.131856,0.1712 0.03951,0.0152 0.13583,0.0984 0.214033,0.18496 0.07821,0.0866 0.199136,0.18098 0.268736,0.20981 0.0696,0.0288 0.126543,0.0692 0.126543,0.0896 0,0.0205 0.03184,0.0372 0.07075,0.0372 0.03891,0 0.105165,0.0311 0.147232,0.0692 0.09298,0.0841 0.66846,0.18278 1.0732,0.18394 0.482202,0.001 0.838078,-0.094 1.16686,-0.31258 0.158453,-0.10536 0.335953,-0.20359 0.394445,-0.21826 0.0929,-0.0233 0.114825,-0.006 0.173422,0.13384 0.09991,0.23914 0.114876,0.22242 -0.493704,0.5517 -0.09185,0.0497 -0.240851,0.14972 -0.331118,0.22225 -0.09027,0.0726 -0.183342,0.1319 -0.206837,0.1319 -0.02349,0 -0.06115,0.0329 -0.08368,0.0732 -0.03883,0.0694 -0.04519,0.0694 -0.121856,0 -0.04449,-0.0403 -0.138964,-0.0732 -0.209953,-0.0732 -0.07098,0 -0.151985,-0.0276 -0.179992,-0.0614 -0.03869,-0.0466 -0.195149,-0.0656 -0.65077,-0.0791 -0.715247,-0.0212 -0.868912,-0.0484 -0.980838,-0.1737 -0.04657,-0.0521 -0.179916,-0.15991 -0.296333,-0.23953 -0.256608,-0.1755 -0.310727,-0.23671 -0.344839,-0.39002 -0.01587,-0.0713 -0.0745,-0.14317 -0.147654,-0.181 -0.06674,-0.0345 -0.12134,-0.0798 -0.12134,-0.10075 0,-0.0209 -0.045,-0.0918 -0.09999,-0.15766 -0.055,-0.0658 -0.12937,-0.21492 -0.165273,-0.33133 -0.03591,-0.11642 -0.105211,-0.31617 -0.154009,-0.44391 -0.09071,-0.23742 -0.103247,-0.44143 -0.04558,-0.74143 z"
       id="path194" />
    <path
       style="fill:#000000;stroke-width:0.0423333"
       d="m 79.579764,174.64033 c 0.02251,-0.0139 0.03216,-0.0711 0.02145,-0.12717 -0.01071,-0.056 0.0014,-0.11476 0.02684,-0.13051 0.05987,-0.037 0.05892,-0.3216 -0.0036,-1.0865 -0.04079,-0.49878 -0.03985,-0.67518 0.0049,-0.91214 0.03049,-0.16158 0.05506,-0.42624 0.05461,-0.58814 -0.0026,-0.93811 -0.0026,-1.61724 0,-1.69135 0.0017,-0.0466 -0.01124,-0.36089 -0.02867,-0.6985 -0.01742,-0.33761 -0.03641,-0.70908 -0.04219,-0.8255 -0.01228,-0.24734 0.06825,-0.40217 0.209186,-0.40217 0.117335,0 0.185597,0.14641 0.207247,0.4445 0.0085,0.11642 0.03674,0.28976 0.06286,0.38521 0.03116,0.11388 0.03463,0.24236 0.01008,0.37376 -0.02057,0.11013 -0.02733,0.23878 -0.01501,0.28588 0.01232,0.0471 4.23e-4,0.0992 -0.02641,0.11582 -0.06757,0.0418 -0.072,0.83968 -0.0058,1.04035 0.03688,0.11176 0.03926,0.18376 0.0082,0.24821 -0.02407,0.0499 -0.05468,0.35336 -0.06801,0.67428 -0.02991,0.7202 -0.0095,0.74163 0.355037,0.37363 0.280399,-0.28302 0.548208,-0.4703 0.672532,-0.4703 0.04418,0 0.106198,-0.0312 0.137825,-0.0693 0.07456,-0.0899 0.380014,-0.21991 0.649893,-0.27673 0.117225,-0.0247 0.235648,-0.063 0.263161,-0.0851 0.02824,-0.0227 0.240284,-0.0311 0.486833,-0.0194 0.659943,0.0313 0.862059,0.0569 1.027092,0.12989 0.0828,0.0366 0.213131,0.0941 0.28961,0.12778 0.08089,0.0356 0.177458,0.12948 0.230844,0.22447 0.05048,0.0898 0.129494,0.19743 0.175586,0.23915 0.04609,0.0417 0.07409,0.10115 0.06222,0.13209 -0.01187,0.0309 0.01799,0.0958 0.06636,0.14419 0.04837,0.0484 0.08794,0.10468 0.08794,0.12516 0,0.0205 0.04682,0.13953 0.104038,0.26458 0.08275,0.18085 0.100898,0.27932 0.08871,0.48136 -0.01099,0.18222 0.0045,0.28779 0.05472,0.37356 0.06544,0.11171 0.06528,0.12307 -0.0024,0.17281 -0.09063,0.0666 -0.142282,0.36643 -0.0824,0.47832 0.02457,0.0459 0.03395,0.12446 0.02084,0.17456 -0.01874,0.0717 -0.0455,0.0857 -0.125374,0.0656 -0.126894,-0.0318 -0.227453,0.0476 -0.227453,0.17965 0,0.1395 -0.09737,0.12691 -0.22907,-0.0296 -0.130679,-0.1553 -0.129104,-0.1348 -0.03065,-0.39892 0.109038,-0.2925 0.147806,-0.81531 0.07138,-0.96261 -0.03229,-0.0622 -0.04863,-0.1517 -0.03631,-0.1988 0.01246,-0.0477 -0.01725,-0.15284 -0.06698,-0.23712 -0.04915,-0.0833 -0.08937,-0.17511 -0.08937,-0.20399 0,-0.0878 -0.305486,-0.47327 -0.467144,-0.58948 -0.123254,-0.0886 -0.184171,-0.10492 -0.32236,-0.0864 -0.112949,0.0151 -0.214833,0 -0.302251,-0.0453 -0.126323,-0.0653 -0.209267,-0.0684 -0.347578,-0.0131 -0.03492,0.014 -0.206375,0.0536 -0.381,0.0881 -0.174625,0.0345 -0.3995,0.0873 -0.499716,0.1173 -0.155524,0.0466 -0.18862,0.0455 -0.225924,-0.008 -0.03487,-0.0497 -0.03984,-0.0444 -0.02461,0.0262 0.01472,0.0682 -0.02183,0.11317 -0.159622,0.1964 -0.09829,0.0594 -0.238586,0.1211 -0.311755,0.13717 -0.07317,0.0161 -0.133041,0.0454 -0.133041,0.0652 0,0.0198 -0.06667,0.10665 -0.148167,0.19305 -0.08149,0.0864 -0.148166,0.17264 -0.148166,0.19164 0,0.0821 -0.225281,0.35782 -0.309686,0.37901 -0.106019,0.0266 -0.117906,0.15023 -0.08059,0.83806 0.01628,0.29996 0.0392,0.41255 0.09479,0.46566 0.0914,0.0873 0.149026,0.26056 0.08668,0.26056 -0.02485,0 -0.08456,-0.0394 -0.132685,-0.0875 -0.105406,-0.10541 -0.196524,-0.054 -0.216904,0.12235 -0.01084,0.0937 -0.03138,0.11091 -0.118931,0.0994 -0.122771,-0.0162 -0.282312,-0.15408 -0.221615,-0.1916 z"
       id="path176" />
    <path
       style="fill:#000000;stroke-width:0.0423333"
       d="m 84.76761,69.377658 c 0.02765,0.009 0.05027,-0.0134 0.05027,-0.0503 0,-0.0369 -0.03016,-0.067 -0.06703,-0.067 -0.07476,0 -0.06174,0.0911 0.01676,0.1173 z"
       id="path160" />
    <path
       style="fill:#000000;stroke-width:0.0423333"
       d="m 54.317737,116.79984 c 0.03549,-0.0294 0.0558,-0.0623 0.04515,-0.0729 -0.02936,-0.0294 -0.109673,0.0303 -0.109673,0.0815 0,0.0281 0.02429,0.0249 0.06452,-0.009 z"
       id="path158" />
    <path
       style="fill:#000000;stroke-width:0.0423333"
       d="m 72.325969,168.83316 c 0.08195,-0.0342 0.221044,-0.0625 0.309106,-0.0627 0.08806,-4.2e-4 0.253623,-0.0288 0.367919,-0.0635 0.114295,-0.0347 0.297709,-0.063 0.407581,-0.063 0.109872,0 0.26816,-0.0286 0.351747,-0.0635 0.08359,-0.0349 0.231339,-0.0635 0.328342,-0.0635 0.097,0 0.24525,-0.0177 0.329442,-0.0394 0.08419,-0.0216 0.267378,-0.0628 0.407078,-0.0916 0.1397,-0.0287 0.306777,-0.082 0.371284,-0.11845 0.09738,-0.055 0.132042,-0.057 0.204233,-0.0119 0.123817,0.0773 0.656408,0.10577 0.906149,0.0484 0.116417,-0.0267 0.345017,-0.0576 0.508,-0.0686 0.162984,-0.011 0.302684,-0.0379 0.310443,-0.0597 0.01916,-0.054 0.24685,-0.0503 0.35138,0.006 0.09962,0.0533 0.764383,0.0643 1.087412,0.0179 l 0.22523,-0.0323 -0.02775,0.14793 c -0.02414,0.12867 -0.01213,0.16022 0.09221,0.24229 l 0.11996,0.0944 -0.09988,0.0809 c -0.109513,0.0887 -0.370163,0.10972 -0.396075,0.032 -0.02206,-0.0662 -0.353357,-0.16134 -0.564376,-0.16213 -0.0943,-4.2e-4 -0.192159,-0.0213 -0.21747,-0.0467 -0.03314,-0.0331 -0.05398,-0.0331 -0.07446,0 -0.01808,0.0293 -0.225475,0.046 -0.569226,0.046 -0.297426,0 -0.555067,0.0143 -0.572529,0.0318 -0.01746,0.0175 -0.08255,0.035 -0.144636,0.0391 -0.714138,0.0463 -0.829124,0.19307 -0.820556,1.04758 0.0069,0.69149 0.03103,1.04819 0.09461,1.40044 0.02942,0.16298 0.05228,0.37253 0.05081,0.46567 -0.0045,0.2834 -0.0032,0.96707 0.0021,1.0795 0.0027,0.0582 -0.0022,0.13441 -0.01094,0.16933 -0.0087,0.0349 -7.2e-4,0.2973 0.01778,0.58305 0.03949,0.60974 0.0047,0.75057 -0.196317,0.79472 -0.121488,0.0267 -0.126326,0.0359 -0.101214,0.19296 0.03245,0.20292 -0.03454,0.21843 -0.199539,0.0462 -0.128854,-0.1345 -0.154444,-0.39552 -0.05203,-0.53068 0.0577,-0.0761 0.12824,-0.72801 0.122127,-1.12859 -0.0088,-0.57706 -0.07223,-1.72628 -0.09928,-1.79917 -0.01729,-0.0466 -0.01441,-0.13029 0.0064,-0.18605 0.02081,-0.0558 0.02887,-0.13196 0.01791,-0.16933 -0.04747,-0.16187 -0.209597,-1.52517 -0.202607,-1.70375 0.01019,-0.26047 -0.05172,-0.31006 -0.339412,-0.2719 -0.121501,0.0161 -0.242841,0.0475 -0.269647,0.0697 -0.0268,0.0223 -0.179679,0.0483 -0.339725,0.058 -0.160045,0.01 -0.29099,0.0197 -0.29099,0.0223 0,0.003 -0.08698,0.0126 -0.193286,0.0221 -0.106312,0.009 -0.245665,0.0372 -0.309673,0.0615 -0.06401,0.0243 -0.169964,0.0443 -0.235449,0.0443 -0.06548,0 -0.142774,0.0286 -0.171759,0.0635 -0.02936,0.0354 -0.121645,0.0635 -0.208382,0.0635 -0.08563,0 -0.174866,0.0192 -0.19831,0.0426 -0.02861,0.0286 -0.07387,4.2e-4 -0.137656,-0.0859 l -0.09503,-0.12853 0.148996,-0.0623 z"
       id="path152" />
    <path
       style="fill:#000000;stroke-width:0.0423333"
       d="m 53.945387,126.1396 c 0.04303,-0.043 -0.02176,-0.0785 -0.07888,-0.0432 -0.04315,0.0267 -0.04319,0.0366 0,0.051 0.02941,0.01 0.06499,0.006 0.07905,-0.008 z"
       id="path150" />
    <path
       style="fill:#000000;stroke-width:0.0423333"
       d="m 53.660517,144.16919 c 0.02328,0.0144 0.04233,0.006 0.04233,-0.0187 0,-0.0247 -0.01905,-0.0448 -0.04233,-0.0448 -0.02328,0 -0.04233,0.008 -0.04233,0.0187 0,0.0103 0.01905,0.0304 0.04233,0.0448 z"
       id="path148" />
    <circle
       id="path574"
       style="fill:#000000;stroke:#000000;stroke-width:0.264583"
       cx="65.767853"
       cy="139.09523"
       r="0.0066604125" />
    <path
       style="fill:#000000;stroke-width:0.264583"
       id="path580"
       d="m 45.085786,163.08582 c 10.646227,-1.17352 21.382881,-1.24119 32.079708,-1.46564 20.260712,-0.24706 40.523676,-0.19103 60.785266,-0.10746 5.67768,0.0237 11.35524,0.0678 17.03292,0.0924 1.57328,0.006 3.14657,0.0108 4.71987,0.0102 1.13707,-2.6e-4 2.27415,-1.7e-4 3.41122,1.5e-4 0.93629,3e-5 1.87257,-7.9e-4 2.80886,-7.9e-4 0,0 0.60226,-0.43757 0.60226,-0.43757 v 0 c -0.93558,5e-5 -1.87116,-7.9e-4 -2.80675,-5.3e-4 -1.13776,5.3e-4 -2.27552,0.001 -3.41329,0.001 -1.57709,-5.3e-4 -3.15419,0.002 -4.73128,-0.002 -5.70443,-0.0102 -11.40884,-0.0285 -17.11328,-0.0341 -20.27802,-0.0257 -40.556818,-0.0645 -60.834088,0.14132 -10.649934,0.20082 -21.336039,0.24834 -31.94083,1.35591 0,0 -0.600586,0.44658 -0.600586,0.44658 z" />
    <path
       style="fill:#000000;stroke-width:0.264583"
       id="path584"
       d="m 46.823778,161.10695 c -0.06669,-5.07363 0.205658,-10.14322 0.374359,-15.21253 0.19308,-7.10956 0.321707,-14.22014 0.553461,-21.32871 0.325734,-9.62691 0.939665,-19.23898 1.269519,-28.866362 0.14366,-6.46736 -0.0254,-12.93581 -0.298818,-19.39702 0,0 -0.60669,0.31248 -0.60669,0.31248 v 0 c 0.292608,6.45521 0.469019,12.9185 0.319143,19.38076 -0.336465,9.631792 -0.956736,19.247992 -1.294545,28.879102 -0.240837,7.10925 -0.365641,14.22071 -0.558514,21.33122 -0.17449,5.07889 -0.446921,10.15684 -0.423328,15.2401 0,0 0.665413,-0.33904 0.665413,-0.33904 z" />
    <path
       style="fill:#000000;stroke-width:0.264583"
       id="path588"
       d="m 48.668998,76.527268 c 5.256959,-0.44765 10.47428,-1.27317 15.705561,-1.9499 6.502117,-0.89587 13.043818,-1.43826 19.577923,-2.03367 7.685691,-0.6604 15.397128,-0.95434 23.101388,-1.30707 7.47229,-0.3162 14.93069,-0.88139 22.40183,-1.21443 6.48825,-0.18651 12.97703,-0.3677 19.4667,-0.50152 4.20798,-0.083 8.41667,-0.11534 12.62535,-0.13356 0,0 0.58031,-0.42206 0.58031,-0.42206 v 0 c -4.21421,0.0234 -8.42844,0.0579 -12.64191,0.14424 -6.48939,0.13595 -12.97793,0.3171 -19.46607,0.499 -7.47971,0.33384 -14.94532,0.91867 -22.4264,1.23236 -7.697563,0.35026 -15.403457,0.62518 -23.082186,1.28904 -6.532401,0.60155 -13.074491,1.13126 -19.575365,2.02851 -5.217377,0.67737 -10.422061,1.50497 -15.667698,1.92648 0,0 -0.599433,0.44258 -0.599433,0.44258 z" />
    <path
       style="fill:#000000;stroke-width:0.264583"
       id="path590"
       d="m 165.83844,160.92466 c -0.27675,-6.43024 -0.94679,-12.83311 -1.448,-19.24784 -0.8215,-10.0387 -1.19889,-20.10525 -1.53847,-30.16942 -0.38959,-8.30727 -0.77122,-16.614592 -0.99998,-24.928062 -0.11819,-4.56415 -0.1382,-9.1299 -0.14401,-13.69532 -0.0417,-2.12938 0.0775,-4.26299 -0.0323,-6.3905 0,0 -0.65821,0.33978 -0.65821,0.33978 v 0 c 0.11536,2.12308 0.004,4.25291 0.0484,6.37805 0.009,4.56269 0.0374,9.12569 0.16472,13.68688 0.24832,8.3084 0.64738,16.610452 1.02894,24.913582 0.33902,10.06498 0.72946,20.13132 1.54088,30.17142 0.49112,6.42545 1.14899,12.84082 1.37791,19.28336 0,0 0.66016,-0.34193 0.66016,-0.34193 z" />
  </g>
</svg>
