<?xml version="1.0" encoding="UTF-8" standalone="no"?>
<svg
   xmlns:dc="http://purl.org/dc/elements/1.1/"
   xmlns:cc="http://creativecommons.org/ns#"
   xmlns:rdf="http://www.w3.org/1999/02/22-rdf-syntax-ns#"
   xmlns:svg="http://www.w3.org/2000/svg"
   xmlns="http://www.w3.org/2000/svg"
   xmlns:sodipodi="http://sodipodi.sourceforge.net/DTD/sodipodi-0.dtd"
   xmlns:inkscape="http://www.inkscape.org/namespaces/inkscape"
   width="210mm"
   height="297mm"
   viewBox="0 0 210 297"
   version="1.1"
   id="svg8"
   inkscape:version="1.0.1 (3bc2e813f5, 2020-09-07)"
   sodipodi:docname="2.svg">
  <defs
     id="defs2" />
  <sodipodi:namedview
     id="base"
     pagecolor="#ffffff"
     bordercolor="#666666"
     borderopacity="1.0"
     inkscape:pageopacity="0.0"
     inkscape:pageshadow="2"
     inkscape:zoom="1.4"
     inkscape:cx="484.04903"
     inkscape:cy="553.36324"
     inkscape:document-units="mm"
     inkscape:current-layer="layer1"
     inkscape:document-rotation="0"
     showgrid="false"
     inkscape:window-width="1920"
     inkscape:window-height="1017"
     inkscape:window-x="1912"
     inkscape:window-y="-8"
     inkscape:window-maximized="1" />
  <metadata
     id="metadata5">
    <rdf:RDF>
      <cc:Work
         rdf:about="">
        <dc:format>image/svg+xml</dc:format>
        <dc:type
           rdf:resource="http://purl.org/dc/dcmitype/StillImage" />
        <dc:title></dc:title>
      </cc:Work>
    </rdf:RDF>
  </metadata>
  <g
     inkscape:label="Layer 1"
     inkscape:groupmode="layer"
     id="layer1">
    <path
       style="fill:#000000;stroke-width:0.0423333"
       d="m 63.975775,179.68889 c 0.04985,-0.12354 0.206925,-0.22678 0.345012,-0.22678 0.148234,0 0.359313,-0.12237 0.412521,-0.23916 0.02305,-0.0506 0.05487,-0.1651 0.07072,-0.25449 0.01585,-0.0894 0.05693,-0.26729 0.09128,-0.39535 0.124918,-0.4656 0.189611,-0.74433 0.211252,-0.91017 0.01215,-0.0931 0.03719,-0.18838 0.05565,-0.21167 0.05812,-0.0733 0.136318,-1.17096 0.107273,-1.5056 -0.02738,-0.31537 -0.02611,-0.32104 0.08225,-0.37042 0.06053,-0.0276 0.135564,-0.0501 0.166738,-0.0501 0.05798,0 0.193332,0.24187 0.193332,0.34546 0,0.0316 0.03684,0.0805 0.08186,0.10863 0.052,0.0325 0.09248,0.1219 0.110956,0.24512 0.016,0.10669 0.0506,0.21685 0.07689,0.2448 0.02628,0.028 0.09194,0.14607 0.145893,0.26249 0.135522,0.29242 0.554004,0.90555 0.669895,0.98148 0.05256,0.0344 0.116548,0.12621 0.142198,0.20393 0.02565,0.0777 0.07378,0.16384 0.106951,0.19137 0.03317,0.0275 0.108953,0.15288 0.168406,0.27855 0.05945,0.12568 0.134078,0.2285 0.165828,0.2285 0.03176,0 0.06946,0.0306 0.08378,0.0679 0.01433,0.0373 0.05144,0.0581 0.08245,0.0462 0.104906,-0.0402 0.174464,0.0452 0.16129,0.19807 -0.0101,0.11726 0.04912,0.257 0.29243,0.69 0.167805,0.29863 0.356824,0.61916 0.420044,0.71229 0.06322,0.0931 0.209436,0.34078 0.32493,0.55033 0.269244,0.48851 0.289145,0.52589 0.358504,0.6733 0.03182,0.0676 0.119083,0.14856 0.193912,0.17985 0.149102,0.0623 0.271395,0.23165 0.187515,0.25961 -0.02662,0.009 -0.0484,0.0408 -0.0484,0.0709 0,0.0301 -0.03056,0.0802 -0.06791,0.11115 -0.03735,0.031 -0.08436,0.0996 -0.104457,0.1525 -0.05995,0.15767 -0.199475,0.0672 -0.309343,-0.20054 -0.05208,-0.12693 -0.144962,-0.31651 -0.206404,-0.42129 -0.06144,-0.10477 -0.189099,-0.34991 -0.283693,-0.54474 -0.09459,-0.19483 -0.226746,-0.42343 -0.29367,-0.508 -0.06692,-0.0846 -0.150153,-0.22043 -0.184955,-0.30192 -0.0348,-0.0815 -0.156129,-0.27147 -0.269617,-0.42218 -0.184861,-0.24549 -0.226102,-0.27739 -0.396172,-0.30643 -0.109283,-0.0187 -0.217013,-0.0678 -0.25389,-0.1159 -0.03761,-0.049 -0.133959,-0.0922 -0.233388,-0.10463 -0.09313,-0.0116 -0.248928,-0.0314 -0.34621,-0.044 -0.132377,-0.0171 -0.194988,-0.005 -0.24884,0.0491 -0.04916,0.0492 -0.144014,0.0726 -0.29933,0.0741 -0.125053,10e-4 -0.227415,0.0212 -0.22747,0.0445 0,0.0233 -0.119134,0.0769 -0.264626,0.11909 -0.430851,0.12503 -0.567021,0.20365 -0.636896,0.36774 -0.06458,0.15164 -0.117996,0.42526 -0.129286,0.6622 -0.0035,0.0732 -0.04089,0.17126 -0.08311,0.21797 -0.0863,0.0955 -0.133079,0.46367 -0.06876,0.54118 0.04537,0.0547 0.01031,0.18732 -0.0495,0.18732 -0.02079,0 -0.0378,0.0286 -0.0378,0.0635 0,0.0681 -0.03879,0.0785 -0.143552,0.0382 -0.116942,-0.0449 -0.121603,-0.27145 -0.01254,-0.60974 0.05629,-0.17463 0.104712,-0.39668 0.107599,-0.49345 0.0029,-0.0968 0.0245,-0.2266 0.04803,-0.28851 0.05993,-0.15763 0.05416,-0.36168 -0.01012,-0.35807 -0.02911,0.002 -0.09037,0.0176 -0.136144,0.0355 -0.05473,0.0214 -0.130823,0.004 -0.22225,-0.0495 -0.145178,-0.0857 -0.157582,-0.12021 -0.09705,-0.27022 z"
       id="path490" />
    <path
       style="fill:#000000;stroke-width:0.0423333"
       d="m 73.969433,180.4993 c 0.04681,-0.30323 0.137723,-0.63408 0.193146,-0.70288 0.0262,-0.0325 0.07676,-0.11627 0.112365,-0.18612 0.193548,-0.37969 0.646968,-0.64027 1.179991,-0.67812 0.174138,-0.0124 0.215862,0.003 0.359834,0.13095 0.08957,0.0797 0.186029,0.14496 0.214359,0.14497 0.02832,2e-5 0.119828,0.0684 0.203335,0.15187 0.146351,0.14635 0.272745,0.16955 0.275649,0.0506 0.02209,-0.90409 -0.01465,-1.88069 -0.109537,-2.91175 -0.09811,-1.06611 -0.02135,-2.23218 0.163635,-2.48596 0.06585,-0.0903 0.26993,0.0477 0.291906,0.19746 0.01029,0.0701 9.73e-4,0.14527 -0.0207,0.16694 -0.02168,0.0217 -0.04937,0.16977 -0.06153,0.32907 -0.01216,0.15932 -0.03989,0.31212 -0.06161,0.33956 -0.02463,0.0311 -0.02092,0.17454 0.0098,0.381 0.02714,0.18211 0.05679,0.57875 0.0659,0.88144 0.0091,0.30268 0.02593,0.72178 0.03738,0.93133 0.04553,0.83276 0.05687,1.02916 0.07837,1.35701 0.0123,0.18755 0.006,0.3675 -0.01402,0.39988 -0.02087,0.0338 -0.01887,0.0916 0.0047,0.13562 0.05582,0.1043 0.07964,0.87619 0.03821,1.23808 -0.02313,0.2021 -0.01731,0.34868 0.01861,0.46804 0.03281,0.10902 0.03867,0.21064 0.01573,0.27266 -0.02842,0.0768 -0.01815,0.11178 0.04605,0.15675 0.04544,0.0318 0.08869,0.10037 0.0961,0.15232 0.01648,0.11551 0.128194,0.14388 0.216984,0.0551 0.198204,-0.1982 0.220738,0.14254 0.02711,0.40985 -0.08753,0.12083 -0.121666,0.2085 -0.105796,0.27173 0.01397,0.0556 -0.0035,0.12024 -0.04313,0.15992 -0.07928,0.0793 -0.120616,0.0826 -0.22391,0.0181 -0.05755,-0.0359 -0.158487,-0.0365 -0.391007,-0.002 -0.324731,0.0478 -0.793682,0.0293 -0.858613,-0.034 -0.02068,-0.0201 -0.07126,-0.0149 -0.113945,0.0117 -0.164651,0.10282 -0.673731,-0.1 -0.957508,-0.38149 -0.170049,-0.16867 -0.478866,-0.54608 -0.478866,-0.58522 0,-0.0182 -0.02529,-0.0632 -0.0562,-0.1 -0.04678,-0.0556 -0.113838,-0.24269 -0.173503,-0.48398 -0.0066,-0.0267 0.0027,-0.14376 0.02068,-0.26018 z"
       id="path498" />
    <path
       style="fill:#000000;stroke-width:0.0423333"
       d="m 90.665751,157.83087 c 0.04298,-0.0705 0.149932,-0.1943 0.237672,-0.27516 0.185987,-0.17141 0.206726,-0.19379 0.320937,-0.34625 0.07472,-0.0998 0.328867,-0.2409 0.781097,-0.43384 0.06985,-0.0298 0.212725,-0.0937 0.3175,-0.14201 0.104775,-0.0483 0.290513,-0.10026 0.41275,-0.11544 0.204631,-0.0254 0.22225,-0.0207 0.22225,0.0589 0,0.0476 0.03334,0.10654 0.07408,0.13098 0.07056,0.0423 0.07056,0.0465 0,0.0889 -0.04075,0.0244 -0.07408,0.0714 -0.07408,0.10434 0,0.11343 -0.164545,0.15473 -0.524573,0.13166 -0.287008,-0.0184 -0.370747,-0.009 -0.473003,0.0531 -0.06834,0.0415 -0.174981,0.0881 -0.236974,0.10367 -0.105465,0.0264 -0.458783,0.4131 -0.458783,0.50214 0,0.0216 -0.02065,0.0265 -0.04589,0.0109 -0.02918,-0.018 -0.04074,0.008 -0.03175,0.0708 0.01049,0.0735 0.07809,0.12973 0.26162,0.21758 0.175192,0.0839 0.2405,0.13666 0.223579,0.18075 -0.01314,0.0343 -0.01021,0.0639 0.0065,0.0658 0.01673,0.002 0.073,0.008 0.125053,0.014 0.05205,0.006 0.129747,0.0423 0.172665,0.0811 0.04292,0.0388 0.0974,0.0706 0.12106,0.0706 0.02366,0 0.0783,0.039 0.121429,0.0866 0.04313,0.0477 0.136568,0.11448 0.207645,0.14851 0.07108,0.034 0.25958,0.18696 0.418889,0.33984 0.159313,0.15288 0.297815,0.26981 0.30778,0.25985 0.01,-0.01 0.02844,-0.15862 0.04104,-0.33034 0.0126,-0.17171 0.04853,-0.36976 0.07983,-0.44011 0.03131,-0.0703 0.06834,-0.17929 0.08231,-0.2421 0.04458,-0.20054 0.251756,-0.4939 0.399482,-0.56568 0.121963,-0.0593 0.138134,-0.0846 0.115795,-0.18133 -0.03988,-0.17274 -0.05608,-0.36101 -0.03586,-0.41683 0.01004,-0.0277 0.06395,-0.0803 0.119795,-0.11692 0.0859,-0.0563 0.14895,-0.0597 0.409194,-0.0222 0.438277,0.0632 0.484171,0.0757 0.560748,0.15226 0.03769,0.0377 0.128143,0.0732 0.201015,0.0789 0.09318,0.007 0.142943,0.0387 0.167699,0.10558 0.02579,0.0697 0.04927,0.0835 0.08781,0.0515 0.03688,-0.0306 0.07715,-0.0257 0.134671,0.0163 0.04513,0.033 0.124947,0.06 0.177377,0.06 0.05243,0 0.161582,0.0391 0.24257,0.0869 0.358656,0.21161 0.510874,0.65436 0.508643,1.47946 -0.0012,0.44448 -0.01719,0.57319 -0.09992,0.80433 -0.05417,0.15134 -0.124206,0.31479 -0.15563,0.36321 -0.03142,0.0484 -0.04786,0.0973 -0.03654,0.10864 0.01133,0.0113 -0.05415,0.0984 -0.1455,0.19345 -0.178155,0.18541 -0.59919,0.40481 -0.701497,0.36555 -0.03426,-0.0131 -0.0623,-0.002 -0.0623,0.0244 0,0.0347 -0.02313,0.036 -0.0821,0.004 -0.05374,-0.0288 -0.09104,-0.0295 -0.107979,-0.002 -0.01459,0.0236 -0.09421,0.0302 -0.182487,0.0152 -0.08613,-0.0147 -0.185178,-0.0307 -0.220103,-0.0356 -0.131556,-0.0185 -0.321167,-0.0769 -0.423334,-0.13038 -0.05821,-0.0305 -0.193662,-0.0667 -0.301007,-0.0806 -0.107344,-0.0139 -0.258682,-0.0721 -0.336308,-0.1294 -0.154966,-0.11433 -0.251685,-0.13364 -0.251685,-0.0503 0,0.10661 -0.311692,0.58129 -0.374671,0.5706 -0.03802,-0.006 -0.07681,0.0393 -0.09855,0.11636 -0.04313,0.15279 -0.128227,0.25518 -0.350029,0.42115 -0.149017,0.11151 -0.195635,0.12376 -0.437117,0.11484 -0.212979,-0.008 -0.306726,-0.0343 -0.441998,-0.12482 -0.09443,-0.0632 -0.22029,-0.1472 -0.279692,-0.18675 -0.235323,-0.15668 -0.364592,-0.71679 -0.176771,-0.7659 0.0618,-0.0162 0.07689,-0.0434 0.05557,-0.10019 -0.02578,-0.0687 -0.02076,-0.0711 0.04216,-0.0199 0.03928,0.032 0.07154,0.0986 0.07169,0.14816 0,0.0495 0.02908,0.14535 0.06432,0.2129 0.03523,0.0676 0.05288,0.15805 0.03922,0.20109 -0.01695,0.0534 -0.0038,0.0782 0.04152,0.0782 0.0365,0 0.06635,0.0167 0.06635,0.0372 0,0.0363 0.574887,0.14447 0.738442,0.13895 0.105143,-0.004 0.539555,-0.47469 0.678874,-0.73628 0.114169,-0.21436 0.142016,-0.52676 0.06501,-0.72931 -0.02292,-0.0603 -0.122936,-0.18916 -0.22225,-0.28637 -0.09931,-0.0972 -0.199623,-0.21432 -0.222906,-0.26022 -0.04762,-0.0939 -0.317517,-0.30203 -0.63677,-0.49106 -0.11739,-0.0695 -0.268592,-0.18394 -0.336004,-0.2543 -0.06741,-0.0704 -0.143836,-0.12793 -0.169833,-0.12793 -0.026,0 -0.142671,-0.0475 -0.259279,-0.10565 -0.116602,-0.0581 -0.267978,-0.10914 -0.336393,-0.11342 -0.114787,-0.007 -0.272766,-0.0987 -0.272398,-0.15791 0,-0.0139 0.03532,-0.0829 0.0783,-0.15333 z"
       id="path428" />
    <path
       style="fill:#000000;stroke-width:0.0423333"
       d="m -64.028346,21.169435 c 0.01174,-0.0291 0.03882,-0.05292 0.06016,-0.05292 0.0614,0 0.04515,0.111366 -0.02469,0.169333 -0.05122,0.04251 -0.06285,0.04147 -0.06016,-0.0054 0.0018,-0.03195 0.01295,-0.08191 0.0247,-0.111017 z"
       id="path400" />
    <path
       style="fill:#000000;stroke-width:0.0423333"
       d="m 220.88956,23.571852 c 0.0233,0 0.0423,0.01905 0.0423,0.04233 0,0.02328 -0.0191,0.04233 -0.0423,0.04233 -0.0233,0 -0.0423,-0.01905 -0.0423,-0.04233 0,-0.02328 0.019,-0.04233 0.0423,-0.04233 z"
       id="path580" />
    <path
       style="fill:#000000;stroke-width:0.0423333"
       d="m 220.88956,23.347919 c 0.0466,-0.01218 0.0847,-0.0071 0.0847,0.01129 0,0.01839 -0.0381,0.0434 -0.0847,0.05557 -0.0466,0.01218 -0.0847,0.0071 -0.0847,-0.01129 0,-0.01839 0.0381,-0.0434 0.0847,-0.05557 z"
       id="path578" />
    <path
       style="fill:#000000;stroke-width:0.0423333"
       d="m 220.78264,22.979185 c 0.011,0 0.0496,0.05715 0.0858,0.127 0.0553,0.107015 0.0562,0.127 0.006,0.127 -0.033,0 -0.0716,-0.03013 -0.0858,-0.06696 -0.0306,-0.07976 -0.0338,-0.187038 -0.006,-0.187038 z"
       id="path576" />
    <path
       style="fill:#000000;stroke-width:0.0423333"
       d="m 220.80504,22.661589 c 0.0234,-0.01444 0.0301,-0.07556 0.015,-0.135812 -0.0193,-0.07681 -0.013,-0.100591 0.021,-0.07957 0.0306,0.01893 0.0509,-0.006 0.055,-0.06777 0.004,-0.05376 0.0193,0.02608 0.0351,0.177418 0.0349,0.335393 0.001,0.43499 -0.099,0.292072 -0.0806,-0.115056 -0.0857,-0.15009 -0.027,-0.186335 z"
       id="path574" />
    <path
       style="fill:#000000;stroke-width:0.0423333"
       d="m 208.1077,20.439185 c 0.0882,-0.477478 0.11991,-0.442875 0.097,0.105834 -0.0126,0.302683 -0.0318,0.559306 -0.0425,0.570274 -0.0108,0.01097 -0.0373,-0.0081 -0.0589,-0.04233 -0.0467,-0.07388 -0.0447,-0.367851 0.004,-0.633774 z"
       id="path572" />
    <path
       style="fill:#000000;stroke-width:0.0423333"
       d="m 208.0824,22.48986 c 0.0342,-0.0452 0.0628,-0.05992 0.0635,-0.03272 7.4e-4,0.0272 0.0129,0.07959 0.027,0.116416 0.0184,0.048 4.4e-4,0.06696 -0.0635,0.06696 -0.10512,0 -0.112,-0.03834 -0.027,-0.150659 z"
       id="path570" />
    <path
       style="fill:#000000;stroke-width:0.0423333"
       d="m 182.71605,23.176572 c 0.0284,0.01752 0.0359,0.0029 0.0199,-0.03877 -0.0148,-0.03853 0,-0.07685 0.0351,-0.09028 0.043,-0.0165 0.0608,0.008 0.0608,0.08366 0,0.05885 -0.0176,0.09612 -0.0391,0.08282 -0.0215,-0.0133 -0.0461,0.0094 -0.0546,0.05042 -0.0127,0.06116 -0.0202,0.05743 -0.0416,-0.02071 -0.0171,-0.06252 -0.0104,-0.08562 0.0195,-0.06714 z"
       id="path568" />
    <path
       style="fill:#000000;stroke-width:0.0423333"
       d="m 144.68957,20.714352 c 0.0233,-0.01439 0.0423,-0.006 0.0423,0.01867 0,0.02466 -0.019,0.04483 -0.0423,0.04483 -0.0233,0 -0.0423,-0.0084 -0.0423,-0.01867 0,-0.01027 0.019,-0.03044 0.0423,-0.04483 z"
       id="path566" />
    <path
       style="fill:#000000;stroke-width:0.0423333"
       d="m 144.62457,21.407339 c 0.0108,-0.01079 0.0232,-0.137792 0.0275,-0.282222 0.0108,-0.358234 0.0799,-0.334153 0.0799,0.02783 0,0.372326 -0.0432,0.687683 -0.0903,0.658601 -0.0377,-0.0233 -0.0523,-0.368983 -0.0171,-0.404206 z"
       id="path564" />
    <path
       style="fill:#000000;stroke-width:0.0423333"
       d="m 144.59157,22.844248 c 0.0122,0.03056 0.0107,0.06707 -0.003,0.08114 -0.0141,0.01407 -0.0241,-0.01094 -0.0222,-0.05556 0.002,-0.04932 0.0121,-0.05935 0.0256,-0.02558 z"
       id="path562" />
    <path
       style="fill:#000000;stroke-width:0.0423333"
       d="m 144.61127,23.095553 c 0.0595,0.01556 0.0708,0.03515 0.0389,0.0671 -0.0248,0.02482 -0.0451,0.09212 -0.0451,0.149554 0,0.141743 -0.0253,0.102134 -0.0541,-0.08474 -0.0212,-0.137897 -0.015,-0.151602 0.0603,-0.131915 z"
       id="path560" />
    <path
       style="fill:#000000;stroke-width:0.0423333"
       d="m 131.94501,22.556128 c 0.0637,-0.08226 0.0864,-0.09161 0.10286,-0.04233 0.0358,0.107368 0.0587,0.988372 0.0285,1.10039 l -0.0285,0.105834 -0.032,-0.124793 c -0.0219,-0.08546 -0.0426,-0.10769 -0.0656,-0.07053 -0.0563,0.09113 -0.0775,-0.02733 -0.0825,-0.462121 -0.004,-0.336051 0.009,-0.417958 0.0772,-0.506444 z"
       id="path558" />
    <path
       style="fill:#000000;stroke-width:0.0423333"
       d="m 131.90211,21.455185 0.0283,-0.148166 0.0278,0.127 c 0.0153,0.06985 0.0385,0.303212 0.0516,0.518583 0.0206,0.339203 0.0148,0.391583 -0.0434,0.391583 -0.0469,0 -0.0593,-0.02447 -0.0414,-0.0811 0.0142,-0.04461 0.006,-0.09336 -0.0183,-0.108331 -0.0476,-0.02943 -0.0505,-0.459217 -0.005,-0.699565 z"
       id="path556" />
    <path
       style="fill:#000000;stroke-width:0.0423333"
       d="m 119.36964,21.817949 c 0.0207,-0.01278 0.0456,0.03173 0.0555,0.0989 0.0245,0.166827 -0.009,0.427336 -0.0554,0.427336 -0.0492,0 -0.0493,-0.495861 0,-0.526236 z"
       id="path554" />
    <path
       style="fill:#000000;stroke-width:0.0423333"
       d="m 119.37664,21.243519 c 0.0225,-0.07507 0.0329,-0.0282 0.0359,0.161248 0.002,0.14859 -0.0127,0.256635 -0.0339,0.243535 -0.0454,-0.02806 -0.0466,-0.256293 -0.002,-0.404783 z"
       id="path552" />
    <path
       style="fill:#000000;stroke-width:0.0423333"
       d="m 119.38464,23.325491 c 0.0838,0.0119 0.0952,0.03816 0.0952,0.218615 0,0.112798 -0.0143,0.213935 -0.0317,0.224748 -0.0308,0.01904 -0.049,-0.07823 -0.0349,-0.186419 0.004,-0.0291 -0.0124,-0.05292 -0.036,-0.05292 -0.0236,0 -0.0319,-0.02858 -0.0185,-0.0635 0.0134,-0.03492 0.003,-0.0635 -0.0225,-0.0635 -0.0258,0 -0.0469,-0.02038 -0.0469,-0.04528 0,-0.0249 0.0429,-0.03919 0.0953,-0.03175 z"
       id="path550" />
    <path
       style="fill:#000000;stroke-width:0.0423333"
       d="m 119.33234,22.598185 c 0.073,-0.111203 0.13271,0.03867 0.10541,0.264584 -0.0175,0.144417 -0.01,0.201083 0.028,0.201083 0.0408,0 0.0411,0.01119 0.001,0.0511 -0.0399,0.03992 -0.0673,0.03397 -0.12488,-0.02713 -0.0406,-0.04303 -0.0523,-0.06633 -0.026,-0.05179 0.079,0.04375 0.11529,-0.237602 0.0379,-0.29417 -0.0755,-0.05522 -0.0763,-0.06029 -0.0215,-0.14368 z"
       id="path548" />
    <path
       style="fill:#000000;stroke-width:0.0423333"
       d="m 106.58226,22.725185 c 0.0194,0 0.0263,-0.107496 0.0154,-0.238881 -0.0132,-0.159386 -0.005,-0.229811 0.0243,-0.211624 0.0243,0.01499 0.0344,0.06425 0.0226,0.109465 -0.0118,0.04521 0.007,0.138878 0.0413,0.208141 0.0451,0.09034 0.0499,0.138881 0.017,0.171749 -0.0575,0.05754 -0.15588,0.05974 -0.15588,0.0035 0,-0.02328 0.0159,-0.04233 0.0352,-0.04233 z"
       id="path546" />
    <path
       style="fill:#000000;stroke-width:0.0423333"
       d="m 106.56336,21.920852 c 0.009,0 0.0247,0.05715 0.035,0.127 0.0102,0.06985 0.003,0.127 -0.0164,0.127 -0.0192,0 -0.035,-0.05715 -0.035,-0.127 0,-0.06985 0.007,-0.127 0.0164,-0.127 z"
       id="path544" />
    <path
       style="fill:#000000;stroke-width:0.0423333"
       d="m 106.49216,22.989769 c 0.0145,-0.07521 0.047,-0.09525 0.15436,-0.09525 0.13459,0 0.13612,0.0023 0.14597,0.22225 0.0126,0.2818 -0.0246,0.455083 -0.0976,0.455083 -0.0719,0 -0.21134,-0.268131 -0.15002,-0.28857 0.0257,-0.0086 0.0177,-0.04056 -0.0194,-0.07769 -0.0347,-0.03472 -0.0605,-0.07605 -0.0573,-0.09185 0.003,-0.0158 0.014,-0.07159 0.0241,-0.123976 z"
       id="path542" />
    <path
       style="fill:#000000;stroke-width:0.0423333"
       d="m 106.51936,21.130046 c 0.0737,-0.267358 0.12076,-0.273654 0.0968,-0.01294 -0.0118,0.127734 -0.0226,0.332257 -0.0241,0.454494 -0.001,0.122238 -0.0196,0.22225 -0.0401,0.22225 -0.0536,0 -0.0927,-0.177725 -0.0507,-0.23063 0.0194,-0.02449 0.02,-0.08264 0.001,-0.129203 -0.0416,-0.103244 -0.0425,-0.0882 0.017,-0.303973 z"
       id="path540" />
    <path
       style="fill:#000000;stroke-width:0.0423333"
       d="m 93.840607,22.957313 c 0.01399,-0.01399 0.01968,-0.35364 0.01264,-0.754786 -0.01263,-0.720458 0.05168,-1.834341 0.120133,-2.080842 l 0.03527,-0.127 0.01068,0.148167 c 0.01501,0.208281 0.01981,0.318321 0.08128,1.862667 0.05646,1.418274 0.03838,1.815968 -0.08432,1.854378 -0.03493,0.01093 -0.04938,0.0047 -0.03212,-0.01377 0.01726,-0.01851 0.01157,-0.05752 -0.01264,-0.08669 -0.0305,-0.03675 -0.03039,-0.06147 4.23e-4,-0.08048 0.0733,-0.04534 0.05008,-0.107104 -0.04033,-0.107104 -0.04657,0 -0.08593,-0.01429 -0.08747,-0.03175 -0.02145,-0.242402 -0.02339,-0.562941 -0.0036,-0.582789 z"
       id="path538" />
    <path
       style="fill:#000000;stroke-width:0.0423333"
       d="m 112.34301,181.20605 c 0.1988,-0.0153 0.33359,-0.14305 0.3983,-0.37741 0.0528,-0.19104 0.002,-0.26943 -0.12467,-0.19064 -0.0457,0.0285 -0.1214,0.0519 -0.16828,0.0519 -0.0469,0 -0.0852,0.0182 -0.0852,0.0405 0,0.0222 -0.0483,0.11165 -0.10736,0.19866 -0.14847,0.21878 -0.12496,0.29344 0.0873,0.27708 z"
       id="path536" />
    <path
       style="fill:#000000;stroke-width:0.0423333"
       d="m 111.64703,181.14455 c 0.0238,-0.0409 0.0321,-0.0927 0.0183,-0.11496 -0.0867,-0.14034 0.40019,-0.68662 0.74426,-0.835 0.16226,-0.07 0.55758,-0.10677 0.62995,-0.0586 0.10338,0.0687 0.11125,0.61341 0.0126,0.87134 -0.13214,0.34553 -0.29419,0.5715 -0.40984,0.5715 -0.0554,0 -0.11173,0.0286 -0.12513,0.0635 -0.0616,0.16058 -0.65364,0.005 -0.82904,-0.21833 -0.0972,-0.1235 -0.10415,-0.17111 -0.0411,-0.27942 z"
       id="path534" />
    <path
       style="fill:#000000;stroke-width:0.0423333"
       d="m 107.49074,180.72155 c 0.071,-0.11059 0.15878,-0.20108 0.19495,-0.20108 0.0362,0 0.077,-0.0293 0.0907,-0.0651 0.0374,-0.0975 0.25233,-0.19345 0.47402,-0.21165 0.16935,-0.0139 0.21727,0.001 0.343,0.10876 0.1392,0.11898 0.14236,0.1277 0.0663,0.18327 -0.0651,0.0476 -0.0785,0.10725 -0.0725,0.32447 0.007,0.26077 0.004,0.27018 -0.18277,0.46935 -0.10456,0.11178 -0.19011,0.22021 -0.19011,0.24095 0,0.0208 -0.0781,0.073 -0.17365,0.11603 -0.15483,0.0698 -0.18522,0.0717 -0.28032,0.017 -0.17091,-0.0982 -0.35762,-0.39209 -0.3794,-0.59718 -0.0162,-0.15233 0.003,-0.21819 0.10966,-0.38487 z"
       id="path532" />
    <path
       style="fill:#000000;stroke-width:0.0423333"
       d="m 104.67099,181.41387 c 0.0543,-0.0543 0.0123,-0.10944 -0.0528,-0.0692 -0.0252,0.0156 -0.0339,0.0477 -0.0192,0.0714 0.0179,0.0289 0.0416,0.0282 0.072,-0.002 z"
       id="path530" />
    <path
       style="fill:#000000;stroke-width:0.0423333"
       d="m 103.90547,181.10592 c 0.0874,-0.10201 0.23927,-0.1605 0.47782,-0.18401 0.0466,-0.005 0.1982,-0.0396 0.33698,-0.0779 0.36894,-0.10171 0.45423,-0.0921 0.54143,0.0611 0.0949,0.16673 0.0932,0.22643 -0.0127,0.4452 -0.0892,0.18434 -0.32379,0.39777 -0.43714,0.39777 -0.0352,0 -0.0888,0.0333 -0.11924,0.0741 -0.0304,0.0408 -0.12976,0.12975 -0.22075,0.19775 l -0.16542,0.12364 -0.0989,-0.12367 c -0.0544,-0.068 -0.099,-0.14787 -0.0992,-0.17748 0,-0.0296 -0.0457,-0.0745 -0.10125,-0.0999 -0.0636,-0.029 -0.11056,-0.0953 -0.12672,-0.17901 -0.0141,-0.0731 -0.036,-0.1806 -0.0487,-0.23881 -0.0159,-0.0731 0.007,-0.14082 0.0738,-0.21888 z"
       id="path528" />
    <path
       style="fill:#000000;stroke-width:0.0423333"
       d="m 81.234247,23.275519 c 0.02184,0 0.0397,0.01952 0.0397,0.04338 0,0.02386 0.04494,0.06047 0.09988,0.08136 0.1135,0.04315 0.166878,0.224227 0.126136,0.427917 -0.01796,0.08982 -0.04456,0.122147 -0.08707,0.105834 -0.03366,-0.01292 -0.0787,-0.02349 -0.100076,-0.02349 -0.05911,0 -0.04642,-0.201917 0.01405,-0.223499 0.03753,-0.01339 0.02734,-0.04827 -0.03505,-0.119944 -0.09077,-0.104273 -0.127746,-0.291557 -0.05757,-0.291557 z"
       id="path526" />
    <path
       style="fill:#000000;stroke-width:0.0423333"
       d="m 81.177887,21.561019 c 0.03215,-0.417985 0.110604,-0.9525 0.139805,-0.9525 0.06481,0 0.08832,-0.247315 0.04043,-0.425176 -0.03255,-0.120878 -0.03414,-0.192126 -0.0049,-0.221333 0.07046,-0.07045 0.08668,0.09712 0.107688,1.112175 0.01084,0.523875 0.03321,1.230607 0.0497,1.570517 0.03184,0.65592 0.0091,0.749718 -0.145673,0.601226 -0.152099,-0.145915 -0.174739,-0.24441 -0.150321,-0.65396 0.01299,-0.217772 0.0078,-0.510249 -0.01143,-0.649949 -0.01927,-0.1397 -0.03065,-0.31115 -0.02527,-0.381 z"
       id="path524" />
    <path
       style="fill:#000000;stroke-width:0.0423333"
       d="m 81.146957,23.063852 c 0.02328,0 0.04233,0.01905 0.04233,0.04233 0,0.02328 -0.01905,0.04233 -0.04233,0.04233 -0.02328,0 -0.04233,-0.01905 -0.04233,-0.04233 0,-0.02328 0.01905,-0.04233 0.04233,-0.04233 z"
       id="path522" />
    <path
       style="fill:#000000;stroke-width:0.0423333"
       d="m 97.331939,178.38264 c 0.01589,-0.0931 0.05637,-0.219 0.08995,-0.2797 0.07273,-0.13146 0.560083,-0.58814 0.627639,-0.58814 0.02599,0 0.04726,-0.0195 0.04726,-0.0432 0,-0.0238 0.05239,-0.0657 0.116417,-0.0932 0.06403,-0.0275 0.165794,-0.0834 0.226145,-0.12421 0.209224,-0.14161 1.22914,-0.23077 1.427213,-0.12477 0.04803,0.0257 0.139817,0.0467 0.203977,0.0467 0.23372,0 0.6079,0.1005 0.62968,0.16913 0.0118,0.0372 0.10713,0.10293 0.21185,0.14612 0.10471,0.0432 0.1905,0.0994 0.19065,0.12504 0,0.0256 0.0573,0.079 0.127,0.11866 0.0697,0.0397 0.12673,0.10157 0.12673,0.13758 0,0.036 0.0333,0.0656 0.0741,0.0657 0.0407,0 0.11159,0.0621 0.15744,0.13759 0.12922,0.2129 0.23415,0.42334 0.23415,0.46962 0,0.0231 0.0333,0.0789 0.0741,0.1239 0.045,0.0497 0.0769,0.15909 0.0812,0.2785 0.004,0.10815 0.0364,0.32998 0.0722,0.49296 0.0358,0.16298 0.0779,0.46007 0.0937,0.6602 0.0278,0.35299 -0.004,0.5466 -0.14983,0.90613 -0.0189,0.0466 -0.0358,0.14182 -0.0377,0.21167 -0.002,0.0699 -0.0149,0.2257 -0.0289,0.34633 -0.0223,0.19264 -0.0148,0.22501 0.0619,0.26607 0.052,0.0278 0.0874,0.089 0.0874,0.15109 0,0.11371 -0.0399,0.13221 -0.11753,0.0545 -0.0682,-0.0682 -0.22114,0.0713 -0.22114,0.20168 0,0.12792 -0.14863,0.17631 -0.25258,0.0822 -0.0878,-0.0794 -0.13796,-0.27663 -0.0865,-0.33995 0.0189,-0.0233 0.0574,-0.19473 0.0855,-0.381 0.0281,-0.18627 0.0824,-0.48154 0.1206,-0.65617 0.1063,-0.48573 0.0917,-1.27234 -0.0332,-1.78821 -0.0946,-0.39057 -0.11424,-0.42919 -0.37215,-0.73025 -0.14977,-0.17483 -0.28517,-0.31796 -0.3009,-0.31806 -0.0157,0 -0.0895,-0.0573 -0.16389,-0.127 -0.0744,-0.0697 -0.15294,-0.12681 -0.17453,-0.12681 -0.0216,0 -0.12298,-0.037 -0.22533,-0.0823 -0.10234,-0.0453 -0.28098,-0.0873 -0.396963,-0.0934 -0.115985,-0.006 -0.235915,-0.0296 -0.266509,-0.0521 -0.08002,-0.059 -0.629696,-0.0753 -0.819167,-0.0243 -0.08852,0.0238 -0.180979,0.0808 -0.205478,0.12656 -0.0245,0.0458 -0.07773,0.0832 -0.118296,0.0832 -0.112302,0 -0.455875,0.33368 -0.588446,0.5715 l -0.117987,0.21166 0.01276,0.80434 c 0.01218,0.76803 0.08191,1.4214 0.182486,1.70991 0.04561,0.13083 0.02159,0.40879 -0.03813,0.44139 -0.05914,0.0323 -0.296705,-0.0571 -0.321157,-0.12079 -0.0137,-0.0357 -0.07376,-0.30715 -0.133469,-0.60321 -0.05971,-0.29607 -0.136258,-0.63225 -0.170108,-0.74707 -0.06479,-0.21977 -0.0796,-1.35893 -0.02206,-1.69623 z"
       id="path520" />
    <path
       style="fill:#000000;stroke-width:0.0423333"
       d="m 92.388075,179.94897 c 0.02307,-0.0931 0.07698,-0.35983 0.119803,-0.59267 0.109118,-0.5933 0.238866,-1.01945 0.393116,-1.29116 0.135581,-0.23883 0.813113,-0.93134 0.911199,-0.93134 0.03008,0 0.111786,-0.0422 0.181568,-0.0938 0.09065,-0.067 0.178461,-0.0916 0.307522,-0.0859 0.213585,0.009 0.558445,0.15194 0.5945,0.2459 0.01397,0.0364 0.04544,0.0538 0.06993,0.0387 0.06348,-0.0392 0.502984,0.30395 0.550998,0.43024 0.0221,0.0581 0.08788,0.16822 0.146173,0.24465 0.139679,0.18313 0.107603,0.34509 -0.110532,0.55809 -0.09069,0.0886 -0.164893,0.1831 -0.164893,0.21008 0,0.0976 -0.407086,0.49551 -0.613833,0.59994 -0.116417,0.0588 -0.221611,0.12233 -0.233769,0.14117 -0.02035,0.0315 -0.607056,0.11731 -0.766945,0.11212 -0.03816,-0.001 -0.139505,0.031 -0.225213,0.0717 -0.08571,0.0407 -0.183871,0.0632 -0.21814,0.05 -0.07775,-0.0298 -0.180903,-0.26749 -0.15654,-0.36066 0.02683,-0.1026 0.231813,-0.17734 0.48677,-0.17748 0.698868,-4.3e-4 1.065759,-0.1674 1.384241,-0.63007 0.311738,-0.45287 0.264308,-0.61904 -0.263678,-0.92383 -0.341096,-0.1969 -0.775038,-0.10018 -1.102567,0.24575 -0.218656,0.23095 -0.491139,0.72696 -0.491452,0.89462 0,0.0609 -0.03831,0.15914 -0.08487,0.21835 -0.04657,0.0592 -0.08467,0.14123 -0.08467,0.18229 0,0.0411 -0.02823,0.10585 -0.06273,0.14397 -0.04394,0.0486 -0.0653,0.18269 -0.0713,0.44784 -0.0091,0.40308 0.04045,0.60809 0.20811,0.86067 0.05239,0.0789 0.09525,0.16325 0.09525,0.18739 0,0.15137 0.608279,0.87504 0.839546,0.99881 0.262238,0.14035 1.308494,0.22385 1.65812,0.13234 0.08149,-0.0213 0.233892,-0.0612 0.338667,-0.0885 0.104775,-0.0274 0.230894,-0.0971 0.280268,-0.15511 l 0.08976,-0.10538 0.06899,0.0985 c 0.07206,0.10288 0.08462,0.20756 0.04335,0.36137 -0.02888,0.10766 -0.380496,0.26862 -0.586795,0.26862 -0.07451,0 -0.147629,0.0122 -0.162496,0.027 -0.01487,0.0149 -0.127584,0.0324 -0.250474,0.039 -0.122893,0.007 -0.300986,0.04 -0.395761,0.0742 -0.265414,0.0959 -0.924836,0.019 -1.255197,-0.14651 -0.233015,-0.11671 -0.709388,-0.61145 -0.846065,-0.8787 -0.06566,-0.1284 -0.163157,-0.28185 -0.216654,-0.34101 -0.199229,-0.22031 -0.403491,-0.57798 -0.424074,-0.74255 -0.01165,-0.0931 -0.0023,-0.24554 0.02076,-0.33867 z"
       id="path518" />
    <path
       style="fill:#000000;stroke-width:0.0423333"
       d="m 68.997289,17.104674 c 0.08149,0 0.11483,0.0087 0.07408,0.01936 -0.04075,0.01065 -0.107421,0.01065 -0.148167,0 -0.04075,-0.01065 -0.0074,-0.01936 0.07408,-0.01936 z"
       id="path516" />
    <path
       style="fill:#000000;stroke-width:0.0423333"
       d="m 68.615625,20.630095 c 0.04241,-0.02621 0.07268,0.341806 0.0421,0.511877 -0.01214,0.06749 -0.03497,0.102302 -0.05075,0.07735 -0.04063,-0.06426 -0.03331,-0.563299 0.0086,-0.58923 z"
       id="path514" />
    <path
       style="fill:#000000;stroke-width:0.0423333"
       d="m 68.514812,22.619352 c 0.0465,-0.328053 0.06608,-0.402167 0.106248,-0.402167 0.024,0 0.0313,0.0377 0.0164,0.08467 -0.01875,0.05907 -0.0076,0.08467 0.03685,0.08467 0.03504,0 0.06292,0.03334 0.06193,0.07408 -9.74e-4,0.04075 0.01936,0.179016 0.04522,0.307268 0.05,0.24802 0.04239,0.961888 -0.01118,1.048558 -0.05866,0.09491 -0.09949,0.05364 -0.168677,-0.170493 -0.07044,-0.228176 -0.11883,-0.800554 -0.08679,-1.026583 z"
       id="path512" />
    <path
       style="fill:#000000;stroke-width:0.0423333"
       d="m 88.740165,178.72042 c 0.01575,-0.0703 0.05917,-0.17511 0.0965,-0.23283 0.05684,-0.0879 0.07173,-0.30794 0.09163,-1.35379 0.05902,-3.1022 0.04476,-2.82855 0.153378,-2.94416 0.114067,-0.12142 0.195918,-0.13001 0.331834,-0.0348 0.09231,0.0647 0.09689,0.0881 0.07239,0.37042 -0.03475,0.40028 -0.04538,0.46428 -0.08877,0.5345 -0.02023,0.0327 -0.04285,0.20321 -0.05029,0.37886 -0.0074,0.17565 -0.03122,0.44319 -0.05286,0.59453 -0.04145,0.2899 -0.05607,1.78886 -0.01867,1.91558 0.02779,0.0942 0.0806,0.0935 0.221285,-0.003 0.227703,-0.156 0.436889,-0.18504 0.797006,-0.11066 0.273994,0.0566 0.362534,0.0968 0.521212,0.23639 0.105135,0.0925 0.210202,0.18361 0.233485,0.20242 0.02328,0.0188 0.112552,0.1198 0.19837,0.22442 0.08582,0.10462 0.228697,0.22757 0.3175,0.27322 0.4575,0.23518 0.487172,0.26971 0.50242,0.5847 0.0045,0.0931 0.02285,0.32649 0.04076,0.51858 0.02355,0.25271 0.01918,0.34925 -0.01583,0.34925 -0.02661,0 -0.04838,0.0357 -0.04838,0.0793 0,0.0436 -0.02838,0.1598 -0.06307,0.25812 -0.09799,0.27772 0.0187,0.71011 0.215892,0.79996 0.105541,0.0481 0.140161,0.17422 0.04826,0.17585 -0.0291,5.1e-4 -0.100542,0.0382 -0.15875,0.0837 -0.145204,0.11358 -0.550334,0.10461 -0.550334,-0.0122 0,-0.0245 -0.03088,-0.0788 -0.06863,-0.12048 -0.06293,-0.0695 -0.0631,-0.0979 -0.002,-0.342 0.139924,-0.55906 0.171022,-1.57226 0.0535,-1.74327 -0.13051,-0.1899 -0.732028,-0.78407 -0.89303,-0.88211 -0.35665,-0.21718 -0.645055,-0.2792 -0.767576,-0.16506 -0.04807,0.0448 -0.11419,0.0881 -0.146935,0.0964 -0.03275,0.008 -0.151396,0.11371 -0.26366,0.23443 l -0.204119,0.21951 0.0038,0.9126 c 0.0031,0.76018 0.01559,0.93739 0.07457,1.06107 0.03894,0.0817 0.08493,0.14848 0.102197,0.14848 0.03317,0 0.164592,0.24181 0.164592,0.30284 0,0.0197 -0.06287,0.0358 -0.1397,0.0358 -0.155664,0 -0.2413,0.0631 -0.2413,0.1778 0,0.0419 -0.01749,0.0762 -0.03887,0.0762 -0.02138,0 -0.06673,0.0107 -0.100779,0.0238 -0.0397,0.0152 -0.09444,-0.0289 -0.152603,-0.12299 -0.08093,-0.13095 -0.08717,-0.18021 -0.05797,-0.45767 0.018,-0.17101 0.02893,-0.6786 0.02428,-1.12797 -0.0074,-0.71753 -0.01824,-0.83354 -0.08888,-0.9525 -0.05674,-0.0956 -0.072,-0.17314 -0.0518,-0.26335 z"
       id="path510" />
    <path
       style="fill:#000000;stroke-width:0.0423333"
       d="m 83.911231,177.6352 c 0.102205,-0.12993 0.235703,-0.16316 0.477723,-0.1189 0.107903,0.0197 0.333938,0.009 0.581584,-0.0288 0.222796,-0.0336 0.437337,-0.0528 0.476762,-0.0426 0.165909,0.0427 0.19696,-0.0846 0.204868,-0.84018 0.0041,-0.39582 0.02354,-0.90064 0.04311,-1.12183 0.01957,-0.2212 0.0453,-0.62781 0.05718,-0.90359 0.01239,-0.28762 0.04265,-0.52679 0.07098,-0.56092 0.07372,-0.0888 0.155694,-0.0723 0.23404,0.0473 0.07423,0.11329 0.07122,0.24398 -0.02534,1.0997 -0.02365,0.20955 -0.05286,0.59055 -0.06492,0.84666 -0.01206,0.25612 -0.04119,0.61043 -0.06473,0.78736 -0.04748,0.35683 -0.0078,0.54262 0.117662,0.5514 0.158673,0.0111 0.723718,-0.0263 0.964133,-0.0639 0.06985,-0.0109 0.265112,-0.0335 0.433917,-0.0502 l 0.306916,-0.0304 v 0.11238 c 0,0.0618 0.04105,0.1997 0.09122,0.30644 0.103823,0.22088 0.06137,0.29441 -0.12832,0.22228 -0.14815,-0.0563 -0.664227,-0.0614 -0.73257,-0.007 -0.03071,0.0244 -0.103459,0.0384 -0.161667,0.0312 -0.597201,-0.074 -0.695939,-0.0702 -0.846667,0.0328 -0.124854,0.0853 -0.148992,0.12759 -0.15342,0.26869 -0.0094,0.29831 -0.06783,1.14048 -0.08075,1.16293 -0.0069,0.012 0.0055,0.25964 0.02748,0.55033 0.04106,0.54222 0.162518,1.05299 0.271987,1.14385 0.09064,0.0752 0.07815,0.21017 -0.01946,0.21017 -0.0572,0 -0.102649,0.0562 -0.153919,0.1905 -0.04001,0.10477 -0.08589,0.1905 -0.101952,0.1905 -0.01606,0 -0.06909,-0.0429 -0.117843,-0.0953 -0.07661,-0.0823 -0.09415,-0.17812 -0.129282,-0.70596 -0.02236,-0.33589 -0.02529,-0.66424 -0.0065,-0.72968 0.02155,-0.0752 0.01735,-0.12933 -0.0114,-0.1471 -0.04261,-0.0263 -0.03184,-0.56901 0.03216,-1.61998 0.0105,-0.17241 0.0018,-0.33433 -0.01938,-0.35983 -0.02394,-0.0289 -0.200927,-0.0439 -0.468817,-0.04 -0.373138,0.006 -0.442887,0.0182 -0.524594,0.0949 -0.118733,0.11154 -0.44213,0.16042 -0.541871,0.0819 -0.119283,-0.0939 -0.139277,-0.33663 -0.0383,-0.465 z"
       id="path508" />
    <path
       style="fill:#000000;stroke-width:0.0423333"
       d="m 56.299405,17.099491 0.230717,0.0046 -0.189035,0.03704 c -0.1188,0.02328 -0.204521,0.02156 -0.230717,-0.0046 -0.02735,-0.02736 0.03763,-0.04009 0.189035,-0.03704 z"
       id="path506" />
    <path
       style="fill:#000000;stroke-width:0.0423333"
       d="m 55.706459,22.030312 c 0.02029,-0.06785 0.02802,-0.137722 0.01719,-0.15526 -0.01084,-0.01754 0.0017,-0.171571 0.02792,-0.342294 0.0262,-0.170723 0.05295,-0.453281 0.05944,-0.627906 0.01486,-0.39964 0.08403,-0.989706 0.123495,-1.053564 0.01648,-0.02667 0.04586,-0.03866 0.06528,-0.02666 0.04556,0.02816 0.08612,3.66296 0.04486,4.019894 -0.01114,0.09634 -0.01827,0.0992 -0.105283,0.04218 -0.05134,-0.03364 -0.106104,-0.04839 -0.121708,-0.03279 -0.0156,0.0156 -0.02983,-0.0081 -0.03161,-0.05277 -0.0018,-0.04463 -0.01415,-0.119239 -0.02749,-0.165806 -0.01334,-0.04657 -0.02311,-0.175154 -0.02173,-0.28575 0.0095,-0.757987 0.005,-0.876571 -0.03406,-0.900721 -0.04893,-0.03024 -0.04701,-0.24908 0.0037,-0.418569 z"
       id="path504" />
    <path
       style="fill:#000000;stroke-width:0.0423333"
       d="m 76.807159,181.81413 c 0.0608,0.0376 0.249962,-0.0647 0.249962,-0.13516 0,-0.0302 -0.03606,-0.0742 -0.08013,-0.0977 -0.06383,-0.0342 -0.09351,-0.0237 -0.145944,0.0514 -0.08,0.11463 -0.08392,0.14437 -0.02389,0.18147 z"
       id="path502" />
    <path
       style="fill:#ffffff;stroke-width:0.0423333"
       d="m 74.47223,180.8068 c 0.02188,0.0404 0.05045,0.12442 0.06349,0.18666 0.02821,0.13463 0.219566,0.37368 0.299119,0.37368 0.0309,0 0.08096,0.056 0.111247,0.12439 0.07657,0.17297 0.27231,0.25805 0.81987,0.35633 0.263919,0.0474 0.365769,0.0527 0.61954,0.0327 0.08014,-0.006 0.07502,-0.1993 -0.02968,-1.11911 -0.06917,-0.60764 -0.162373,-0.85002 -0.410955,-1.06865 -0.269646,-0.23716 -0.329832,-0.26135 -0.623409,-0.25053 -0.503784,0.0186 -0.534827,0.0352 -0.698703,0.37467 -0.103916,0.21525 -0.149589,0.37389 -0.159881,0.55533 -0.0079,0.1397 -0.01801,0.27808 -0.02241,0.3075 -0.0044,0.0294 0.0099,0.0866 0.03177,0.127 z"
       id="path500" />
    <path
       style="fill:#000000;stroke-width:0.0423333"
       d="m 69.554833,179.29421 c 0.0097,-0.0574 0.05381,-0.15049 0.0981,-0.20679 0.04429,-0.0563 0.08052,-0.12432 0.08052,-0.15117 0,-0.0268 0.09525,-0.14261 0.211666,-0.25728 0.116417,-0.11466 0.211667,-0.23146 0.211667,-0.25954 0,-0.0617 0.270442,-0.23542 0.347366,-0.22308 0.03014,0.005 0.125624,-0.0227 0.212192,-0.0612 0.08656,-0.0385 0.214029,-0.07 0.283252,-0.07 0.06922,0 0.135839,-0.0162 0.14804,-0.0359 0.03664,-0.0593 0.78207,-0.0968 0.880161,-0.0443 0.04762,0.0255 0.155706,0.0459 0.240199,0.0454 0.08449,-5.1e-4 0.192185,0.0238 0.239315,0.054 0.04713,0.0302 0.18536,0.0686 0.307179,0.0853 0.328943,0.0452 0.393679,0.11674 0.424281,0.4686 0.04025,0.46273 0.03047,1.05777 -0.0257,1.56468 -0.08757,0.79019 -0.08873,0.82513 -0.03219,0.96485 0.110164,0.27219 0.11789,0.36865 0.02954,0.36865 -0.05056,0 -0.106884,0.0553 -0.150961,0.14817 -0.08118,0.17108 -0.170265,0.18772 -0.286652,0.0535 -0.05647,-0.0651 -0.07386,-0.12784 -0.05571,-0.20108 0.0145,-0.0585 0.04365,-0.32553 0.06477,-0.59329 0.0413,-0.52347 0.09257,-0.88436 0.135475,-0.95379 0.01471,-0.0238 -3e-5,-0.15706 -0.03274,-0.29615 -0.03272,-0.13909 -0.05978,-0.33494 -0.06015,-0.43523 -4.24e-4,-0.10028 -0.02203,-0.26719 -0.04814,-0.3709 -0.03824,-0.15184 -0.06915,-0.19323 -0.15875,-0.21254 -0.0612,-0.0132 -0.149369,-0.0403 -0.195935,-0.0602 -0.163318,-0.07 -0.646168,-0.12818 -0.74729,-0.0901 -0.05466,0.0206 -0.161463,0.0282 -0.23735,0.0168 -0.07588,-0.0113 -0.161607,-0.003 -0.1905,0.0192 -0.02889,0.0219 -0.147777,0.0432 -0.264194,0.0474 -0.320743,0.0115 -0.46352,0.0618 -0.479196,0.16884 -0.0085,0.058 -0.04362,0.0924 -0.09444,0.0924 -0.05363,0 -0.08985,0.0393 -0.107404,0.11642 -0.01457,0.064 -0.06026,0.19261 -0.10154,0.28575 -0.04128,0.0931 -0.08949,0.20743 -0.107138,0.254 -0.05862,0.15468 -0.05478,1.34072 0.0049,1.524 0.149733,0.45958 0.113356,0.6985 -0.10635,0.6985 -0.06618,0 -0.140737,-0.0246 -0.165684,-0.0546 -0.07826,-0.0943 -0.158398,-0.50999 -0.238379,-1.23652 -0.02988,-0.27139 -0.05144,-1.04878 -0.03225,-1.16276 z"
       id="path496" />
    <path
       style="fill:#000000;stroke-width:0.0423333"
       d="m 43.11462,22.713964 c 0.01229,-0.01229 0.02898,-0.238624 0.03711,-0.502975 0.05423,-1.764792 0.09827,-2.279804 0.194979,-2.279804 0.06093,0 0.07612,0.143494 0.12095,1.143 0.05985,1.334123 0.04195,2.857393 -0.03441,2.92952 -0.04605,0.0435 -0.06226,0.04393 -0.07761,0.0021 -0.01067,-0.0291 -0.04639,-0.05292 -0.07937,-0.05292 -0.03299,0 -0.06144,-0.02381 -0.06323,-0.05292 -0.01036,-0.168104 -0.04639,-0.461394 -0.0793,-0.645583 -0.04291,-0.240134 -0.05235,-0.507143 -0.01911,-0.540388 z"
       id="path494" />
    <path
       style="fill:#ffffff;stroke-width:0.0423333"
       d="m 65.294018,179.16577 c 0.08776,0 0.174807,-0.0252 0.193425,-0.0559 0.03866,-0.0639 0.546866,-0.16273 0.79748,-0.1551 0.250647,0.008 0.654541,-0.0495 0.654541,-0.0926 0,-0.0736 -0.124918,-0.33535 -0.19216,-0.40259 -0.08384,-0.0838 -0.402145,-0.57246 -0.773108,-1.18676 -0.05359,-0.0887 -0.161294,-0.23729 -0.239344,-0.33011 l -0.141906,-0.16876 -0.05001,0.127 c -0.02751,0.0699 -0.08829,0.20636 -0.13506,0.30335 -0.05249,0.10883 -0.07408,0.21089 -0.0564,0.26661 0.01576,0.0497 0.01042,0.11317 -0.01186,0.14116 -0.04446,0.0558 -0.07485,0.19599 -0.139179,0.64178 -0.02337,0.16202 -0.05022,0.30229 -0.05965,0.31172 -0.0094,0.009 -0.01472,0.14834 -0.01174,0.30869 l 0.0054,0.29152 z"
       id="path492" />
    <path
       style="fill:#000000;stroke-width:0.0423333"
       d="m 118.09318,156.63607 c 0.10202,-0.20499 0.24191,-0.18651 0.48062,0.0635 0.1056,0.11059 0.32884,0.31902 0.49609,0.46316 0.16725,0.14415 0.4413,0.41085 0.609,0.59267 0.1677,0.18182 0.35455,0.36868 0.41523,0.41525 0.0607,0.0466 0.1966,0.17039 0.30203,0.27517 0.84811,0.84281 1.15186,0.93329 1.4097,0.41994 0.12855,-0.25593 0.13741,-0.47656 0.0414,-1.03012 -0.0624,-0.35988 -0.31803,-1.26763 -0.40316,-1.43183 -0.021,-0.0404 -0.0381,-0.10235 -0.0381,-0.13759 0,-0.0352 -0.0187,-0.0641 -0.0415,-0.0641 -0.0228,0 -0.0825,-0.081 -0.13263,-0.17992 -0.0501,-0.099 -0.14588,-0.24946 -0.21276,-0.33447 -0.13853,-0.17608 -0.19447,-0.46156 -0.12545,-0.64028 0.0919,-0.23786 0.28373,-0.16776 0.33055,0.12075 0.0136,0.0838 0.0488,0.16152 0.0782,0.17281 0.0722,0.0277 0.1614,0.25167 0.13136,0.32996 -0.0133,0.0347 10e-4,0.0883 0.0319,0.11915 0.0309,0.0309 0.0696,0.10285 0.086,0.15997 0.027,0.094 0.36808,0.79534 0.51367,1.05636 0.0325,0.0582 0.0593,0.14746 0.0597,0.19833 8.5e-4,0.12593 0.081,0.32808 0.11613,0.29294 0.0157,-0.0157 0.0615,-0.12784 0.10179,-0.24929 0.18597,-0.56011 0.25274,-0.71991 0.37511,-0.89777 0.0722,-0.10498 0.1463,-0.19087 0.16459,-0.19087 0.0183,0 0.10615,-0.10583 0.19523,-0.23517 0.29936,-0.43466 0.48878,-0.47112 0.84898,-0.16339 0.12496,0.10676 0.24485,0.1832 0.26642,0.16987 0.0592,-0.0366 0.14167,0.1994 0.12618,0.3609 -0.0164,0.171 -0.10472,0.20086 -0.30836,0.10422 -0.0778,-0.0369 -0.16234,-0.0671 -0.18792,-0.0671 -0.0256,0 -0.0465,-0.0275 -0.0465,-0.061 0,-0.0335 -0.02,-0.0734 -0.0445,-0.0885 -0.056,-0.0346 -0.32787,0.0913 -0.45058,0.20876 -0.0511,0.0489 -0.13381,0.12699 -0.18385,0.17355 -0.11351,0.10565 -0.25244,0.37127 -0.25244,0.48265 0,0.0461 -0.0191,0.0956 -0.0423,0.11002 -0.0233,0.0144 -0.0423,0.11417 -0.0423,0.22174 0,0.18593 -0.0477,0.39033 -0.13696,0.58746 -0.0916,0.20228 0.0526,0.8937 0.22493,1.07817 0.068,0.0728 0.12369,0.14661 0.12369,0.16397 0,0.0753 0.44242,0.43097 0.56492,0.45414 0.0735,0.0139 0.15263,0.0387 0.17592,0.055 0.0918,0.0645 0.59227,0.17698 0.81047,0.18209 0.20783,0.005 0.2407,-0.007 0.33119,-0.11977 0.29495,-0.36745 0.52088,-1.03647 0.40683,-1.20466 -0.0571,-0.0842 -0.60113,-0.0712 -0.81845,0.0196 -0.0857,0.0358 -0.22244,0.0651 -0.30386,0.0651 -0.16016,0 -0.20545,-0.0514 -0.24929,-0.28303 -0.0556,-0.29401 0.22224,-0.43211 0.92377,-0.45909 0.25612,-0.01 0.51329,-0.0271 0.5715,-0.0384 0.23657,-0.0459 0.3588,-0.0816 0.46144,-0.13484 0.14902,-0.0773 0.20204,0.0184 0.1347,0.24315 -0.0345,0.11501 -0.036,0.18817 -0.005,0.24586 0.0812,0.15181 0.0553,0.17926 -0.14153,0.14975 -0.10202,-0.0153 -0.19533,-0.0117 -0.20735,0.008 -0.012,0.0197 0.003,0.17803 0.0326,0.35185 0.0662,0.38469 0.018,0.59158 -0.2006,0.86055 -0.0796,0.0979 -0.1666,0.24184 -0.19332,0.31978 -0.0556,0.162 -0.28097,0.43638 -0.39526,0.48113 -0.11465,0.0449 -0.91157,-0.0702 -1.17887,-0.1703 -0.56141,-0.21019 -1.10294,-0.64176 -1.32096,-1.05274 -0.1062,-0.20017 -0.20304,-0.23995 -0.20304,-0.0834 0,0.17626 -0.17602,0.37332 -0.46567,0.5213 -0.15134,0.0773 -0.29121,0.14071 -0.31082,0.14086 -0.0196,0 -0.0841,-0.0378 -0.14329,-0.0844 -0.0592,-0.0466 -0.14189,-0.0847 -0.18375,-0.0847 -0.0418,0 -0.087,-0.0333 -0.10034,-0.0741 -0.0133,-0.0407 -0.16836,-0.20743 -0.34451,-0.37041 -0.17615,-0.16299 -0.55229,-0.52278 -0.83586,-0.79955 -0.28358,-0.27677 -0.57676,-0.54993 -0.65152,-0.60701 -0.0748,-0.0571 -0.14748,-0.1402 -0.1616,-0.1847 -0.0141,-0.0445 -0.055,-0.0809 -0.0908,-0.0809 -0.0358,0 -0.10379,-0.0491 -0.15102,-0.10919 -0.0765,-0.0973 -0.0928,-0.10224 -0.1497,-0.0454 -0.0569,0.0568 -0.0559,0.0861 0.009,0.26794 0.0401,0.11227 0.0885,0.30183 0.1075,0.42123 0.0191,0.1194 0.0673,0.2669 0.10716,0.32775 0.0399,0.0609 0.0602,0.14263 0.0452,0.18169 -0.015,0.0391 -0.009,0.0821 0.0123,0.0956 0.0217,0.0135 0.0462,0.16742 0.0543,0.34205 0.0147,0.31432 0.0137,0.31762 -0.0946,0.33021 -0.15559,0.0181 -0.31172,-0.23055 -0.35357,-0.56305 -0.032,-0.25465 -0.0728,-0.52621 -0.14149,-0.94292 -0.0202,-0.12279 -0.0592,-0.24566 -0.0866,-0.27305 -0.0274,-0.0274 -0.0498,-0.10389 -0.0498,-0.17001 0,-0.0661 -0.0381,-0.19491 -0.0847,-0.28618 -0.1,-0.19599 -0.10092,-0.23164 -0.0108,-0.41275 z"
       id="path468" />
    <path
       style="fill:#000000;stroke-width:0.0423333"
       d="m 110.04726,156.29743 c 0.0725,-0.10453 0.23133,-0.12618 0.3019,-0.0411 0.0247,0.0298 0.0578,0.20597 0.0735,0.39158 0.0157,0.18562 0.055,0.46732 0.0873,0.626 0.0323,0.15869 0.0587,0.39049 0.0587,0.51512 0,0.12463 0.0116,0.25674 0.0257,0.29357 0.0285,0.0743 0.1663,0.0907 0.20714,0.0246 0.0144,-0.0233 0.0811,-0.0423 0.14816,-0.0423 0.0671,0 0.13378,-0.019 0.14817,-0.0423 0.0144,-0.0233 0.0734,-0.0423 0.13119,-0.0423 0.0578,0 0.17569,-0.0352 0.26208,-0.0783 0.20282,-0.10106 0.78523,-0.28777 1.00681,-0.32275 0.17026,-0.0269 0.42076,-0.207 0.37988,-0.27314 -0.0302,-0.0488 -0.0753,-0.85749 -0.0684,-1.2252 0.007,-0.3639 0.0854,-0.55652 0.22627,-0.55488 0.12843,0.001 0.24073,0.25763 0.2111,0.4815 -0.0209,0.15803 -0.0175,0.16373 0.0788,0.13336 0.0553,-0.0175 0.25302,-0.0485 0.43929,-0.0691 0.18627,-0.0205 0.39582,-0.0562 0.46567,-0.0791 0.0699,-0.023 0.21272,-0.0506 0.3175,-0.0613 0.10477,-0.0107 0.43815,-0.0671 0.74083,-0.1253 0.30268,-0.0582 0.73382,-0.11507 0.95809,-0.12633 l 0.40774,-0.0205 0.0536,0.25252 c 0.0586,0.27629 0.024,0.37027 -0.11482,0.31134 -0.12487,-0.053 -0.22566,-0.0632 -0.62176,-0.0625 -0.41397,6.8e-4 -0.74175,0.0651 -0.77523,0.15229 -0.0119,0.0311 0.0209,0.12534 0.0729,0.20949 0.0605,0.0979 0.0935,0.21642 0.0915,0.32916 -0.002,0.0969 0.0226,0.27141 0.0538,0.38783 0.057,0.21206 0.10584,0.4862 0.19231,1.0795 0.0254,0.17462 0.0673,0.38417 0.0929,0.46566 0.0499,0.15859 0.0827,0.40956 0.0798,0.61066 -9.7e-4,0.0681 0.0358,0.18465 0.0818,0.25899 0.0459,0.0744 0.0835,0.17467 0.0835,0.22293 0,0.0483 0.02,0.10009 0.0443,0.11516 0.0546,0.0338 0.46366,-0.0603 0.46366,-0.1067 0,-0.0184 0.0524,-0.0466 0.11641,-0.0626 0.064,-0.016 0.17706,-0.0752 0.25118,-0.13159 0.16098,-0.12249 0.30974,-0.13559 0.30974,-0.0273 0,0.11246 0.12093,0.26342 0.211,0.26342 0.0436,0 0.12462,-0.058 0.18014,-0.12897 0.0924,-0.11809 0.1114,-0.12501 0.2247,-0.0819 l 0.12376,0.047 -0.18538,0.15399 c -0.19014,0.15794 -0.42549,0.26003 -0.87172,0.37814 -0.1397,0.037 -0.28492,0.0938 -0.32271,0.12634 -0.0378,0.0325 -0.17041,0.0752 -0.2947,0.0948 -0.12429,0.0197 -0.23307,0.057 -0.24173,0.083 -0.0229,0.0688 -0.20123,0.0578 -0.26269,-0.0163 -0.0588,-0.0709 -0.254,-0.0871 -0.254,-0.0212 0,0.0233 -0.0279,0.0423 -0.062,0.0423 -0.0341,0 -0.081,0.0355 -0.10422,0.0789 -0.0244,0.0456 -0.10901,0.0897 -0.20063,0.10457 -0.27075,0.0439 -0.40181,-0.16941 -0.23545,-0.38332 0.0506,-0.065 0.16142,-0.11243 0.35891,-0.15358 0.39107,-0.0815 0.41853,-0.11022 0.38493,-0.40295 -0.0151,-0.13113 -0.0435,-0.24477 -0.0633,-0.25253 -0.0197,-0.008 -0.0359,-0.0709 -0.0359,-0.14037 0,-0.0694 -0.0231,-0.16786 -0.0514,-0.21872 -0.0282,-0.0508 -0.0644,-0.20676 -0.0803,-0.34646 -0.0159,-0.1397 -0.0503,-0.33622 -0.0765,-0.43672 -0.0261,-0.10049 -0.0519,-0.32423 -0.0572,-0.49719 -0.006,-0.20045 -0.0272,-0.31456 -0.0578,-0.3147 -0.0264,0 -0.0611,-0.1047 -0.077,-0.23239 -0.016,-0.1277 -0.0467,-0.24312 -0.0684,-0.2565 -0.0217,-0.0134 -0.0394,-0.0608 -0.0394,-0.10544 0,-0.0446 -0.0581,-0.20795 -0.12909,-0.36297 l -0.1291,-0.28187 -0.45209,0.0303 c -0.24866,0.0166 -0.51674,0.0573 -0.59574,0.0903 -0.18296,0.0764 -0.1864,0.0762 -0.30163,-0.0238 -0.0531,-0.0461 -0.11276,-0.0738 -0.13249,-0.0616 -0.0572,0.0353 0.0142,1.22913 0.12767,2.13507 0.0497,0.39668 0.16842,0.84491 0.24908,0.94031 0.0545,0.0644 0.0489,0.0872 -0.0497,0.20433 -0.061,0.0725 -0.11094,0.14944 -0.11094,0.17094 0,0.0731 -0.0778,0.0394 -0.20655,-0.0893 -0.0784,-0.0784 -0.11863,-0.15382 -0.10335,-0.19365 0.0138,-0.0359 0.005,-0.13527 -0.0195,-0.22086 -0.0245,-0.0856 -0.0758,-0.37467 -0.11401,-0.64243 -0.096,-0.67286 -0.0853,-0.64813 -0.26988,-0.61841 -0.085,0.0137 -0.26888,0.0245 -0.40858,0.0241 -0.17839,-5.5e-4 -0.30261,0.0255 -0.41729,0.0876 -0.0898,0.0486 -0.17313,0.0786 -0.18516,0.0665 -0.012,-0.012 -0.091,0.0127 -0.17538,0.055 -0.0844,0.0423 -0.21046,0.0906 -0.28008,0.10738 -0.0696,0.0168 -0.13831,0.0495 -0.15265,0.0727 -0.0143,0.0232 -0.10548,0.0528 -0.20254,0.0659 -0.0971,0.013 -0.18599,0.0391 -0.19762,0.0579 -0.0116,0.0188 -0.008,0.21964 0.008,0.44626 0.0264,0.37529 0.0397,0.42324 0.14919,0.53783 0.1499,0.15685 0.15053,0.21798 0.004,0.36628 -0.064,0.0647 -0.14116,0.14875 -0.17139,0.18674 -0.0507,0.0637 -0.0628,0.0633 -0.15557,-0.005 -0.0711,-0.0527 -0.11002,-0.13646 -0.13283,-0.28616 -0.0177,-0.11642 -0.03,-0.22197 -0.0273,-0.23456 0.003,-0.0126 -0.0214,-0.21121 -0.0535,-0.44136 -0.0322,-0.23016 -0.0498,-0.43249 -0.0392,-0.44962 0.0106,-0.0171 -0.0268,-0.2662 -0.0831,-0.55348 -0.093,-0.47457 -0.1384,-0.86135 -0.17069,-1.45415 -0.006,-0.1167 -0.0226,-0.25005 -0.0361,-0.29634 -0.0135,-0.0463 0.005,-0.12702 0.0414,-0.17941 z"
       id="path444" />
    <path
       style="fill:#000000;stroke-width:0.0423333"
       d="m 109.9167,148.12547 c 0.0335,-0.0766 0.0889,-0.14998 0.12313,-0.16313 0.0343,-0.0132 0.13262,-0.141 0.21856,-0.28412 0.50137,-0.83495 0.93193,-1.28024 1.44704,-1.49656 0.1613,-0.0677 0.38719,-0.0369 0.38719,0.0529 0,0.0323 0.0381,0.079 0.0847,0.10396 0.0466,0.0249 0.0847,0.0628 0.0847,0.0842 0,0.0678 -0.39451,0.22254 -0.59756,0.23437 -0.26538,0.0155 -0.48254,0.16796 -0.75029,0.52691 -0.12017,0.16109 -0.21849,0.30911 -0.21849,0.32893 0,0.0198 -0.0662,0.13993 -0.14708,0.26691 -0.0809,0.12698 -0.14757,0.27993 -0.14817,0.33989 -0.001,0.10898 0.42859,0.65874 0.68684,0.8788 0.064,0.0546 0.11736,0.12133 0.11851,0.14836 10e-4,0.027 0.11069,0.15009 0.24342,0.27345 0.13272,0.12337 0.38145,0.35673 0.55271,0.51859 0.17127,0.16185 0.32756,0.29428 0.34733,0.29428 0.0198,0 0.0806,0.0446 0.1351,0.0992 0.0819,0.0819 0.0928,0.12062 0.0626,0.22225 -0.0201,0.0677 -0.0401,0.18818 -0.0443,0.26775 -0.004,0.0796 -0.032,0.15275 -0.0617,0.16262 -0.0585,0.0195 -0.37446,-0.29761 -0.5446,-0.54652 -0.0581,-0.085 -0.13771,-0.16534 -0.17689,-0.17853 -0.1528,-0.0514 -0.70613,-0.56986 -0.88704,-0.83107 -0.20676,-0.29857 -0.48344,-0.57666 -0.75052,-0.75437 -0.0931,-0.062 -0.18333,-0.1319 -0.20043,-0.1554 -0.0477,-0.0655 -0.0321,-0.2393 0.0353,-0.39361 z"
       id="path442" />
    <path
       style="fill:#000000;stroke-width:0.0423333"
       d="m 106.1034,156.57083 c 0.12857,-0.0631 0.29526,-0.11477 0.37041,-0.11491 0.0752,0 0.18738,-0.0267 0.24939,-0.0591 0.24023,-0.12533 0.59632,-0.23698 0.75582,-0.23698 0.0918,0 0.24334,-0.0306 0.33678,-0.068 0.10315,-0.0413 0.24068,-0.0605 0.3501,-0.0488 0.0991,0.0105 0.22785,-0.004 0.28606,-0.0331 0.0582,-0.0287 0.21655,-0.0843 0.35189,-0.12351 0.30459,-0.0883 0.38925,-0.0449 0.34743,0.17803 -0.0148,0.0786 -0.005,0.21018 0.0225,0.29236 0.0684,0.20732 0.004,0.26963 -0.18283,0.17642 -0.0863,-0.0431 -0.23058,-0.066 -0.39083,-0.0621 l -0.254,0.006 -0.0346,0.21166 c -0.019,0.11642 -0.04,0.32597 -0.0467,0.46567 -0.007,0.1397 -0.0259,0.28585 -0.0428,0.32478 -0.0168,0.0389 -0.007,0.11434 0.0212,0.16759 0.0285,0.0532 0.0503,0.23096 0.0484,0.39489 -0.002,0.16394 0.0117,0.33617 0.0302,0.38274 0.0788,0.19842 0.14785,0.43607 0.17839,0.61383 0.0558,0.3247 0.14181,0.65186 0.19758,0.75142 0.0472,0.0842 0.044,0.0952 -0.028,0.0952 -0.0516,0 -0.10745,0.055 -0.15266,0.15031 l -0.0713,0.15031 -0.13458,-0.0808 c -0.074,-0.0445 -0.12881,-0.10558 -0.12177,-0.13583 0.0311,-0.13352 0.0185,-0.30094 -0.0511,-0.67664 -0.11547,-0.62362 -0.15082,-0.84246 -0.19148,-1.18533 -0.0958,-0.80763 -0.18446,-1.42048 -0.20899,-1.44451 -0.0544,-0.0533 -0.73587,0.0768 -0.77575,0.14801 -0.0212,0.0379 -0.0712,0.0688 -0.1111,0.0688 -0.12103,0 -0.53386,0.1649 -0.58458,0.23351 -0.0633,0.0856 -0.15758,0.0437 -0.28891,-0.12853 -0.16327,-0.21405 -0.1426,-0.28206 0.12572,-0.41366 z"
       id="path440" />
    <path
       style="fill:#000000;stroke-width:0.0423333"
       d="m 102.82394,156.20094 c 0.0478,-0.0256 0.21452,-0.0459 0.37042,-0.045 0.46889,0.003 1.13015,-0.0717 1.61638,-0.1817 0.28327,-0.0641 0.59597,-0.0403 0.68865,0.0524 0.0453,0.0453 0.0396,0.0493 -0.15483,0.1091 -0.0379,0.0117 -0.0578,0.074 -0.055,0.17218 0.005,0.16841 -0.0653,0.24113 -0.20272,0.21025 -0.0468,-0.0105 -0.2318,-0.0271 -0.4112,-0.0369 -0.1794,-0.01 -0.34692,-0.0306 -0.37227,-0.0463 -0.0254,-0.0157 -0.0691,-0.01 -0.0971,0.0126 -0.0281,0.0226 -0.11317,0.0544 -0.18909,0.0706 -0.17999,0.0385 -0.25102,0.11413 -0.31123,0.33142 -0.0961,0.34675 -0.11083,1.24197 -0.022,1.33259 0.0993,0.10122 1.12737,-0.10091 1.12737,-0.22166 0,-0.0277 0.0448,-0.0924 0.0995,-0.14379 0.0785,-0.0737 0.1085,-0.082 0.14221,-0.0391 0.0728,0.0925 0.0972,0.32391 0.047,0.44592 -0.0263,0.064 -0.0498,0.13545 -0.0521,0.15874 -0.01,0.0975 -0.11506,0.22748 -0.18378,0.22648 -0.0407,-5.9e-4 -0.17878,0.0198 -0.30684,0.0453 -0.12806,0.0255 -0.36518,0.0652 -0.52694,0.0883 -0.16175,0.023 -0.30996,0.0577 -0.32935,0.0771 -0.0194,0.0194 -0.0107,0.10993 0.0194,0.2012 l 0.0546,0.16595 0.2324,-0.003 c 0.12782,-0.002 0.47053,-0.0371 0.76157,-0.0786 0.86823,-0.12371 1.1798,-0.0817 1.05964,0.14278 -0.0271,0.0507 -0.0371,0.14742 -0.0223,0.21504 0.023,0.10491 0.0126,0.12603 -0.0713,0.14391 -0.12372,0.0264 -0.23492,0.0113 -0.38696,-0.0525 -0.10948,-0.046 -0.24711,-0.0381 -0.40981,0.0235 -0.0349,0.0132 -0.12065,0.0295 -0.1905,0.0363 -0.14096,0.0136 -0.50166,0.0772 -0.76261,0.13436 -0.0935,0.0205 -0.22293,0.072 -0.28767,0.1144 -0.0967,0.0633 -0.13449,0.0682 -0.2115,0.0269 -0.12078,-0.0646 -0.2864,-0.39705 -0.23698,-0.47562 0.0439,-0.0698 0.0402,-0.79878 -0.004,-0.79878 -0.0323,0 -0.0159,-1.40898 0.0202,-1.72508 0.0141,-0.1236 0.004,-0.1818 -0.0316,-0.18594 -0.0287,-0.003 -0.11836,-0.0114 -0.19933,-0.0179 -0.26121,-0.021 -0.41496,-0.37582 -0.2103,-0.48534 z"
       id="path438" />
    <path
       style="fill:#000000;stroke-width:0.0423333"
       d="m 102.25765,148.79268 c 0.244,-0.35956 0.40551,-0.50318 0.75563,-0.6719 0.41924,-0.20203 0.54272,-0.21303 0.74204,-0.0661 0.17162,0.12648 0.42097,0.43003 0.42097,0.51249 0,0.0317 0.0381,0.12878 0.0847,0.21566 0.10156,0.18949 0.10477,0.23801 0.0204,0.30805 -0.0525,0.0436 -0.0791,0.0399 -0.1455,-0.0201 -0.10432,-0.0944 -0.15468,-0.0607 -0.18991,0.12706 -0.0156,0.083 -0.0603,0.16313 -0.0994,0.17813 -0.0391,0.015 -0.12992,0.0833 -0.20185,0.15172 -0.11422,0.10867 -0.16798,0.12633 -0.42403,0.13928 -0.409,0.0207 -0.6095,-0.0633 -0.84698,-0.35483 -0.20221,-0.24823 -0.22645,-0.35671 -0.11605,-0.51939 z"
       id="path436" />
    <path
       style="fill:#000000;stroke-width:0.0423333"
       d="m 97.785325,148.33646 c 0.102103,-0.10959 0.177944,-0.0987 0.432549,0.0619 0.08731,0.0551 0.15875,0.0875 0.15875,0.0719 0,-0.0155 0.03334,0.002 0.07408,0.0385 0.04075,0.0367 0.128198,0.0803 0.194344,0.0968 0.06614,0.0165 0.20541,0.10372 0.309491,0.1938 0.104076,0.0901 0.207124,0.16378 0.228989,0.16378 0.02187,0 0.03976,0.0223 0.03976,0.0496 0,0.0273 0.03187,0.0848 0.07082,0.12785 0.125083,0.13821 0.08928,0.56377 -0.07263,0.86332 -0.129786,0.24011 -0.277677,0.44048 -0.472038,0.63952 -0.05658,0.058 -0.09006,0.14536 -0.08916,0.23284 0.0017,0.16432 -0.09106,0.28811 -0.216133,0.2885 -0.04878,0 -0.145839,0.0381 -0.215689,0.0844 -0.06985,0.0463 -0.138231,0.0842 -0.151955,0.0844 -0.0278,4.2e-4 -0.123211,-0.19477 -0.123211,-0.25191 0,-0.0201 0.169773,-0.22121 0.377274,-0.44692 0.408043,-0.44384 0.574845,-0.71579 0.618795,-1.00887 0.0268,-0.1787 0.01983,-0.19551 -0.155926,-0.37605 -0.189535,-0.19469 -0.491283,-0.35677 -0.86131,-0.46262 -0.197184,-0.0564 -0.212526,-0.0706 -0.224206,-0.20737 -0.0088,-0.10356 0.01397,-0.17527 0.07741,-0.24337 z"
       id="path434" />
    <path
       style="fill:#000000;stroke-width:0.0423333"
       d="m 97.527735,157.04741 c 0.0582,-0.30816 0.111988,-0.31871 0.370484,-0.0727 0.304479,0.28984 0.3495,0.32809 0.386199,0.32809 0.01913,0 0.109622,0.0566 0.201083,0.12582 0.09146,0.0692 0.188066,0.12635 0.214677,0.127 0.02662,6.3e-4 0.05935,0.0298 0.07275,0.0647 0.0134,0.0349 0.05354,0.0635 0.0892,0.0635 0.03566,0 0.06483,0.0144 0.06483,0.032 0,0.0176 0.09049,0.0761 0.201084,0.13006 0.110596,0.0539 0.353483,0.18188 0.53975,0.2843 0.433418,0.23832 0.595658,0.24756 0.774298,0.0441 0.0698,-0.0795 0.15046,-0.21761 0.17924,-0.30692 0.0288,-0.0893 0.0679,-0.18216 0.0869,-0.20633 0.0683,-0.0869 0.15294,-0.78463 0.12024,-0.99145 -0.0753,-0.47641 0.1951,-0.90713 0.34393,-0.54783 0.0299,0.0722 0.0951,0.19125 0.14484,0.26458 0.0498,0.0733 0.11628,0.22857 0.14784,0.34499 0.0315,0.11641 0.0711,0.23071 0.088,0.254 0.0168,0.0233 0.0726,0.17568 0.12396,0.33866 0.0513,0.16299 0.11093,0.32491 0.13244,0.35984 0.0393,0.0637 0.10389,0.20199 0.16821,0.35983 0.0455,0.11154 0.1656,0.62229 0.20912,0.889 0.10486,0.64264 0.13694,0.81652 0.17239,0.93434 0.0215,0.0715 0.0391,0.15843 0.0391,0.19316 0,0.0885 -0.21066,0.27915 -0.3451,0.31236 -0.0991,0.0245 -0.11553,0.0129 -0.13995,-0.0982 -0.0152,-0.0693 -0.0249,-0.22805 -0.0215,-0.3528 0.003,-0.12475 -0.0119,-0.31617 -0.034,-0.42538 -0.0221,-0.1092 -0.0243,-0.21443 -0.005,-0.23383 0.0194,-0.0194 0.006,-0.0911 -0.029,-0.15922 -0.0354,-0.0682 -0.0593,-0.16297 -0.0531,-0.21067 0.006,-0.0477 -0.001,-0.10704 -0.017,-0.13187 -0.0272,-0.0436 -0.18722,-0.57408 -0.23243,-0.77039 -0.0122,-0.0527 -0.0389,-0.10625 -0.0594,-0.11892 -0.0205,-0.0127 -0.0373,-0.069 -0.0373,-0.12507 0,-0.12959 -0.16528,-0.4508 -0.21588,-0.41953 -0.021,0.013 -0.0381,0.0528 -0.0381,0.0886 0,0.0358 -0.0266,0.11561 -0.0592,0.17742 -0.0325,0.0618 -0.0826,0.19809 -0.11132,0.30286 -0.0807,0.29482 -0.18408,0.4992 -0.3745,0.7405 -0.18047,0.22868 -0.41253,0.29718 -0.57934,0.17102 -0.0452,-0.0342 -0.112193,-0.0628 -0.14888,-0.0635 -0.03669,-7.7e-4 -0.111446,-0.049 -0.166128,-0.10718 -0.05468,-0.0582 -0.131251,-0.10584 -0.170151,-0.10584 -0.0389,0 -0.101058,-0.0333 -0.138133,-0.0741 -0.03707,-0.0408 -0.140035,-0.10952 -0.228808,-0.15283 -0.08878,-0.0433 -0.189983,-0.0947 -0.224908,-0.11421 -0.03493,-0.0195 -0.1778,-0.0958 -0.3175,-0.16959 -0.1397,-0.0738 -0.314643,-0.17953 -0.38876,-0.23503 -0.280348,-0.20996 -0.322512,-0.0924 -0.138422,0.38591 0.02748,0.0714 0.07902,0.42667 0.147401,1.016 0.0081,0.0699 0.03293,0.20796 0.05517,0.30692 0.02224,0.099 0.02585,0.17991 0.008,0.17991 -0.01783,0 -0.04451,0.0756 -0.05929,0.168 -0.03246,0.20302 -0.160016,0.29699 -0.263144,0.19386 -0.03604,-0.036 -0.07938,-0.0655 -0.09632,-0.0655 -0.01693,0 -0.03257,-0.0714 -0.03476,-0.15875 -0.01912,-0.76503 -0.156773,-1.84541 -0.284523,-2.23309 -0.08606,-0.26115 -0.100084,-0.36834 -0.06944,-0.5306 z"
       id="path432" />
    <path
       style="fill:#ffffff;stroke-width:0.0423333"
       d="m 93.579927,159.26537 c 0.01612,0.0161 0.03203,0.10978 0.03536,0.20814 0.004,0.118 0.05558,0.26525 0.151617,0.43284 0.140043,0.24439 0.156722,0.25778 0.440881,0.35408 0.48061,0.16288 0.771127,0.20696 1.028941,0.15609 0.390758,-0.0771 0.600744,-0.32995 0.790537,-0.95194 0.07135,-0.23385 0.09185,-0.88732 0.03699,-1.17971 -0.02684,-0.14309 -0.32073,-0.47402 -0.420958,-0.47402 -0.02709,0 -0.0947,-0.0352 -0.15022,-0.0783 -0.18744,-0.14538 -0.501688,-0.3006 -0.561827,-0.27752 -0.03285,0.0126 -0.07094,0.005 -0.08463,-0.0173 -0.01369,-0.0222 -0.158559,-0.0841 -0.321928,-0.13766 -0.285957,-0.0937 -0.302666,-0.0947 -0.44781,-0.0255 -0.125768,0.06 -0.148561,0.091 -0.137435,0.18732 0.0073,0.0635 0.0419,0.11908 0.07683,0.12356 0.346379,0.0443 0.375217,0.0575 0.379086,0.17389 0.0021,0.0633 0.0082,0.17219 0.01345,0.24204 0.0092,0.12099 6.35e-4,0.12799 -0.180874,0.14816 -0.104775,0.0116 -0.229468,0.0497 -0.277097,0.0847 -0.10723,0.0786 -0.245681,0.36609 -0.214926,0.44624 0.01252,0.0326 -0.0056,0.0876 -0.04019,0.12226 -0.03868,0.0387 -0.05326,0.10157 -0.03782,0.16312 0.01615,0.0643 0.0014,0.11981 -0.04108,0.15512 -0.07217,0.0599 -0.08221,0.0992 -0.03692,0.14445 z"
       id="path430" />
    <path
       style="fill:#000000;stroke-width:0.0423333"
       d="m 86.779043,156.52225 c 0.02175,-0.13828 0.07787,-0.36219 0.124726,-0.49758 0.04686,-0.13539 0.08519,-0.2711 0.08519,-0.30157 0,-0.15369 0.504634,-0.9444 0.846667,-1.32663 0.08149,-0.0911 0.186266,-0.21945 0.232833,-0.28529 0.09601,-0.13576 0.119452,-0.15914 0.365303,-0.36433 0.09764,-0.0815 0.267301,-0.23536 0.377033,-0.34191 0.109732,-0.10656 0.256358,-0.21729 0.325836,-0.24607 0.06948,-0.0288 0.167695,-0.10828 0.218262,-0.17667 0.05056,-0.0684 0.114135,-0.12435 0.141266,-0.12435 0.02714,0 0.098,-0.0452 0.157484,-0.10051 0.143527,-0.13339 0.541393,-0.40749 0.591477,-0.40749 0.02183,0 0.07441,-0.0437 0.116849,-0.0971 0.116903,-0.14712 0.516522,-0.45034 0.631567,-0.47921 0.05596,-0.014 0.101756,-0.0385 0.101756,-0.0543 0,-0.0423 0.40309,-0.2358 0.719667,-0.34546 0.151342,-0.0524 0.326318,-0.14237 0.38884,-0.19989 0.0633,-0.0582 0.165193,-0.10458 0.22993,-0.10458 0.06394,0 0.174709,-0.0357 0.246159,-0.0792 0.07145,-0.0436 0.179959,-0.0793 0.24114,-0.0794 0.06118,0 0.134137,-0.0278 0.162132,-0.0615 0.05983,-0.0721 0.325861,-0.16779 0.444348,-0.15984 0.0455,0.003 0.107408,-0.0149 0.137583,-0.04 0.03018,-0.025 0.05487,-0.0314 0.05487,-0.014 0,0.0173 0.02381,0.0118 0.05292,-0.0122 0.0785,-0.0649 0.50554,-0.22057 0.542506,-0.19773 0.01756,0.0109 0.114613,-0.0155 0.215671,-0.0587 0.101054,-0.0431 0.255431,-0.0917 0.343057,-0.10799 0.08762,-0.0163 0.287134,-0.0869 0.443361,-0.15702 0.156227,-0.0701 0.317894,-0.11859 0.359266,-0.10777 0.04137,0.0108 0.07522,0.004 0.07522,-0.0157 0,-0.0194 0.109538,-0.0476 0.243417,-0.0626 0.133879,-0.015 0.300567,-0.0544 0.370417,-0.0877 0.134018,-0.0637 0.685762,-0.1468 0.768041,-0.1156 0.06861,0.026 0.03792,0.56458 -0.03488,0.61213 -0.06904,0.0451 -0.245237,0.007 -0.333269,-0.0725 -0.03619,-0.0326 -0.121873,-0.0521 -0.1905,-0.0434 -0.214435,0.0272 -0.840346,0.15904 -0.92906,0.19569 -0.04657,0.0192 -0.160867,0.0579 -0.254,0.086 -0.09313,0.028 -0.207433,0.0659 -0.254,0.0842 -0.04657,0.0183 -0.198967,0.0644 -0.338667,0.10257 -0.1397,0.0381 -0.307932,0.0967 -0.373845,0.13023 -0.06592,0.0335 -0.152595,0.0609 -0.192617,0.0609 -0.04003,0 -0.0947,0.0219 -0.121501,0.0487 -0.0268,0.0268 -0.130624,0.0637 -0.230717,0.082 -0.384539,0.0702 -0.721059,0.15861 -0.762749,0.2003 -0.02972,0.0297 -0.07507,0.029 -0.143468,-0.002 -0.08616,-0.0393 -0.112251,-0.03 -0.188379,0.0668 -0.0486,0.0618 -0.122754,0.11234 -0.164778,0.11234 -0.04203,0 -0.101228,0.0299 -0.131555,0.0664 -0.03033,0.0365 -0.08957,0.0574 -0.131657,0.0464 -0.04208,-0.011 -0.243438,0.0638 -0.447459,0.16629 -0.204017,0.10246 -0.392718,0.18634 -0.419329,0.1864 -0.02662,0 -0.05934,0.0286 -0.07273,0.0635 -0.02405,0.0627 -0.106989,0.0636 -0.247269,0.003 -0.08403,-0.0365 -0.166437,0.003 -0.155223,0.0747 0.01315,0.0839 -0.05365,0.19789 -0.115917,0.19789 -0.03243,0 -0.05897,0.026 -0.05897,0.0579 0,0.0568 -0.29958,0.2808 -0.375564,0.2808 -0.02129,0 -0.04967,0.0286 -0.06308,0.0635 -0.0134,0.0349 -0.04211,0.0635 -0.0638,0.0635 -0.02169,0 -0.106816,0.0619 -0.189171,0.13758 -0.278265,0.25567 -0.458821,0.41275 -0.474434,0.41275 -0.03283,0 -0.302907,0.19645 -0.422376,0.30722 -0.06887,0.0639 -0.149225,0.11611 -0.178567,0.11611 -0.02934,0 -0.05335,0.0182 -0.05335,0.0405 0,0.0223 -0.185738,0.22939 -0.41275,0.46021 -0.227013,0.23081 -0.48895,0.52068 -0.582083,0.64416 -0.09313,0.12347 -0.234066,0.28581 -0.313182,0.36076 -0.08976,0.085 -0.134481,0.16068 -0.118936,0.2012 0.0137,0.0357 -0.0025,0.0877 -0.03606,0.11554 -0.03354,0.0278 -0.06099,0.0972 -0.06099,0.15405 0,0.12098 -0.0429,0.21176 -0.236305,0.50003 -0.120044,0.17893 -0.14561,0.26077 -0.165282,0.52917 -0.0128,0.17462 -0.03429,0.40691 -0.04775,0.51619 -0.01783,0.14478 -0.0061,0.22488 0.0431,0.29517 0.08492,0.12125 0.08667,0.36027 0.0041,0.55797 -0.0767,0.18356 -0.149077,0.16935 -0.244882,-0.0481 -0.08511,-0.19319 -0.12821,-1.05972 -0.07085,-1.42449 z"
       id="path426" />
    <path
       style="fill:#000000;stroke-width:0.0423333"
       d="m 30.437015,22.767515 c 0.06858,-0.158727 0.09578,-0.931334 0.03279,-0.931334 -0.03753,0 -0.04276,-0.120411 -0.02065,-0.47625 0.0428,-0.689127 0.193862,-1.403342 0.305897,-1.446334 0.04759,-0.01826 0.05297,0.120177 0.03159,0.812704 -0.01511,0.489543 -0.0036,1.254936 0.02793,1.850919 0.02953,0.558914 0.04054,1.086338 0.02446,1.172056 -0.02799,0.149191 -0.0343,0.154083 -0.147803,0.114518 -0.121137,-0.04223 -0.144594,-0.116042 -0.28114,-0.884613 -0.01034,-0.05821 0.0018,-0.153458 0.02692,-0.211666 z"
       id="path420" />
    <path
       style="fill:#000000;stroke-width:0.0423333"
       d="m 17.760535,23.01583 c 0.01619,-0.222553 0.02538,-0.240124 0.137274,-0.262503 0.0838,-0.01676 0.128228,-0.05707 0.147498,-0.133845 0.03184,-0.126868 0.0025,-0.195481 -0.07162,-0.167396 -0.06909,0.02618 -0.210003,-0.32357 -0.18213,-0.452059 0.01197,-0.05519 0.03154,-0.490871 0.04348,-0.968179 0.01387,-0.55429 0.04269,-0.93666 0.07977,-1.058333 l 0.05805,-0.1905 0.02587,0.1905 c 0.01423,0.104775 0.03688,0.428625 0.05035,0.719666 0.01347,0.291042 0.0414,0.862542 0.06208,1.27 0.04918,0.969074 0.0533,1.809771 0.0096,1.9685 -0.02661,0.09678 -0.06303,0.130291 -0.153052,0.14083 -0.07149,0.0084 -0.107718,-0.003 -0.09176,-0.02882 0.0145,-0.02346 0.0057,-0.05542 -0.01955,-0.07103 -0.02525,-0.01561 -0.03476,-0.05744 -0.02112,-0.09296 0.01363,-0.03552 0.006,-0.08724 -0.017,-0.114923 -0.05209,-0.06276 -0.0807,-0.433694 -0.05777,-0.748947 z"
       id="path418" />
    <path
       style="fill:#000000;stroke-width:0.0423333"
       d="m 5.0788606,22.598181 c 0.023622,-0.128058 0.034298,-0.347133 0.023724,-0.486833 -0.030433,-0.402147 0.051084,-1.704474 0.1285156,-2.053167 0.076695,-0.345368 0.140064,-0.471027 0.1376934,-0.27305 -8.044e-4,0.06869 0.013115,0.620184 0.030967,1.22555 0.051685,1.75237 0.043751,2.885955 -0.02065,2.950315 -0.04467,0.04464 -0.061688,0.04331 -0.092951,-0.0073 -0.021048,-0.03406 -0.052553,-0.04763 -0.070011,-0.03018 -0.1036023,0.103604 -0.2105067,-0.928425 -0.137287,-1.325363 z"
       id="path416" />
    <path
       style="fill:#000000;stroke-width:0.0423333"
       d="m -7.4820368,22.129617 c 0.012556,-0.01255 0.024917,-0.298028 0.027474,-0.634382 0.00495,-0.651819 0.094657,-1.508461 0.1653625,-1.579168 0.082389,-0.08239 0.1026033,0.02163 0.112141,0.576994 0.00803,0.467481 0.028257,0.896751 0.081259,1.72412 0.026916,0.420215 0.028537,1.563521 0.00233,1.643478 -0.021861,0.0667 -0.053725,0.09006 -0.099098,0.07265 -0.036779,-0.01411 -0.081648,-0.0018 -0.099708,0.02746 -0.018055,0.02922 -0.047604,0.03835 -0.065659,0.0203 -0.018051,-0.01805 -0.012653,-0.04608 0.011997,-0.06227 0.1019725,-0.067 0.092579,-0.218767 -0.0225,-0.363577 -0.1122722,-0.141276 -0.1154049,-0.160541 -0.125785,-0.773827 -0.00585,-0.34592 -4.233e-4,-0.639219 0.012188,-0.651775 z"
       id="path414" />
    <path
       style="fill:#000000;stroke-width:0.0423333"
       d="m -20.256371,22.005515 c 0.0062,-0.244475 0.03504,-0.699692 0.06397,-1.011594 0.04494,-0.48441 0.06372,-0.569999 0.128816,-0.587021 0.0867,-0.02267 0.103869,-0.09472 0.02257,-0.09472 -0.03361,0 -0.05529,-0.06322 -0.05807,-0.169333 -0.0025,-0.09313 0.0142,-0.169333 0.037,-0.169333 0.02279,0 0.03047,-0.02858 0.01707,-0.0635 -0.02496,-0.06504 0.03613,-0.09022 0.07323,-0.03019 0.01132,0.01832 0.03097,0.356461 0.04366,0.751417 0.01269,0.394956 0.03407,0.965752 0.04752,1.268435 0.0585,1.3172 0.0461,1.999076 -0.03789,2.083067 -0.03784,0.03784 -0.232668,-0.122083 -0.21256,-0.174479 0.0113,-0.02944 -0.0089,-0.07796 -0.04489,-0.107822 -0.04106,-0.03407 -0.06543,-0.124389 -0.06543,-0.242469 0,-0.168904 0.0087,-0.185418 0.08467,-0.161297 0.06008,0.01907 0.08467,0.0076 0.08467,-0.03948 0,-0.06156 -0.0438,-0.08284 -0.148167,-0.07198 -0.04421,0.0046 -0.05632,-0.390741 -0.03616,-1.179704 z"
       id="path412" />
    <path
       style="fill:#000000;stroke-width:0.0423333"
       d="m -32.810584,21.03563 c 0.02121,-0.214424 0.05177,-0.325319 0.09653,-0.35037 0.0396,-0.02216 0.05498,-0.06549 0.0389,-0.109615 -0.02485,-0.0682 -0.02105,-0.06811 0.0582,0.0013 0.04664,0.04084 0.08622,0.09799 0.08798,0.127 0.0018,0.02901 0.01662,0.538516 0.03302,1.132241 0.02083,0.753966 0.01641,1.066734 -0.01466,1.037167 -0.02446,-0.02328 -0.106947,-0.194734 -0.183295,-0.381 -0.121315,-0.295979 -0.13937,-0.38936 -0.143269,-0.740834 -0.0025,-0.221191 0.0095,-0.54334 0.02658,-0.715885 z"
       id="path410" />
    <path
       style="fill:#000000;stroke-width:0.0423333"
       d="m -32.821384,22.627943 c 0.379413,0.501898 0.35552,0.441712 0.339332,0.854853 -0.01596,0.40722 -0.05159,0.497594 -0.143566,0.364152 -0.03207,-0.04653 -0.0751,-0.103468 -0.09562,-0.12653 -0.03278,-0.03685 -0.02551,-0.103544 0.0392,-0.359232 0.0098,-0.03869 -0.02046,-0.06803 -0.07943,-0.07703 -0.06347,-0.0097 -0.09667,-0.04533 -0.0995,-0.106839 -0.0023,-0.05077 -0.01025,-0.21613 -0.01759,-0.367472 -0.01282,-0.264632 -0.01063,-0.271596 0.05717,-0.181905 z"
       id="path408" />
    <path
       style="fill:#000000;stroke-width:0.0423333"
       d="m -45.589558,21.624515 c 0.02003,-0.104775 0.04037,-0.419959 0.04521,-0.700408 0.007,-0.40373 0.02422,-0.533442 0.08288,-0.622927 0.04075,-0.06216 0.07379,-0.127978 0.07344,-0.146259 -4.23e-4,-0.01828 -0.01837,-0.0052 -0.04003,0.02903 -0.0811,0.128238 -0.0989,-0.0079 -0.02973,-0.227356 0.04887,-0.155026 0.09851,-0.234557 0.155736,-0.249523 0.07838,-0.0205 0.08401,-2.71e-4 0.08403,0.302152 1.3e-5,0.178266 0.01799,0.66702 0.03995,1.08612 0.07425,1.416956 0.09128,2.324975 0.04914,2.618583 -0.02292,0.159638 -0.05108,0.299666 -0.06259,0.311174 -0.01151,0.01151 -0.06128,-0.01667 -0.1106,-0.06262 -0.07623,-0.07102 -0.07982,-0.08733 -0.02397,-0.108761 0.08097,-0.03107 0.08642,-0.149582 0.0083,-0.179577 -0.177165,-0.06799 -0.371018,-1.530224 -0.271721,-2.049629 z"
       id="path406" />
    <path
       style="fill:#000000;stroke-width:0.0423333"
       d="m -58.350188,21.605125 c 0.01187,-0.01189 0.01899,-0.118806 0.07064,-1.061132 0.02445,-0.446071 0.05962,-0.621955 0.154856,-0.774453 0.100325,-0.160651 0.163864,-0.111923 0.169367,0.129895 0.0028,0.122238 0.01108,0.327025 0.01843,0.455084 0.0074,0.128058 0.02549,0.956733 0.04031,1.8415 0.02681,1.601509 0.02653,1.609094 -0.06329,1.704855 -0.04963,0.0529 -0.106358,0.08622 -0.126073,0.07403 -0.0696,-0.04302 -0.170772,-0.420911 -0.170772,-0.637885 0,-0.120861 -0.02783,-0.379405 -0.06184,-0.574542 -0.05154,-0.295718 -0.07393,-1.114982 -0.03164,-1.157356 z"
       id="path404" />
    <circle
       id="path588"
       style="fill:#000000;stroke:#000000;stroke-width:0.264583"
       cx="-14.699824"
       cy="64.67923"
       r="0.0047096233" />
    <path
       style="fill:#000000;stroke:#000000;stroke-width:0.264583"
       id="path592"
       d="m 34.34856,165.06049 c 11.955282,0.20776 23.91342,0.12308 35.869271,0.0223 15.438879,-0.15364 30.877159,-0.36226 46.316179,-0.50166 5.4983,-0.0497 10.9968,-0.0666 16.4953,-0.0688 3.95484,-0.0359 7.90643,0.13829 11.85595,0.31843 1.5955,0.0736 3.19082,0.15204 4.7871,0.20706 0,0 0.42519,-0.3068 0.42519,-0.3068 v 0 c -1.60207,-0.0496 -3.20325,-0.12285 -4.80448,-0.19377 -3.95154,-0.17443 -7.9049,-0.35394 -11.86154,-0.3172 -5.51194,0.007 -11.02383,0.0335 -16.53543,0.0975 -15.4692,0.17484 -30.937479,0.42452 -46.407045,0.56792 -11.903892,0.0819 -23.811409,0.15365 -35.713275,-0.1353 0,0 -0.42722,0.31039 -0.42722,0.31039 z" />
    <path
       style="fill:#000000;stroke:#000000;stroke-width:0.264583"
       id="path598"
       d="m 34.713291,164.46559 c 0.531966,-5.30955 0.516199,-10.65625 0.591476,-15.98626 0.121306,-6.69966 0.258857,-13.4017 0.578498,-20.09552 0.323482,-6.77427 0.83535,-13.5399 1.323615,-20.30367 0.594947,-7.67885 1.209474,-15.356563 1.634847,-23.047069 0.06674,-1.174173 0.110731,-2.349346 0.147167,-3.524766 0,0 -0.463085,0.234307 -0.463085,0.234307 v 0 c -0.02995,1.171612 -0.06784,2.343002 -0.127701,3.513548 -0.38722,7.678822 -0.982342,15.34446 -1.563899,23.01052 -0.480245,6.76264 -0.986732,13.52682 -1.311801,20.29926 -0.321567,6.69951 -0.465879,13.40693 -0.608939,20.11198 -0.09484,5.34461 -0.102328,10.70659 -0.671221,16.02768 0,0 0.471043,-0.24001 0.471043,-0.24001 z" />
    <path
       style="fill:#000000;stroke:#000000;stroke-width:0.264583"
       id="path600"
       d="m 38.655807,81.435143 c 5.701885,0.553288 11.430571,0.742976 17.151776,0.980985 14.614321,0.610883 29.242292,0.396589 43.859709,0.05786 6.575408,-0.103828 13.147608,-0.457436 19.724378,-0.468559 5.77445,0.196713 11.53885,0.614858 17.30683,0.944817 2.32081,0.126074 4.6413,0.268277 6.96518,0.322974 0.75081,0.01614 1.50182,0.01061 2.25273,0.0077 0.34364,-0.02225 0.68422,0.02869 1.02403,0.07023 0,0 0.43104,-0.305097 0.43104,-0.305097 v 0 c -0.34106,-0.04309 -0.68282,-0.09924 -1.02804,-0.07564 -0.75177,0.003 -1.50361,0.0083 -2.25532,-0.0041 -2.333,-0.04705 -4.66303,-0.180046 -6.99309,-0.300725 -5.76726,-0.317532 -11.52958,-0.737161 -17.30176,-0.951981 -6.59848,0.01074 -13.19129,0.406079 -19.78829,0.513852 -14.612666,0.360503 -29.2372,0.58356 -43.846356,-0.06404 -5.695537,-0.25056 -11.399459,-0.453059 -17.073528,-1.034701 0,0 -0.429289,0.306475 -0.429289,0.306475 z" />
    <path
       style="fill:#000000;stroke:#000000;stroke-width:0.264583"
       id="path604"
       d="m 149.84001,165.49865 c -0.60122,-4.36309 -1.09168,-8.74426 -1.56013,-13.1241 -1.26249,-11.68154 -1.92201,-23.4122 -2.483,-35.14431 -0.34172,-7.7299 -0.58335,-15.4643 -0.69639,-23.200944 -0.0625,-2.299518 0.14097,-4.582927 0.51746,-6.847165 0.13877,-0.757214 0.23426,-1.520211 0.27115,-2.288969 0.0102,-0.408678 0.006,-0.203451 0.0115,-0.615685 0,0 -0.47152,0.239456 -0.47152,0.239456 v 0 c -0.006,0.411382 -0.002,0.206637 -0.0128,0.614235 -0.0375,0.765744 -0.13264,1.525836 -0.26787,2.280611 -0.36849,2.263322 -0.55613,4.546166 -0.48829,6.842778 0.14192,7.726173 0.42245,15.449263 0.76154,23.169113 0.56711,11.73738 1.22653,23.47286 2.45135,35.16355 0.45228,4.39116 0.92919,8.78282 1.50091,13.15954 0,0 0.46603,-0.24811 0.46603,-0.24811 z" />
    <path
       style="fill:#000000;stroke:#000000;stroke-width:0.264583"
       id="path610"
       d="m 112.83503,148.17509 c 2.02305,0.16369 4.03216,0.48395 6.00335,0.9687 0.53447,0.13144 1.06352,0.28402 1.59528,0.42603 1.85188,0.53682 3.67832,1.18018 5.41,2.03376 0.8975,0.44238 1.13256,0.60377 1.97001,1.10277 0.99521,0.65413 2.01386,1.38812 2.60043,2.45629 0.0737,0.1342 0.12764,0.27834 0.19146,0.41751 0.23898,0.63041 0.3129,1.08379 -0.007,1.68861 -0.15331,0.21872 -0.0707,0.1182 -0.24572,0.30329 0,0 0.24336,-0.10188 0.24336,-0.10188 v 0 c 0.1726,-0.18971 0.0911,-0.0871 0.24239,-0.30957 0.31211,-0.61327 0.23617,-1.07456 -0.007,-1.70778 -0.0647,-0.13999 -0.11955,-0.28501 -0.1942,-0.41997 -0.59203,-1.07035 -1.61473,-1.80629 -2.61517,-2.46107 -0.83447,-0.49574 -1.08118,-0.66338 -1.97459,-1.10287 -1.73452,-0.85325 -3.56412,-1.49505 -5.41801,-2.03329 -0.53184,-0.14233 -1.06102,-0.29501 -1.59552,-0.427 -1.96561,-0.4854 -3.96805,-0.80944 -5.98473,-0.98514 0,0 -0.21362,0.15161 -0.21362,0.15161 z" />
  </g>
</svg>
